<?xml version="1.0" encoding="utf-8"?>
<!-- Generator: Adobe Illustrator 16.0.0, SVG Export Plug-In . SVG Version: 6.00 Build 0)  -->
<!DOCTYPE svg PUBLIC "-//W3C//DTD SVG 1.1//EN" "http://www.w3.org/Graphics/SVG/1.1/DTD/svg11.dtd">
<svg version="1.1" id="Layer_1" xmlns:sketch="http://www.bohemiancoding.com/sketch/ns"
	 xmlns="http://www.w3.org/2000/svg" xmlns:xlink="http://www.w3.org/1999/xlink" x="0px" y="0px" width="28.67px"
	 height="25.149px" viewBox="0.596 0.464 28.67 25.149" enable-background="new 0.596 0.464 28.67 25.149" xml:space="preserve">
<title>Imported Layers 6</title>
<desc>Created with Sketch.</desc>
<g id="ACTIVE" sketch:type="MSPage">
	<g id="Homepage" transform="translate(-1010.000000, -3638.000000)" sketch:type="MSArtboardGroup">
		<g id="_x2022_-Footer" transform="translate(0.000000, 3576.000000)" sketch:type="MSLayerGroup">
			<g id="Transactional-Links" sketch:type="MSShapeGroup">
				<g id="_x30_3---Make-a-Donation" transform="translate(1010.000000, 62.000000)">
					<g id="Imported-Layers-6">
						<path id="Fill-1" d="M26.515,0.764c-0.41-0.4-1.071-0.4-1.48,0c-0.015,0.015-0.031,0.033-0.046,0.049
							c-0.02,0.015-0.037,0.033-0.057,0.051L13.375,12.212c-0.393,0.382-1.087,0.382-1.478,0L9.459,9.818
							C7.675,8.067,7.675,8.067,7.238,8.067c-0.435,0-0.435,0-2.187,1.72c-1.205,1.182-1.19,3.12,0.031,4.321l5.712,5.608
							c1.784,1.752,1.784,1.752,2.26,1.752c0.473,0,0.473,0,2.258-1.752L28.348,6.92c1.224-1.201,1.224-3.153,0-4.354L26.515,0.764
							L26.515,0.764z M26.87,5.469L13.835,18.266c-0.286,0.278-0.554,0.541-0.78,0.759c-0.228-0.218-0.498-0.48-0.782-0.759
							l-5.71-5.608c-0.408-0.4-0.422-1.037-0.034-1.418c0.257-0.252,0.5-0.491,0.709-0.698c0.22,0.215,0.473,0.464,0.742,0.729
							l2.438,2.394c1.18,1.157,3.253,1.157,4.435,0L25.771,2.942l1.099,1.076c0.196,0.193,0.303,0.45,0.303,0.727
							C27.173,5.02,27.066,5.276,26.87,5.469L26.87,5.469z"/>
						<path id="Fill-2" d="M23.07,17.506c-0.576,0-1.043,0.457-1.043,1.025v5.029H2.685V4.574h12.65c0.58,0,1.045-0.459,1.045-1.026
							c0-0.569-0.466-1.026-1.045-1.026H0.596v23.092h23.522v-7.082C24.118,17.963,23.65,17.506,23.07,17.506"/>
					</g>
				</g>
			</g>
		</g>
	</g>
</g>
</svg>
