<?xml version="1.0" encoding="utf-8"?>
<!-- Generator: Adobe Illustrator 16.0.0, SVG Export Plug-In . SVG Version: 6.00 Build 0)  -->
<!DOCTYPE svg PUBLIC "-//W3C//DTD SVG 1.1//EN" "http://www.w3.org/Graphics/SVG/1.1/DTD/svg11.dtd">
<svg version="1.1" id="Layer_1" xmlns:sketch="http://www.bohemiancoding.com/sketch/ns"
	 xmlns="http://www.w3.org/2000/svg" xmlns:xlink="http://www.w3.org/1999/xlink" x="0px" y="0px" width="11.809px" height="13.5px"
	 viewBox="0.25 0.25 11.809 13.5" enable-background="new 0.25 0.25 11.809 13.5" xml:space="preserve">
<title>Imported Layers 8 + Path 2</title>
<desc>Created with Sketch.</desc>
<g id="ACTIVE" sketch:type="MSPage">
	<g id="Homepage" transform="translate(-1203.000000, -43.000000)" sketch:type="MSArtboardGroup">
		<g id="_x2022_-Header" transform="translate(-2.000000, -58.000000)" sketch:type="MSLayerGroup">
			<g id="Audience-Based-Nav-Button" transform="translate(1206.000000, 94.000000)" sketch:type="MSShapeGroup">
				<g id="Imported-Layers-8-_x2B_-Path-2" transform="translate(0.000000, 8.000000)">
					<g id="Imported-Layers-8">
						<path fill="#231F1F" d="M11.059,12.75H-0.75V12c0-3.715,2.648-6.736,5.903-6.736c3.256,0,5.906,3.021,5.906,6.736V12.75z
							 M0.795,11.25h8.719C9.206,8.717,7.368,6.764,5.153,6.764C2.939,6.764,1.102,8.717,0.795,11.25z"/>
					</g>
					<g id="Path-2">
						<path fill="#231F1F" d="M5.153,6.126c-1.895,0-3.437-1.542-3.437-3.438S3.258-0.75,5.153-0.75
							c1.896,0,3.439,1.542,3.439,3.438S7.049,6.126,5.153,6.126z M5.153,0.75c-1.068,0-1.937,0.869-1.937,1.938
							s0.869,1.938,1.937,1.938c1.069,0,1.939-0.869,1.939-1.938S6.222,0.75,5.153,0.75z"/>
					</g>
				</g>
			</g>
		</g>
	</g>
</g>
</svg>
