<?xml version="1.0" encoding="utf-8"?>
<!-- Generator: Adobe Illustrator 16.0.0, SVG Export Plug-In . SVG Version: 6.00 Build 0)  -->
<!DOCTYPE svg PUBLIC "-//W3C//DTD SVG 1.1//EN" "http://www.w3.org/Graphics/SVG/1.1/DTD/svg11.dtd">
<svg version="1.1" id="Layer_1" xmlns:sketch="http://www.bohemiancoding.com/sketch/ns"
	 xmlns="http://www.w3.org/2000/svg" xmlns:xlink="http://www.w3.org/1999/xlink" x="0px" y="0px" width="24.853px"
	 height="26.315px" viewBox="0.326 0.419 24.853 26.315" enable-background="new 0.326 0.419 24.853 26.315" xml:space="preserve">
<title>Imported Layers 5</title>
<desc>Created with Sketch.</desc>
<g id="ACTIVE" sketch:type="MSPage">
	<g id="Homepage" transform="translate(-613.000000, -3639.000000)" sketch:type="MSArtboardGroup">
		<g id="_x2022_-Footer" transform="translate(0.000000, 3576.000000)" sketch:type="MSLayerGroup">
			<g id="Transactional-Links" sketch:type="MSShapeGroup">
				<g id="_x30_2---See-the-Campus" transform="translate(613.000000, 63.000000)">
					<g id="Imported-Layers-5">
						<path id="Fill-1" d="M12.748,13.71c2.52,0,4.565-2.041,4.565-4.558c0-2.515-2.045-4.556-4.565-4.556
							c-2.523,0-4.568,2.041-4.568,4.556C8.179,11.67,10.224,13.71,12.748,13.71L12.748,13.71z M12.748,6.124
							c1.673,0,3.036,1.36,3.036,3.029c0,1.671-1.362,3.032-3.036,3.032c-1.675,0-3.039-1.36-3.039-3.032
							C9.708,7.483,11.073,6.124,12.748,6.124L12.748,6.124z"/>
						<path id="Fill-2" d="M6.304,15.066L6.304,15.066l0.142,0.152c0.037,0.037,0.07,0.074,0.109,0.113h0.001l6.191,6.508
							l6.19-6.508c0.008-0.008,0.016-0.018,0.022-0.023l0.11-0.117l0.117-0.125l0.005-0.006c1.489-1.62,2.31-3.716,2.31-5.903
							c0-4.819-3.928-8.738-8.754-8.738c-4.83,0-8.757,3.919-8.757,8.738c0,2.186,0.82,4.281,2.31,5.903L6.304,15.066L6.304,15.066z
							 M12.748,1.946c3.985,0,7.225,3.234,7.225,7.212c0,1.694-0.598,3.324-1.688,4.625l-0.281,0.312
							c-0.04,0.055-0.099,0.108-0.153,0.163l-5.102,5.366l-5.105-5.366c-0.057-0.055-0.113-0.108-0.153-0.163l-0.239-0.312H7.208
							C6.116,12.48,5.52,10.85,5.52,9.158C5.52,5.18,8.762,1.946,12.748,1.946L12.748,1.946z"/>
						<path id="Fill-3" d="M21.078,15.418c-0.387-0.175-0.838-0.009-1.014,0.375c-0.178,0.383-0.01,0.836,0.375,1.012
							c2.04,0.936,3.21,2.196,3.21,3.459c0,2.389-4.382,4.945-10.903,4.945c-6.514,0-10.891-2.557-10.891-4.945
							c0-1.262,1.166-2.521,3.197-3.459c0.384-0.178,0.55-0.631,0.373-1.014c-0.179-0.383-0.632-0.549-1.016-0.373
							c-2.632,1.217-4.083,2.938-4.083,4.846c0,3.629,5.456,6.471,12.42,6.471c6.971,0,12.433-2.842,12.433-6.471
							C25.179,18.352,23.723,16.631,21.078,15.418"/>
					</g>
				</g>
			</g>
		</g>
	</g>
</g>
</svg>
