<?xml version="1.0" encoding="UTF-8" standalone="no"?>
<svg width="131px" height="55px" viewBox="0 0 131 55" version="1.1" xmlns="http://www.w3.org/2000/svg" xmlns:xlink="http://www.w3.org/1999/xlink" xmlns:sketch="http://www.bohemiancoding.com/sketch/ns">
    <!-- Generator: Sketch 3.2.2 (9983) - http://www.bohemiancoding.com/sketch -->
    <title>Sesquicentennial Logo</title>
    <desc>Created with Sketch.</desc>
    <defs></defs>
    <g id="ACTIVE" stroke="none" stroke-width="1" fill="none" fill-rule="evenodd" sketch:type="MSPage">
        <g id="Homepage-(Mobile)" sketch:type="MSArtboardGroup" transform="translate(-249.000000, -13210.000000)" fill="#454545">
            <g id="•-Mobile-Footer" sketch:type="MSLayerGroup" transform="translate(-17.000000, 11628.000000)">
                <g id="Subfooter" transform="translate(142.000000, 1291.000000)" sketch:type="MSShapeGroup">
                    <g id="Sesquicentennial-Logo" transform="translate(124.000000, 291.000000)">
                        <path d="M8.24992488,40.1759551 L8.82835446,30.2530899 L0.191579812,34.5841854 L11.1635986,19.4607303 L23.9536268,19.4607303 L8.24992488,40.1759551" id="Fill-1"></path>
                        <path d="M35.6021714,2.86525281 L35.6021714,37.9314607 C33.3939296,37.9948034 31.309615,38.1190169 29.3504577,38.306882 C28.9150211,38.3387079 28.4875798,38.3702247 28.0675188,38.4008146 C27.6471502,38.4323315 27.2581479,38.4564326 26.9005117,38.471573 C26.5431831,38.4864045 26.2249085,38.4941292 25.9444577,38.4941292 L25.9444577,37.6502809 C27.4687934,37.3700281 28.7277465,36.7285674 29.7234695,35.7289888 C30.6567676,34.7905899 31.2948545,33.7746348 31.6365,32.6814326 C31.9483169,31.7430337 32.1029953,29.7908427 32.1029953,26.8217697 L32.1029953,13.7416573 C32.1029953,10.8662079 31.9938286,9.05429775 31.7764178,8.30407303 C31.559007,7.49081461 30.9987207,6.83514045 30.0970962,6.33426966 C29.1637981,5.83463483 27.7793803,5.55314607 25.9444577,5.49011236 L25.9444577,4.69384831 C29.9255047,4.25601124 33.1445376,3.6463764 35.6021714,2.86525281 L35.6021714,2.86525281 Z M38.775385,37.9314607 L38.775385,1.9277809 C40.5488052,1.20907303 41.6835235,0.709438202 42.18077,0.427640449 L42.18077,28.7900281 C42.18077,33.9785674 44.1719085,36.931882 48.1532629,37.6502809 L48.1532629,38.4941292 C45.2601925,38.2444663 42.9584671,38.088427 41.2474718,38.0257022 C39.5687653,37.9635955 38.7440188,37.9314607 38.775385,37.9314607 L38.775385,37.9314607 Z" id="Fill-2"></path>
                        <path d="M56.5984577,7.74294944 L81.9328122,7.74294944 L78.9471808,10.8365449 L59.9106667,10.8365449 L59.3509953,22.1353371 C61.1551667,21.3223876 63.1607582,20.9160674 65.369,20.9160674 C69.2261197,20.9160674 72.5546268,22.4165169 75.3535986,25.4161798 C78.1531854,28.4173876 79.5529789,32.3702809 79.5529789,37.2773315 C79.5529789,42.433736 78.2303709,46.6226966 75.5873075,49.8411236 C72.9433216,53.1228933 69.3503545,54.7642416 64.8093286,54.7642416 C61.2634108,54.7642416 58.2934624,53.7322191 55.897946,51.6691011 C53.5027371,49.6702528 51.9479577,47.0280899 51.2320704,43.7469382 L52.39877,43.4187921 C55.1983568,48.8257865 59.1640282,51.5297472 64.295784,51.5297472 C67.8736831,51.5297472 70.6569718,50.2474438 72.6478028,47.684073 C74.669385,45.1216292 75.6807911,41.7317135 75.6807911,37.510618 C75.6807911,33.2604775 74.6540094,29.9169101 72.601061,27.4789888 C70.4863028,25.0728933 67.8887512,23.869691 64.8093286,23.869691 C61.6994624,23.869691 58.8531338,25.2137921 56.2715728,27.9004494 L55.6181103,27.9004494 L56.5984577,7.74294944" id="Fill-3"></path>
                        <path d="M84.8713944,5.38598315 L56.7845023,5.38598315 L56.9250352,2.29115169 L80.3457441,2.29115169 C82.4300587,2.29115169 83.9380962,2.16755618 84.8713944,1.91727528 C85.6490915,1.69851124 86.45877,1.11977528 87.2979695,0.181685393 L88.6048944,0.181685393 C87.7340211,1.71365169 86.8625329,3.01047753 85.9922746,4.07339888 L84.8713944,5.38598315" id="Fill-4"></path>
                        <path d="M78.3404601,50.8252528 C81.2630516,47.9813202 82.7261925,43.6372472 82.7261925,37.7921067 C82.7261925,32.1051685 81.1855587,27.416573 78.1061362,23.7287921 C83.8606033,26.6972472 86.7373756,31.2288764 86.7373756,37.3242978 C86.7373756,43.3875843 83.9380962,47.8873876 78.3404601,50.8252528" id="Fill-5"></path>
                        <path d="M98.1605141,6.62286517 C96.244716,9.92873596 95.2871244,14.7588483 95.2871244,21.1101124 C95.2871244,27.1335393 96.2871526,31.5369382 98.289054,34.319691 C93.8854859,31.1772753 91.6833944,26.6267978 91.6833944,20.6679494 C91.6833944,14.2517978 93.8427418,9.56938202 98.1605141,6.62286517 L98.1605141,6.62286517 Z M98.0753333,20.2755337 C98.0753333,14.6435955 99.2614061,10.0436798 101.634474,6.47516854 C104.008157,2.93941011 107.224423,1.17230337 111.2845,1.17230337 C114.831033,1.17230337 117.862176,2.69407303 120.378237,5.73823034 C122.894298,8.75087079 124.152021,13.6619382 124.152021,20.4717416 C124.152021,26.8557584 122.952418,31.6021348 120.549521,34.7121067 C118.147547,37.8563764 115.0303,39.4278933 111.199627,39.4278933 C108.19739,39.4278933 105.681329,38.5441854 103.650829,36.7746067 C101.59173,35.0405618 100.1618,32.8464326 99.3604249,30.194691 C98.5033897,27.5757022 98.0753333,24.2685955 98.0753333,20.2755337 L98.0753333,20.2755337 Z M101.677833,21.6496067 C101.677833,26.8557584 102.592373,30.6044101 104.422376,32.8958708 C106.281284,35.2197753 108.525812,36.381882 111.15596,36.381882 C113.815937,36.381882 116.059235,35.1882584 117.889852,32.7973034 C119.720469,30.4733989 120.635932,26.3641573 120.635932,20.4717416 C120.635932,9.7983427 117.461796,4.46241573 111.114446,4.46241573 C104.822448,4.46241573 101.677833,10.1910674 101.677833,21.6496067 L101.677833,21.6496067 Z M124.152021,34.1729213 C126.125016,30.9313202 127.112129,26.2662079 127.112129,20.1769663 C127.112129,14.6111517 126.125016,10.011236 124.152021,6.37752809 C128.528528,9.84747191 130.715244,14.4470787 130.715244,20.1769663 C130.715244,26.2003933 128.528528,30.8661236 124.152021,34.1729213 L124.152021,34.1729213 Z" id="Fill-6"></path>
                    </g>
                </g>
            </g>
        </g>
    </g>
</svg>