<?xml version="1.0" encoding="UTF-8" standalone="no"?>
<svg width="317px" height="38px" viewBox="0 0 317 38" version="1.1" xmlns="http://www.w3.org/2000/svg" xmlns:xlink="http://www.w3.org/1999/xlink" xmlns:sketch="http://www.bohemiancoding.com/sketch/ns">
    <!-- Generator: Sketch 3.2.2 (9983) - http://www.bohemiancoding.com/sketch -->
    <title>Arts&amp;Sciences</title>
    <desc>Created with Sketch.</desc>
    <defs>
        <path d="M12.8275685,21.4916739 L17.1580102,9.10228941 L21.4884519,21.4916739 L12.8275685,21.4916739 L12.8275685,21.4916739 Z M21.5895653,0.208499788 L13.1291652,0.208499788 L0.0367267231,34.7303098 L8.49712674,34.7303098 L10.9639444,27.7858202 L23.352076,27.7858202 L25.8188936,34.7303098 L34.6802605,34.7303098 L21.5895653,0.208499788 L21.5895653,0.208499788 Z" id="path-1"></path>
    </defs>
    <g id="ACTIVE" stroke="none" stroke-width="1" fill="none" fill-rule="evenodd" sketch:type="MSPage">
        <g id="Homepage-(Mobile)" sketch:type="MSArtboardGroup" transform="translate(-164.000000, -145.000000)">
            <g id="•-Mobile-Header" sketch:type="MSLayerGroup" transform="translate(0.000000, -1.000000)">
                <g id="Arts&amp;Sciences" transform="translate(164.000000, 146.000000)">
                    <path d="M141.649169,1.918481 C137.622067,1.918481 134.449199,3.01507039 132.484462,4.66514337 C130.470911,6.31521636 128.86007,8.91313001 128.86007,12.2098167 C128.86007,15.456344 130.068201,17.4558035 131.579672,18.8550792 C133.089399,20.3010551 134.85191,20.9513983 135.707887,21.352674 C136.867204,21.8508092 139.485691,22.7519497 140.995419,23.3002444 C142.505146,23.8502687 145.07482,24.7496796 145.07482,27.096796 C145.07482,29.3954825 143.061269,30.6442799 140.442782,30.6442799 C137.773737,30.6442799 133.894819,28.8956177 131.379188,26.297704 L127.3486,32.1923044 C130.169314,34.790218 134.651426,37.3898613 139.686175,37.3898613 C143.413423,37.3898613 146.636848,36.4904504 149.103665,34.5411504 C151.621039,32.59358 153.181323,29.5961203 153.181323,26.297704 C153.181323,23.1999255 151.922636,21.1018767 150.463466,19.6524415 C148.901438,18.1044171 146.584547,17.2067359 145.627457,16.8556197 C144.52044,16.4059143 141.952509,15.5065034 140.442782,14.9063196 C138.880754,14.3078655 136.916017,13.5087735 136.916017,11.4107248 C136.916017,9.31094635 138.830198,8.31294623 141.448685,8.31294623 C144.067173,8.31294623 147.189484,9.81081123 149.203035,11.8085411 L152.6775,6.164738 C150.311796,3.81589197 145.679757,1.918481 141.649169,1.918481" id="Fill-1" fill="#2C2C2C" sketch:type="MSShapeGroup"></path>
                    <path d="M176.458538,34.0335808 C176.207498,34.2342186 173.58901,36.9826106 166.992234,36.9826106 C160.193232,36.9826106 153.899796,32.3852374 153.899796,24.1936801 C153.899796,15.9485041 160.294345,11.3528606 167.091604,11.3528606 C173.43734,11.3528606 176.306868,13.9507742 176.306868,13.9507742 L174.546101,19.9958529 C173.84005,19.4458286 171.624273,17.7974853 168.149808,17.7974853 C164.7259,17.7974853 162.006299,20.1463313 162.006299,24.0432018 C162.006299,27.9400722 164.473117,30.3875075 168.250922,30.3875075 C172.026983,30.3875075 174.546101,27.9902317 174.546101,27.9902317 L176.458538,34.0335808" id="Fill-2" fill="#2C2C2C" sketch:type="MSShapeGroup"></path>
                    <path d="M183.137703,9.26864888 C180.418102,9.26864888 178.554478,7.62030553 178.554478,5.12271078 C178.554478,2.67527548 180.418102,0.975043044 183.137703,0.975043044 C185.855561,0.975043044 187.719185,2.67527548 187.719185,5.12271078 C187.719185,7.62030553 185.855561,9.26864888 183.137703,9.26864888 L183.137703,9.26864888 Z M179.108858,12.1156302 L187.164805,12.1156302 L187.164805,36.7456504 L179.108858,36.7456504 L179.108858,12.1156302 Z" id="Fill-3" fill="#2C2C2C" sketch:type="MSShapeGroup"></path>
                    <path d="M215.665172,26.0409316 L197.989508,26.0409316 C198.343405,29.5884156 201.063006,31.1865995 204.335244,31.1865995 C207.558669,31.1865995 210.379383,29.7873238 211.787997,28.8377535 L214.960865,32.9854212 C214.155445,33.5838753 210.881464,36.9826106 203.17767,36.9826106 C195.522691,36.9826106 189.933562,32.2849185 189.933562,24.141791 C189.933562,15.9986635 195.975958,11.3528606 203.329341,11.3528606 C210.68098,11.3528606 215.766285,16.1975717 215.766285,23.3928585 C215.766285,24.5914965 215.665172,26.0409316 215.665172,26.0409316 L215.665172,26.0409316 Z M208.262976,21.4937179 C208.214162,19.2451908 206.552765,16.5486879 203.17767,16.5486879 C199.854876,16.5486879 198.141179,19.1466015 198.041808,21.4937179 L208.262976,21.4937179 L208.262976,21.4937179 Z" id="Fill-4" fill="#2C2C2C" sketch:type="MSShapeGroup"></path>
                    <path d="M234.697135,36.4325863 L234.697135,23.5934963 C234.697135,20.3452395 234.193312,17.8978042 230.868774,17.8978042 C227.394309,17.8978042 226.437218,20.694626 226.437218,24.2421099 L226.437218,36.4325863 L218.381272,36.4325863 L218.381272,11.8008364 L226.437218,11.8008364 L226.388405,15.3483203 L226.489518,15.3483203 C227.847576,13.1516823 230.11391,11.3528606 233.689488,11.3528606 C240.889458,11.3528606 242.753082,15.9485041 242.753082,21.8932639 L242.753082,36.4325863 L234.697135,36.4325863 Z" id="Fill-5" fill="#2C2C2C" sketch:type="MSShapeGroup"></path>
                    <path d="M268.441211,34.0335808 C268.188427,34.2342186 265.569939,36.9826106 258.973163,36.9826106 C252.175904,36.9826106 245.880725,32.3852374 245.880725,24.1936801 C245.880725,15.9485041 252.275274,11.3528606 259.074277,11.3528606 C265.418269,11.3528606 268.28954,13.9507742 268.28954,13.9507742 L266.52703,19.9958529 C265.822723,19.4458286 263.605202,17.7974853 260.130737,17.7974853 C256.706829,17.7974853 253.988971,20.1463313 253.988971,24.0432018 C253.988971,27.9400722 256.455789,30.3875075 260.233594,30.3875075 C264.009655,30.3875075 266.52703,27.9902317 266.52703,27.9902317 L268.441211,34.0335808" id="Fill-6" fill="#2C2C2C" sketch:type="MSShapeGroup"></path>
                    <path d="M294.370503,26.0409316 L276.694839,26.0409316 C277.046993,29.5884156 279.768337,31.1865995 283.040575,31.1865995 C286.262257,31.1865995 289.084714,29.7873238 290.493328,28.8377535 L293.666196,32.9854212 C292.860776,33.5838753 289.586795,36.9826106 281.883002,36.9826106 C274.228022,36.9826106 268.638893,32.2849185 268.638893,24.141791 C268.638893,15.9986635 274.681289,11.3528606 282.034672,11.3528606 C289.386311,11.3528606 294.471617,16.1975717 294.471617,23.3928585 C294.471617,24.5914965 294.370503,26.0409316 294.370503,26.0409316 L294.370503,26.0409316 Z M286.968307,21.4937179 C286.91775,19.2451908 285.256353,16.5486879 281.883002,16.5486879 C278.560207,16.5486879 276.84651,19.1466015 276.74714,21.4937179 L286.968307,21.4937179 L286.968307,21.4937179 Z" id="Fill-7" fill="#2C2C2C" sketch:type="MSShapeGroup"></path>
                    <path d="M313.266719,34.8862914 C311.455395,36.2838375 308.986834,37.0344997 305.662296,37.0344997 C301.936792,37.0344997 298.00906,35.8842916 295.190089,33.2379481 L298.211287,28.4918262 C300.224838,30.1885994 303.547632,31.4875562 305.562926,31.4875562 C307.576477,31.4875562 308.986834,30.989421 308.986834,29.3895074 C308.986834,27.7913235 305.362443,26.9905019 304.454166,26.6930045 C303.497076,26.4422072 302.088462,26.0426613 300.929145,25.544526 C299.773314,25.0446612 296.699816,23.4949071 296.699816,19.0981717 C296.699816,14.30362 300.929145,11.3528606 306.115563,11.3528606 C311.303725,11.3528606 314.222067,13.2520012 315.634167,14.4022093 L313.015679,19.0981717 C311.605322,17.9981231 308.784608,16.6991662 306.771057,16.6991662 C304.856876,16.6991662 303.800416,17.1990311 303.800416,18.4979879 C303.800416,19.7969448 305.714596,20.3971285 307.424807,20.8969934 C309.138505,21.3968583 309.893368,21.6476556 310.951572,22.0454719 C312.058589,22.4467475 313.317276,23.0953611 314.173253,23.894453 C314.978673,24.693545 316.186804,26.2917289 316.186804,28.8896425 C316.186804,31.4391264 315.079787,33.4368563 313.266719,34.8862914" id="Fill-8" fill="#2C2C2C" sketch:type="MSShapeGroup"></path>
                    <g id="Group-23" transform="translate(0.282162, 0.975043)">
                        <mask id="mask-2" sketch:name="Clip 22" fill="white">
                            <use xlink:href="#path-1"></use>
                        </mask>
                        <g id="Clip-22"></g>
                        <path d="M0.0367267231,0.208499788 L34.6802605,0.208499788 L34.6802605,34.7303098 L0.0367267231,34.7303098 L0.0367267231,0.208499788 Z" id="Fill-21" fill="#2C2C2C" sketch:type="MSShapeGroup" mask="url(#mask-2)"></path>
                    </g>
                    <path d="M53.5800479,18.2031636 L53.2278945,18.2031636 C52.7746276,17.9523663 51.7181672,17.6029798 50.3060666,17.6029798 C48.4947426,17.6029798 47.1854987,18.6027095 46.5805618,19.4018015 C45.9773683,20.2008934 45.3218747,21.800807 45.3218747,24.549199 L45.3218747,35.4891483 L37.2641848,35.4891483 L37.2641848,10.859128 L45.3218747,10.859128 L45.271318,14.3564525 L45.3724314,14.3564525 C46.7810452,11.65822 48.8468961,10.4094226 51.5141971,10.4094226 C53.1755944,10.4094226 54.0333148,10.859128 54.0333148,10.859128 L53.5800479,18.2031636" id="Fill-24" fill="#2C2C2C" sketch:type="MSShapeGroup"></path>
                    <path d="M70.5058373,16.5458576 L65.0178218,16.5458576 L65.0178218,25.3877581 C65.0178218,27.4858069 65.3194186,27.9856717 65.7221287,28.4353772 C66.0742822,28.8366528 66.5781057,29.035561 67.6363095,29.035561 C68.8949966,29.035561 70.0525704,28.5858555 70.0525704,28.5858555 L70.4552806,34.8298424 C69.8503437,34.9803208 67.6363095,35.630664 64.7144816,35.630664 C61.8449538,35.630664 59.9307731,34.7814126 58.6720859,33.3319774 C57.4116554,31.8825422 56.9095752,29.8363825 56.9095752,26.0882608 L56.9095752,16.5458576 L53.3845538,16.5458576 L53.3845538,10.5007789 L56.9095752,10.5007789 L56.9095752,3.80535691 L65.0178218,3.80535691 L65.0178218,10.5007789 L70.5058373,10.5007789 L70.5058373,16.5458576" id="Fill-25" fill="#2C2C2C" sketch:type="MSShapeGroup"></path>
                    <path d="M88.5298103,33.9411238 C86.7184863,35.3403996 84.2499253,36.0893321 80.9271307,36.0893321 C77.1998825,36.0893321 73.272151,34.939124 70.4531798,32.2927805 L73.476121,27.5466586 C75.4896718,29.2434318 78.8124665,30.5423886 80.8260173,30.5423886 C82.8413114,30.5423886 84.2499253,30.0442534 84.2499253,28.4443398 C84.2499253,26.8478856 80.6255339,26.047064 79.7190002,25.7478369 C78.7619098,25.4970397 77.3515526,25.0974937 76.1939788,24.5993584 C75.036405,24.0994936 71.9629071,22.5497395 71.9629071,18.1530041 C71.9629071,13.3584524 76.1939788,10.4094226 81.3803975,10.4094226 C86.5668162,10.4094226 89.4869007,12.3068336 90.8990013,13.4570417 L88.2805136,18.1530041 C86.868413,17.0529555 84.0494419,15.7539986 82.0358911,15.7539986 C80.1217103,15.7539986 79.0652499,16.2555932 79.0652499,17.55455 C79.0652499,18.8517772 80.9776873,19.4519609 82.6896413,19.9518258 C84.4015954,20.4516907 85.1582023,20.702488 86.2146627,21.1003043 C87.3234232,21.5015799 88.5821104,22.1501935 89.4380874,22.9510151 C90.2435077,23.750107 91.4516382,25.3465613 91.4516382,27.944475 C91.4516382,30.4939588 90.3428777,32.4916887 88.5298103,33.9411238" id="Fill-26" fill="#2C2C2C" sketch:type="MSShapeGroup"></path>
                    <path d="M128.266425,35.1535989 L119.000605,35.1535989 L115.574953,31.4556366 C112.051675,34.3043475 108.979921,35.7537826 104.448996,35.7537826 C98.0021465,35.7537826 92.2630908,32.4553663 92.2630908,25.6111956 C92.2630908,20.6661656 96.1385224,17.6168169 100.620634,15.7194059 C98.9592368,13.8704248 97.0467994,11.6236273 97.0467994,8.27505147 C97.0467994,2.72983764 102.132105,0.0316050869 107.721234,0.0316050869 C113.259806,0.0316050869 117.992958,2.72983764 117.992958,8.0761433 C117.992958,12.0716031 114.821833,15.1192221 111.446738,16.9180438 L116.029964,22.0654413 C117.136981,20.9152332 119.554985,17.5182276 120.459775,15.8197248 L126.151761,18.9157737 C124.992444,20.7664845 122.224029,24.7619442 120.360405,26.6091958 L128.266425,34.7540529 L128.266425,35.1535989 L128.266425,35.1535989 Z M104.801149,19.865344 L103.793502,20.4153683 C102.182661,21.3147792 100.116811,22.7140549 100.116811,25.362128 C100.116811,28.0586309 102.383145,29.8072932 105.001633,29.8072932 C107.569564,29.8072932 109.937011,28.3595877 111.246255,26.9101525 L104.801149,19.865344 L104.801149,19.865344 Z M107.872904,5.37791075 C105.85761,5.37791075 104.497809,6.52638922 104.497809,8.42552983 C104.497809,9.92339482 105.606569,11.0234435 106.159206,11.6737867 L107.318523,12.9208545 C108.828251,11.9730138 111.145142,10.5235786 111.145142,8.32521093 C111.145142,6.42779995 109.835898,5.37791075 107.872904,5.37791075 L107.872904,5.37791075 Z" id="Fill-27" fill="#E44444" sketch:type="MSShapeGroup"></path>
                </g>
            </g>
        </g>
    </g>
</svg>