<?xml version="1.0" encoding="UTF-8" standalone="no"?>
<svg width="200px" height="199px" viewBox="0 0 200 199" version="1.1" xmlns="http://www.w3.org/2000/svg" xmlns:xlink="http://www.w3.org/1999/xlink" xmlns:sketch="http://www.bohemiancoding.com/sketch/ns">
    <!-- Generator: Sketch 3.2.2 (9983) - http://www.bohemiancoding.com/sketch -->
    <title>Insignia</title>
    <desc>Created with Sketch.</desc>
    <defs></defs>
    <g id="ACTIVE" stroke="none" stroke-width="1" fill="none" fill-rule="evenodd" sketch:type="MSPage">
        <g id="Homepage-(Mobile)" sketch:type="MSArtboardGroup" transform="translate(-220.000000, -12919.000000)" fill="#454545">
            <g id="•-Mobile-Footer" sketch:type="MSLayerGroup" transform="translate(-17.000000, 11628.000000)">
                <g id="Subfooter" transform="translate(142.000000, 1291.000000)" sketch:type="MSShapeGroup">
                    <g id="Insignia" transform="translate(95.000000, 0.000000)">
                        <path d="M76.8476434,152.369959 C88.1795722,161.277993 99.3449911,165.988766 99.8167694,166.182486 L100.680154,166.545326 L101.549707,166.176336 C102.015318,165.970316 113.140651,161.198045 124.438661,152.382259 C139.646572,140.516154 147.691471,127.008044 147.691471,113.30314 L147.68222,50.6547831 L53.5670821,50.6640079 L53.560915,112.217694 C53.560915,126.491458 61.6119807,140.368558 76.8476434,152.369959 L76.8476434,152.369959 Z M98.5371094,133.164028 C98.0560806,132.997982 97.5195484,132.874986 96.850425,132.874986 L96.7425019,132.874986 C94.4545315,132.874986 92.7400954,133.031807 90.9208198,133.191702 C89.1292958,133.360823 87.2699344,133.526868 84.5410209,133.585292 C83.2921961,133.612966 82.1636285,133.600666 81.315661,133.585292 L81.315661,104.127588 L81.7041843,104.127588 C82.8358354,104.136813 84.2265021,104.127588 85.9748568,104.093764 C87.4487785,104.05379 89.0737925,103.87852 90.951655,103.681725 C91.9846335,103.567953 93.0823659,103.454181 94.3157732,103.343484 C96.2676401,103.13439 98.0745817,103.481855 98.0745817,103.481855 L98.5371094,103.632526 L98.5371094,133.164028 L98.5371094,133.164028 Z M143.232704,113.30314 C143.232704,138.951022 111.648228,156.333527 102.348338,160.890554 L102.348338,137.558084 L102.817032,137.072247 C103.282644,136.534137 103.575578,136.214346 104.463631,136.208196 C106.615927,136.238945 108.234774,136.346567 110.075634,136.512612 C111.839406,136.669433 113.834442,136.857003 116.671279,136.915427 C119.474197,136.989225 121.657328,136.866228 121.743666,136.857003 L123.325511,136.770906 L123.325511,128.056591 L127.028816,128.056591 L127.028816,123.410392 L123.325511,123.410392 L123.325511,114.969745 L127.028816,114.969745 L127.028816,110.32662 L123.319344,110.32662 L123.319344,100.846651 L121.691246,100.809752 C121.093044,100.791303 120.405419,100.791303 119.594454,100.797453 C118.45972,100.782078 117.112222,100.797453 115.403953,100.754404 C114.06879,100.72673 112.50853,100.563759 110.701588,100.370039 C109.653192,100.256267 108.527708,100.136346 107.349804,100.034873 C104.824403,99.7396814 102.588852,100.200919 102.459344,100.234743 L102.348338,100.265492 L102.348338,91.3144091 L143.22962,91.3144091 L143.232704,113.30314 L143.232704,113.30314 Z M102.348338,133.311624 L102.348338,103.777047 C102.567267,103.675575 102.823199,103.571028 103.174721,103.494155 C103.199389,103.48493 105.00633,103.119015 107.016784,103.349634 C108.210106,103.454181 109.317088,103.567953 110.353151,103.687875 C112.22793,103.87852 113.84986,104.05379 115.323782,104.093764 C116.810037,104.127588 118.043445,104.127588 119.085674,104.127588 L119.97681,104.127588 L119.982977,133.585292 C119.13501,133.600666 118.009526,133.622191 116.754534,133.585292 C114.025621,133.526868 112.172426,133.360823 110.377819,133.194777 C108.540042,133.025657 106.89036,132.868836 104.454381,132.874986 C103.594079,132.874986 102.921872,133.059481 102.348338,133.311624 L102.348338,133.311624 Z M58.0165986,55.1103377 L143.226537,55.098038 L143.22962,86.8650044 L58.0135151,86.8650044 L58.0165986,55.1103377 L58.0165986,55.1103377 Z M58.0135151,91.3144091 L98.5371094,91.3144091 L98.5371094,100.179395 C97.874153,100.062548 96.0209586,99.7950299 93.9827532,100.028724 C92.7740141,100.136346 91.6546971,100.256267 90.6063009,100.370039 C88.7931923,100.563759 87.2329322,100.72673 85.8946854,100.754404 C84.1864163,100.797453 82.8235014,100.797453 81.7041843,100.797453 C80.8963026,100.797453 80.2055945,100.797453 79.601225,100.809752 L77.970044,100.846651 L77.970044,109.404145 L73.964554,109.404145 L73.964554,114.059569 L77.970044,114.059569 L77.970044,122.617063 L73.964554,122.617063 L73.964554,127.254038 L77.970044,127.254038 L77.970044,136.770906 L79.5488052,136.857003 C79.6382272,136.866228 81.8121074,136.976925 84.6242759,136.915427 C87.4611125,136.857003 89.4561487,136.669433 91.219921,136.512612 C93.0361132,136.352717 94.6056239,136.208196 96.7425019,136.208196 C97.5843023,136.195896 97.8618189,136.460339 98.3181796,137.029199 L98.5371094,137.278267 L98.5371094,160.687609 C88.7099373,155.869214 58.0135151,138.686579 58.0135151,112.217694 L58.0135151,91.3144091 L58.0135151,91.3144091 Z" id="Fill-28"></path>
                        <path d="M93.5911464,58.2898018 L69.8110552,58.2898018 L69.8110552,59.9502569 C69.8048881,65.1314918 69.8018046,73.8888551 69.8326398,74.2885943 C69.94673,76.0843458 71.1338844,77.7079019 73.4681076,79.2545851 C76.3388629,81.1764082 80.618786,83.6763156 80.79763,83.7839377 L81.6147623,84.2605498 L82.4380616,83.808537 C82.6323233,83.7070648 87.2514333,81.1917827 90.1345227,79.2545851 C93.5078914,77.0160456 93.5664783,74.968151 93.5911464,74.2885943 C93.6158146,73.9226792 93.606564,66.2876606 93.5911464,59.9502569 L93.5911464,58.2898018 L93.5911464,58.2898018 Z M73.1597558,61.6168618 L90.2578634,61.6168618 C90.2578634,63.0036494 90.2609469,64.4888342 90.2609469,65.9340451 L73.1535888,65.9340451 C73.1535888,64.4919091 73.1535888,63.0036494 73.1597558,61.6168618 L73.1597558,61.6168618 Z M90.2516964,74.1932719 C90.2270282,75.0234995 89.1632145,75.8998508 88.2751613,76.4871599 C86.2277053,77.8616478 83.1349367,79.6143504 81.6702656,80.4292034 C80.2765155,79.5989758 77.3841755,77.8616478 75.333636,76.4871599 C73.9953892,75.5985089 73.202925,74.7221576 73.1597558,74.0702752 C73.1535888,73.8273568 73.1535888,71.8501852 73.1535888,69.2672551 L90.2609469,69.2672551 C90.2609469,71.8686347 90.2578634,73.8796304 90.2516964,74.1932719 L90.2516964,74.1932719 Z" id="Fill-29"></path>
                        <path d="M134.059237,57.5825709 L109.745698,57.5825709 L109.745698,59.2461009 C109.742614,65.7557 109.742614,73.5813634 109.764199,73.9872525 C109.902957,75.7953036 111.11478,77.4526838 113.492172,79.0270413 C116.424598,80.998063 120.812444,83.5625437 120.994371,83.6701658 L121.80842,84.1467779 L122.637886,83.6916902 C122.832148,83.5902179 127.577682,81.0195874 130.540943,79.0270413 C133.997567,76.7300783 134.049987,74.6422098 134.059237,73.9534284 C134.086989,73.5813634 134.077738,65.7495501 134.062321,59.243026 L134.059237,57.5825709 L134.059237,57.5825709 Z M130.722871,73.8796304 C130.701286,74.7406071 129.60047,75.6446327 128.684665,76.2719157 C126.566288,77.6771527 123.362513,79.482129 121.867007,80.3123565 C120.448589,79.4729042 117.472994,77.6771527 115.351533,76.2719157 C114.700911,75.8322026 113.171486,74.7098579 113.106732,73.7351093 C113.100565,73.6459367 113.100565,73.3322952 113.094398,72.858758 L121.521653,66.7950219 L130.729038,72.9141065 C130.729038,73.4245427 130.725954,73.7658585 130.722871,73.8796304 L130.722871,73.8796304 Z M121.447649,62.7299817 L113.088231,68.7537439 C113.082064,66.3614586 113.082064,63.4710367 113.088231,60.9157808 L130.722871,60.9157808 C130.729038,63.5202354 130.735205,66.4752305 130.735205,68.9167145 L121.447649,62.7299817 L121.447649,62.7299817 Z" id="Fill-30"></path>
                        <path d="M106.689931,110.372744 L108.277943,110.535715 C109.357174,110.658711 110.29148,110.747884 111.105529,110.772483 L116.026824,110.910854 L116.100828,107.571495 L111.191867,107.433123 C110.451823,107.423899 109.619273,107.328576 108.635631,107.227104 L107.013701,107.061059 C106.572757,107.014935 106.16265,107.008785 105.77721,107.02416 L105.922135,110.348145 C106.156482,110.33892 106.409331,110.348145 106.689931,110.372744" id="Fill-31"></path>
                        <path d="M111.213452,116.670174 C110.516577,116.651724 109.711779,116.562552 108.79289,116.467229 C108.244024,116.399581 107.655072,116.344233 107.05687,116.291959 C106.628261,116.245835 106.221236,116.239685 105.851214,116.245835 L105.906718,119.579045 C106.144148,119.572895 106.409331,119.579045 106.720766,119.609794 C107.33747,119.665143 107.907921,119.726641 108.438286,119.778915 C109.462014,119.889612 110.356234,119.978784 111.136364,120.003384 C112.160092,120.015683 113.658682,120.064882 114.768748,120.086406 L116.057659,120.123305 L116.12858,116.796245 L114.852003,116.759346 C113.738853,116.731672 112.23718,116.685548 111.213452,116.670174" id="Fill-32"></path>
                        <path d="M111.191867,126.187042 C110.473408,126.162442 109.659359,126.076345 108.728137,125.968722 C108.17927,125.913374 107.608819,125.854951 107.035285,125.799602 C106.591259,125.753478 106.181151,125.741179 105.801878,125.753478 L105.906718,129.077463 C106.131814,129.077463 106.39083,129.077463 106.696098,129.114362 C107.281967,129.169711 107.843167,129.234284 108.361198,129.280408 C109.406511,129.403405 110.309981,129.486427 111.105529,129.511027 L112.493112,129.547926 C113.905363,129.584825 115.481041,129.624799 116.032991,129.637098 L116.091578,126.297739 C115.539628,126.285439 113.979368,126.25469 112.582534,126.214716 L111.191867,126.187042" id="Fill-33"></path>
                        <path d="M90.0882699,110.732509 C90.8992352,110.71406 91.8335411,110.615662 92.9127724,110.492666 C93.4184694,110.443467 93.9488345,110.388119 94.5131183,110.32662 L95.2716638,110.302021 L95.3240836,106.962661 C94.9848966,106.962661 94.5994568,106.978036 94.2047665,107.014935 C93.612731,107.067208 93.0669483,107.131782 92.5550843,107.18713 C91.5868597,107.288602 90.7573933,107.387 90.011182,107.399299 L85.1022212,107.519221 L85.1793092,110.861656 L90.0882699,110.732509" id="Fill-34"></path>
                        <path d="M92.582836,116.399581 C91.6146113,116.507203 90.7728109,116.602526 90.0389336,116.6179 L85.1238058,116.750122 L85.2039773,120.086406 L90.1160216,119.95726 C90.9362374,119.935736 91.8643763,119.834263 92.9466911,119.717416 L94.5131183,119.554446 L95.2439121,119.532921 L95.3950045,116.202786 C95.0496505,116.184337 94.6487931,116.202786 94.2294347,116.239685 L92.582836,116.399581" id="Fill-35"></path>
                        <path d="M92.5581679,125.913374 C91.5899432,126.014846 90.7512263,126.116318 89.850839,126.128618 C88.2998294,126.171667 85.833015,126.245465 85.1083882,126.263914 L85.1700586,129.594049 C85.8977689,129.5756 88.3769174,129.507952 90.0944369,129.467978 C90.9054022,129.446453 91.8366246,129.341906 92.9251065,129.221985 L94.5439535,129.065164 L95.2654967,129.03749 L95.321,125.70428 C94.9663955,125.69813 94.5747887,125.70428 94.2047665,125.741179 L92.5581679,125.913374" id="Fill-36"></path>
                        <path d="M15.8556563,100.14557 C20.0399903,100.14557 22.5993102,97.4796175 22.9076621,92.8487927 C22.9539148,91.9386173 22.8891609,90.9331194 22.6609806,89.6939279 L22.5808091,89.284964 L19.1303524,89.2542148 L19.4572054,89.9645206 C19.7038868,90.5087809 19.8488121,91.6741744 19.7933088,92.6489231 C19.6360494,95.0596579 17.8167737,96.5294682 15.2574538,96.3541979 C12.6549645,96.1912273 10.9991153,94.5092478 11.1440407,92.1569364 C11.1902934,91.394357 11.3259682,90.5518298 11.9580894,89.6078303 L12.3866985,88.9436482 L8.98557804,88.4424368 L8.8252351,88.7837525 C8.39662609,89.7031527 8.10060836,90.874696 8.03585448,91.9078681 C7.73983674,96.7477873 10.4224975,99.8257791 15.217368,100.124046 L15.8556563,100.14557" id="Fill-37"></path>
                        <path d="M16.4045225,83.7900875 C17.3295779,84.0483805 18.2299652,84.1836769 19.0810161,84.1836769 C22.2570397,84.1836769 24.603597,82.3356518 25.5194018,79.1131389 C26.0682681,77.188241 25.9140922,75.3678902 25.0692082,73.8611809 C24.1472363,72.1945759 22.4698025,71.0045831 20.2342519,70.3742251 C19.3400317,70.119007 18.4766466,69.9960104 17.6564308,69.9960104 C14.4619061,69.9960104 12.1091818,71.8378856 11.199544,75.0573236 C10.0123896,79.1961617 12.0105092,82.5355214 16.4045225,83.7900875 L16.4045225,83.7900875 Z M14.1967236,75.8998508 C14.699337,74.1010244 16.2318455,73.7258845 17.425167,73.7258845 C17.9925343,73.7258845 18.6061544,73.821207 19.2074404,73.9872525 C20.6659444,74.4054412 21.8099296,75.1649456 22.3217936,76.0843458 C22.6825652,76.7300783 22.7504026,77.4557587 22.5283893,78.2644619 C22.0103583,80.0663632 20.502518,80.4384281 19.3307811,80.4384281 C18.7356621,80.4384281 18.0973739,80.3461806 17.431334,80.1555358 C15.5318869,79.6174253 13.5430177,78.1814391 14.1967236,75.8998508 L14.1967236,75.8998508 Z" id="Fill-38"></path>
                        <path d="M30.7983848,65.088443 L25.8770899,62.462464 L26.0343494,62.1611221 C26.4999606,61.2847708 26.8545652,61.3585688 27.6161941,61.4538912 L32.4172317,62.0596499 L34.3135953,58.4927463 L27.930713,57.8285642 C27.508271,57.7978151 27.0426598,57.8101147 26.6849717,57.8992873 C26.7373915,56.5401741 26.0312658,55.2671585 24.7423553,54.581452 C24.0208121,54.2001623 23.3208535,54.0064425 22.6763982,54.0064425 C20.3483421,54.0064425 19.1056843,56.3495292 18.0110354,58.4220232 L16.3428521,61.5492137 L29.0808652,68.3201807 L30.7983848,65.088443 L30.7983848,65.088443 Z M23.2992688,60.685162 L23.1142578,61.0111032 L20.8047027,59.7780615 L20.9804633,59.4551953 C21.5601647,58.3851242 22.1830353,57.4933983 23.1728446,58.0130592 C23.5212821,58.206779 23.7247943,58.4220232 23.8172999,58.6987657 C23.9961439,59.279925 23.6014536,60.1101526 23.2992688,60.685162 L23.2992688,60.685162 Z" id="Fill-39"></path>
                        <path d="M38.7569449,52.5735313 L32.2137195,47.1555277 L41.5012759,49.2649207 L44.0883476,46.1592546 L32.9753485,36.9621782 L30.7182133,39.6957793 L37.2645221,45.110708 L27.9892998,42.9674909 L25.3868106,46.1039061 L36.4967261,55.285608 L38.7569449,52.5735313" id="Fill-40"></path>
                        <path d="M54.8128234,37.0113769 L52.8455388,34.5975671 L48.8215478,37.8662038 L47.0701095,35.7199118 L50.745663,32.7464672 L48.7598774,30.3357323 L45.0997415,33.3122519 L43.6474045,31.5226502 L47.6467274,28.2786129 L45.6763594,25.8648032 L38.8432834,31.4181031 L47.9489122,42.5831263 L54.8128234,37.0113769" id="Fill-41"></path>
                        <path d="M66.798458,29.8806446 L65.2536155,27.1562683 L60.7855978,29.6654004 L55.2352653,19.841041 L52.0407406,21.6429423 L59.114331,34.1732286 L66.798458,29.8806446" id="Fill-42"></path>
                        <path d="M78.9136005,25.2467449 L77.8436197,22.3286488 L73.0209975,24.0690517 L69.1665999,13.4698132 L65.7192267,14.7120796 L70.6281875,28.2355641 L78.9136005,25.2467449" id="Fill-43"></path>
                        <path d="M93.4431375,22.8667592 C93.7299047,22.8667592 94.0259225,22.8513846 94.3250237,22.8206355 C96.3200599,22.651515 97.790898,22.0303818 98.7005358,20.9664606 C99.5515868,19.9486631 99.9092749,18.5434261 99.7581825,16.7907234 L99.0119712,7.75969254 L95.3641693,8.05488456 L96.0425433,16.2679876 C96.2861412,19.1676342 95.1236549,19.6350216 94.0814258,19.7334189 L93.8100762,19.7426437 C92.9559417,19.7426437 91.7872884,19.4197774 91.5560245,16.6400525 L90.8838176,8.43002442 L87.2329322,8.73136627 L87.9853106,17.7623972 C88.2597437,21.098682 90.1406897,22.8667592 93.4431375,22.8667592" id="Fill-44"></path>
                        <path d="M109.964627,14.2754414 L113.078981,23.2634235 L117.099888,23.8046089 L119.036337,9.54006941 L115.52421,9.06653221 L114.386392,17.4825797 L111.272039,8.49459767 L107.244964,7.95033738 L105.314682,22.2179517 L108.826809,22.6945639 L109.964627,14.2754414" id="Fill-45"></path>
                        <path d="M129.87182,12.6180612 L126.381277,11.517241 L122.058185,25.2651944 L125.548728,26.35064 L129.87182,12.6180612" id="Fill-46"></path>
                        <path d="M147.956653,20.7050926 L144.663456,19.0538623 L137.700872,26.1169464 L139.245715,16.3294859 L135.755172,14.5552589 L133.612127,29.6131269 L137.16434,31.3965787 L147.956653,20.7050926" id="Fill-47"></path>
                        <path d="M151.570536,41.2824365 L153.494652,38.8440274 L149.393573,35.6461138 L151.101842,33.4598479 L154.820564,36.3687193 L156.738513,33.9180105 L153.016706,31.0091391 L154.438208,29.1980131 L158.502285,32.3651775 L160.429484,29.9236935 L153.485401,24.5056899 L144.598702,35.8398336 L151.570536,41.2824365" id="Fill-48"></path>
                        <path d="M157.546394,47.3215732 L161.736895,43.6531974 L161.965076,43.9237901 C162.504691,44.5356985 162.520109,44.7939915 162.076082,45.6518934 L159.809697,49.9106532 L162.483107,52.9455962 L165.36928,47.2078013 C165.471036,46.9987069 165.674548,46.552844 165.745469,46.0393329 C166.978876,46.5774433 168.465132,46.3345249 169.54128,45.3997502 C172.649466,42.6753738 170.16415,39.8464503 168.351042,37.786256 L165.976733,35.0895538 L155.122749,44.5848972 L157.546394,47.3215732 L157.546394,47.3215732 Z M166.038403,39.8894991 L166.291252,40.1693165 C166.803116,40.7658504 167.339648,41.4331074 167.290311,41.9865924 L166.867869,42.7184226 L166.066155,43.075113 C165.446368,43.075113 164.811163,42.4416801 164.323967,41.89127 L164.080369,41.6114526 L166.038403,39.8894991 L166.038403,39.8894991 Z" id="Fill-49"></path>
                        <path d="M170.993617,58.837137 C170.287491,59.2522507 169.399438,58.5450199 168.995497,57.8685381 C168.545303,57.1059588 168.286288,56.1465847 168.252369,55.1134126 L168.227701,54.3631329 L164.92217,55.8821418 L165.156517,56.6201219 C165.48337,57.7301669 165.686882,58.4035737 166.386841,59.5874167 C167.561661,61.5645882 169.121921,62.6592587 170.780854,62.6592587 C171.54865,62.6592587 172.325696,62.4317148 173.096576,61.9612525 C175.655896,60.4606931 175.255039,58.0684077 174.965188,56.31878 C174.758592,55.0826634 174.666087,54.3170091 175.177951,54.0125924 L175.902577,53.7942733 C176.56245,53.7942733 177.003393,54.4215563 177.16682,54.6859992 C177.583095,55.3932301 177.860611,56.2357573 177.974701,57.0998089 L178.06104,57.7670659 L181.064387,56.4110275 L180.984215,56.0174382 C180.774536,54.9996407 180.361344,53.9818432 179.72614,52.9025474 C178.153546,50.2673436 175.569557,49.4125167 173.164413,50.8362032 C170.694515,52.2906389 171.052203,54.6306507 171.32047,56.3310797 C171.536316,57.6840431 171.625738,58.4681469 170.993617,58.837137" id="Fill-50"></path>
                        <path d="M172.649466,71.8686347 L186.01035,66.4260318 L184.628933,63.052848 L171.271133,68.4893011 L172.649466,71.8686347" id="Fill-51"></path>
                        <path d="M186.062769,76.594782 L175.076195,79.2884092 L175.94883,82.8399382 L186.935405,80.1340113 L187.845043,83.8208367 L190.869974,83.0767068 L188.181146,72.1792013 L185.143881,72.9141065 L186.062769,76.594782" id="Fill-52"></path>
                        <path d="M177.607763,94.0357106 L177.814359,97.682562 L183.481865,97.3658456 L192.504239,101.981296 L192.294559,98.0238778 L187.024827,95.4163483 L191.97079,92.319907 L191.736443,88.0426976 L183.275269,93.7220691 L177.607763,94.0357106" id="Fill-53"></path>
                        <path d="M18.6678247,126.983445 L21.6619208,126.116318 L20.4069289,121.774536 L22.6178114,121.138028 L23.9437241,125.70428 L26.9347366,124.837153 L24.5974299,116.750122 L10.7185152,120.735214 L11.7545773,124.262144 L17.4097494,122.629363 L18.6678247,126.983445" id="Fill-54"></path>
                        <path d="M31.526095,138.914123 C32.0872953,137.253667 31.9115348,135.408717 30.9957299,133.569917 C29.7191534,130.974687 27.6007765,129.547926 25.0630412,129.547926 C23.835801,129.547926 22.549974,129.873867 21.2425623,130.51345 C19.1303524,131.546622 17.6965165,133.025657 17.1013976,134.790659 C16.5340302,136.43574 16.7221248,138.28069 17.6379297,140.122565 C18.9083391,142.693195 21.0328831,144.113807 23.6292053,144.113807 C24.8687795,144.113807 26.1638571,143.787866 27.4589347,143.157508 C29.5125577,142.14586 30.9155584,140.6822 31.526095,138.914123 L31.526095,138.914123 Z M25.7845844,139.747425 C24.8626125,140.202513 23.9591417,140.436206 23.1543435,140.436206 C21.8962681,140.436206 20.9897138,139.864272 20.4315971,138.748077 C20.0584914,137.982423 19.9844869,137.241368 20.2311684,136.531062 C20.5703554,135.540939 21.5509141,134.590789 22.9199961,133.920458 C23.7710471,133.505344 24.6498498,133.2778 25.4484809,133.2778 C26.7281409,133.2778 27.6593634,133.84051 28.1958955,134.94748 C28.5690012,135.703909 28.627588,136.448039 28.3809066,137.16757 C28.0386361,138.173068 27.0889125,139.120142 25.7845844,139.747425 L25.7845844,139.747425 Z" id="Fill-55"></path>
                        <path d="M41.4673572,150.063771 L35.0073869,155.192733 C33.2651992,156.57952 32.0194579,156.705592 31.014231,155.444876 C30.6041231,154.92829 30.4314461,154.430153 30.4962,153.928942 C30.5825385,153.215561 31.1499058,152.446832 32.1859679,151.622754 L38.6397712,146.506092 L36.3425502,143.631045 L29.2319576,149.258143 C27.7549524,150.432761 26.9624883,151.742676 26.906985,153.172512 C26.8360641,154.491652 27.4065149,155.918413 28.5844188,157.382073 C29.984336,159.144001 31.4860093,160.032652 33.0647705,160.032652 C34.2365074,160.032652 35.4390794,159.546815 36.650902,158.584366 L43.7676617,152.941893 L41.4673572,150.063771" id="Fill-56"></path>
                        <path d="M53.7459261,161.77613 L48.3497695,168.344152 L50.4064761,159.042529 L47.2150349,156.453449 L38.0662368,167.587723 L40.8414031,169.826262 L46.2375597,163.25209 L44.2086048,172.590612 L47.3568767,175.167393 L56.5056748,164.030044 L53.7459261,161.77613" id="Fill-57"></path>
                        <path d="M64.405648,168.583996 L60.6869253,166.723671 L54.1930362,179.586048 L57.911759,181.443298 C59.703283,182.341174 61.2635431,182.771662 62.697379,182.771662 C65.1919451,182.771662 67.1530626,181.409474 68.5159776,178.703547 C70.6682732,174.438637 69.2899406,171.034704 64.405648,168.583996 L64.405648,168.583996 Z M65.1117737,176.990818 C64.3686458,178.488303 63.0766517,179.327755 61.5688114,179.327755 C60.9521078,179.327755 60.3415712,179.177084 59.7896215,178.903417 L58.8984848,178.463704 L62.5832889,171.148476 L63.4682585,171.597414 C64.3963975,172.061727 65.1117737,172.873505 65.4324595,173.832879 C65.7562289,174.835302 65.6483058,175.929972 65.1117737,176.990818 L65.1117737,176.990818 Z" id="Fill-58"></path>
                        <path d="M72.3703752,187.574682 L81.0073092,189.86857 L81.8059404,186.873601 L76.7304697,185.514488 L77.4365953,182.848535 L82.0526219,184.078502 L82.8635871,181.080458 L78.2475606,179.844341 L78.8365125,177.621176 L83.8718975,178.95569 L84.6859463,175.957646 L76.0798474,173.663758 L72.3703752,187.574682" id="Fill-59"></path>
                        <path d="M93.6589838,177.076916 L89.4900674,176.837073 L88.6883527,191.209234 L92.8356845,191.449078 C93.1563704,191.467527 93.4647222,191.470602 93.7854081,191.470602 C98.6203644,191.470602 101.207436,189.201313 101.463368,184.727309 C101.583625,182.504144 101.077928,180.745292 99.9462771,179.478426 C98.6388655,178.03014 96.5790754,177.236812 93.6589838,177.076916 L93.6589838,177.076916 Z M93.5325596,188.368011 L92.5396668,188.318812 L93.0145285,180.161058 L93.9889202,180.210256 C95.9315366,180.311729 97.8217332,181.833813 97.6737243,184.50284 C97.5102979,187.27334 95.4104221,188.475633 93.5325596,188.368011 L93.5325596,188.368011 Z" id="Fill-60"></path>
                        <path d="M114.170546,175.985321 L111.719149,191.227684 L115.493375,190.412831 L115.992905,187.184168 L120.627433,186.17252 L122.391205,188.94917 L126.350442,188.088193 L117.80293,175.213516 L114.170546,175.985321 L114.170546,175.985321 Z M116.443099,183.900157 L116.905626,180.142608 L118.875994,183.377421 L116.443099,183.900157 L116.443099,183.900157 Z" id="Fill-61"></path>
                        <path d="M127.889118,183.423545 L129.137943,186.882826 L132.613067,185.63441 L131.345741,182.168978 L127.889118,183.423545" id="Fill-62"></path>
                        <path d="M134.919539,168.860738 L131.250152,170.83176 L138.141815,183.491193 L141.792701,181.510946 C146.590655,178.921866 147.870315,175.477959 145.591595,171.280698 C143.331376,167.11111 139.708242,166.256284 134.919539,168.860738 L134.919539,168.860738 Z M140.765889,178.531352 L139.899421,179.004889 L135.992603,171.828033 L136.868322,171.351421 C137.44494,171.034704 138.10173,170.862509 138.755435,170.862509 C140.213939,170.862509 141.490516,171.686587 142.255228,173.076449 C143.525638,175.431836 142.471075,177.608877 140.765889,178.531352 L140.765889,178.531352 Z" id="Fill-63"></path>
                        <path d="M148.342093,173.393166 L150.463553,176.421959 L153.491568,174.318716 L151.385525,171.289922 L148.342093,173.393166" id="Fill-64"></path>
                        <path d="M154.105188,154.968264 L153.463816,160.619961 L156.633673,161.053524 L156.898856,158.691988 L163.784351,165.6659 L166.414592,163.076819 L156.279068,152.825047 L154.105188,154.968264" id="Fill-65"></path>
                        <path d="M173.66086,147.431642 C172.464455,146.549141 171.11079,146.40462 169.615284,146.982704 C169.639952,145.565168 168.899908,144.353651 168.021105,143.701768 C166.223414,142.385704 163.821354,143.126759 162.063748,145.49752 C160.318477,147.846756 160.475737,150.223667 162.480023,151.711927 C163.482167,152.446832 164.780328,152.615952 166.032236,152.173164 C165.939731,153.744447 166.445427,154.91599 167.567828,155.733918 C168.372626,156.333527 169.21751,156.631794 170.077812,156.631794 C171.530149,156.631794 172.979402,155.749293 174.178891,154.144186 C175.184118,152.772773 175.631228,151.398285 175.436966,150.162169 C175.28279,149.095172 174.684588,148.188072 173.66086,147.431642 L173.66086,147.431642 Z M166.803116,148.483264 C166.291252,148.803055 165.751636,149.082873 165.276774,149.082873 L164.669321,148.898378 C163.963195,148.363342 164.314717,147.493141 164.632319,147.068802 C164.872833,146.736711 165.171935,146.573741 165.514205,146.573741 L166.275834,146.853558 C166.71061,147.179499 166.898705,147.929779 166.803116,148.483264 L166.803116,148.483264 Z M171.758329,152.363809 C171.271133,153.021841 170.349161,153.215561 169.723207,152.757398 C169.143506,152.32691 168.964662,151.742676 169.115754,150.764852 C170.151816,150.091445 170.910362,149.977674 171.560984,150.460435 C171.860085,150.684904 172.035846,150.964722 172.085182,151.281438 C172.137602,151.622754 172.020428,152.010194 171.758329,152.363809 L171.758329,152.363809 Z" id="Fill-66"></path>
                        <path d="M180.207169,133.360823 C177.709519,132.112406 175.329043,132.850386 174.126471,135.248822 C173.793451,135.928378 173.654693,136.583336 173.719447,137.229068 C172.822143,136.494163 172.008094,135.350294 172.717303,133.945057 C173.071908,133.225526 173.540603,132.748914 174.11722,132.247703 L174.604416,131.832589 L171.949507,129.929215 L171.650406,130.224407 C170.910362,130.940863 170.327577,131.743416 169.8743,132.656667 C169.158923,134.089578 169.023249,135.473291 169.470359,136.807805 C170.253572,139.138592 172.624798,140.722174 174.474909,141.641574 C176.084505,142.453352 177.462837,142.843866 178.662326,142.843866 C180.493936,142.843866 181.872268,141.936766 182.769572,140.147164 C184.169489,137.35514 183.2321,134.879832 180.207169,133.360823 L180.207169,133.360823 Z M180.080744,138.8065 C179.84948,139.280038 179.488709,139.510656 178.973761,139.510656 C178.619157,139.510656 178.215216,139.399959 177.792774,139.184715 C177.083565,138.8311 176.599452,138.394462 176.463778,137.942449 C176.371272,137.678006 176.402107,137.413563 176.540866,137.121446 C176.759795,136.690958 177.111316,136.481863 177.626264,136.481863 C178.017871,136.481863 178.474231,136.60486 178.942926,136.838554 C179.556546,137.146045 180.003656,137.576534 180.148582,138.016247 L180.080744,138.8065 L180.080744,138.8065 Z" id="Fill-67"></path>
                        <path d="M185.322725,118.825691 C182.436552,117.964714 180.11158,119.265404 179.294447,122.032829 L179.124854,122.736985 L177.432002,122.198874 L178.905924,117.248258 L176.022835,116.399581 L173.552937,124.714156 L181.551582,127.250963 L181.545415,126.549882 C181.539248,125.775003 181.641004,125.043172 181.863018,124.302118 C182.069613,123.613336 182.809658,121.912907 184.3545,122.37107 C185.994932,122.863056 185.615659,124.624984 185.464567,125.156944 C185.1778,126.128618 184.604265,126.829699 184.12632,127.407784 L183.663792,127.970493 L187.030994,129.077463 L187.234506,128.711548 C187.789539,127.746024 188.279819,126.62368 188.538834,125.728879 C189.044531,124.046899 188.976694,122.497141 188.347656,121.248725 C187.755621,120.086406 186.68564,119.228505 185.322725,118.825691" id="Fill-68"></path>
                        <path d="M27.5267721,99.60746 C27.5267721,139.615204 60.1503931,172.150899 100.260796,172.150899 C140.368115,172.150899 172.99482,139.615204 172.99482,99.60746 C172.99482,59.6181659 140.368115,27.0793953 100.260796,27.0793953 C60.1503931,27.0793953 27.5267721,59.6181659 27.5267721,99.60746 L27.5267721,99.60746 Z M100.260796,29.5946774 C138.977449,29.5946774 170.481753,61.0111032 170.481753,99.60746 C170.481753,138.225341 138.977449,169.635617 100.260796,169.635617 C61.5348927,169.635617 30.0398393,138.225341 30.0398393,99.60746 C30.0398393,61.0111032 61.5348927,29.5946774 100.260796,29.5946774 L100.260796,29.5946774 Z" id="Fill-69"></path>
                        <path d="M100.260796,0.41371609 C45.4080933,0.41371609 0.780336496,44.9139133 0.780336496,99.6197597 C0.780336496,154.307157 45.4080933,198.816578 100.260796,198.816578 C155.116582,198.816578 199.738172,154.307157 199.738172,99.6197597 C199.738172,44.9139133 155.116582,0.41371609 100.260796,0.41371609 L100.260796,0.41371609 Z M100.260796,196.227498 C46.8388457,196.227498 3.38282573,152.892695 3.38282573,99.6197597 C3.38282573,46.3498995 46.8388457,3.00587103 100.260796,3.00587103 C153.682746,3.00587103 197.14185,46.3498995 197.14185,99.6197597 C197.14185,152.892695 153.682746,196.227498 100.260796,196.227498 L100.260796,196.227498 Z" id="Fill-70"></path>
                    </g>
                </g>
            </g>
        </g>
    </g>
</svg>