<svg width="52" height="52" viewBox="0 0 52 52" xmlns="http://www.w3.org/2000/svg">
  <title>
    Fill 27
  </title>
  <path d="M38.3 51.126l-4.887-5.31c-5.025 4.09-9.405 6.172-15.867 6.172-9.194 0-17.38-4.737-17.38-14.567 0-7.1 5.528-11.48 11.92-14.206-2.37-2.656-5.097-5.883-5.097-10.692C6.99 4.557 14.24.682 22.212.682c7.898 0 14.65 3.875 14.65 11.554 0 5.74-4.524 10.116-9.337 12.7l6.837 7.946c1.58-1.652 2.645-2.638 3.936-5.077h10.197c-1.653 2.658-5.6 8.396-8.26 11.05L51.514 50.55v.574H38.3zM18.047 29.168l-1.437.79c-2.296 1.292-5.242 3.302-5.242 7.105 0 3.873 3.232 6.385 6.966 6.385 3.662 0 7.04-2.08 8.906-4.16l-9.192-10.12zm4.38-20.807c-2.873 0-4.812 1.65-4.812 4.378 0 2.15 1.58 3.73 2.37 4.665l1.652 1.79c2.153-1.36 5.458-3.442 5.458-6.6 0-2.724-1.868-4.232-4.667-4.232z" fill="#E44444" fill-rule="evenodd"/>
</svg>
