<?xml version="1.0" encoding="utf-8"?>
<!-- Generator: Adobe Illustrator 16.0.0, SVG Export Plug-In . SVG Version: 6.00 Build 0)  -->
<!DOCTYPE svg PUBLIC "-//W3C//DTD SVG 1.1//EN" "http://www.w3.org/Graphics/SVG/1.1/DTD/svg11.dtd">
<svg version="1.1" id="Layer_1" xmlns:sketch="http://www.bohemiancoding.com/sketch/ns"
	 xmlns="http://www.w3.org/2000/svg" xmlns:xlink="http://www.w3.org/1999/xlink" x="0px" y="0px" width="20.25px"
	 height="24.844px" viewBox="0.465 0.042 20.25 24.844" enable-background="new 0.465 0.042 20.25 24.844" xml:space="preserve">
<title>Imported Layers 4</title>
<desc>Created with Sketch.</desc>
<g id="ACTIVE" sketch:type="MSPage">
	<g id="Homepage" transform="translate(-165.000000, -3641.000000)" sketch:type="MSArtboardGroup">
		<g id="_x2022_-Footer" transform="translate(0.000000, 3576.000000)" sketch:type="MSLayerGroup">
			<g id="Transactional-Links" sketch:type="MSShapeGroup">
				<g id="_x30_1---Become-an-A_x26_S-Student" transform="translate(165.000000, 63.000000)">
					<g id="Imported-Layers-4" transform="translate(0.000000, 2.000000)">
						<path id="Fill-1" d="M0.465,24.887h17.25V3.137H0.465V24.887z M1.966,4.637h14.25v18.75H1.966V4.637z"/>
						<path id="Fill-2" d="M5.997,1.542h13.22V12.91h1.498V0.042H5.997V1.542"/>
						<path id="Fill-3" d="M3.466,12.75h6.375V6.375H3.466V12.75z M4.965,7.875H8.34v3.375H4.965V7.875z"/>
						<path id="Fill-4" d="M11.248,6.375h3.562v1.5h-3.562V6.375z"/>
						<path id="Fill-5" d="M11.248,8.813h3.562v1.5h-3.562V8.813z"/>
						<path id="Fill-6" d="M11.248,11.437h3.562v1.5h-3.562V11.437z"/>
						<path id="Fill-7" d="M3.372,14.574H14.81v1.5H3.372V14.574z"/>
						<path id="Fill-8" d="M3.372,17.333H14.81v1.5H3.372V17.333z"/>
						<path id="Fill-9" d="M3.372,19.918H14.81v1.5H3.372V19.918z"/>
					</g>
				</g>
			</g>
		</g>
	</g>
</g>
</svg>
