<?xml version="1.0" encoding="utf-8"?>
<!-- Generator: Adobe Illustrator 16.0.0, SVG Export Plug-In . SVG Version: 6.00 Build 0)  -->
<!DOCTYPE svg PUBLIC "-//W3C//DTD SVG 1.1//EN" "http://www.w3.org/Graphics/SVG/1.1/DTD/svg11.dtd">
<svg version="1.1" id="Layer_1" xmlns:sketch="http://www.bohemiancoding.com/sketch/ns"
	 xmlns="http://www.w3.org/2000/svg" xmlns:xlink="http://www.w3.org/1999/xlink" x="0px" y="0px" width="14.933px"
	 height="14.933px" viewBox="0.915 0.037 14.933 14.933" enable-background="new 0.915 0.037 14.933 14.933" xml:space="preserve">
<title>Fill 1</title>
<desc>Created with Sketch.</desc>
<g id="ACTIVE" sketch:type="MSPage">
	<g id="About" transform="translate(-1305.000000, -8628.000000)" sketch:type="MSArtboardGroup">
		<g id="_x2022_-Footer" transform="translate(0.000000, 8051.000000)" sketch:type="MSLayerGroup">
			<g id="Black-Footer" transform="translate(0.000000, 168.000000)" sketch:type="MSShapeGroup">
				<g id="Subfooter" transform="translate(117.000000, 373.000000)">
					<g id="Social-Media-Icons" transform="translate(1112.000000, 36.000000)">
						<g id="Instagram-Glyph-1-2" transform="translate(76.503681, 0.021259)">
							<path id="Fill-1" d="M13.621,14.948H2.134c-0.951,0-1.723-0.771-1.723-1.724V1.738c0-0.952,0.771-1.723,1.723-1.723h11.488
								c0.951,0,1.723,0.771,1.723,1.723v11.487C15.344,14.177,14.572,14.948,13.621,14.948L13.621,14.948z M7.878,4.61
								c-1.586,0-2.872,1.286-2.872,2.872s1.286,2.872,2.872,2.872c1.585,0,2.873-1.286,2.873-2.872S9.463,4.61,7.878,4.61
								L7.878,4.61z M13.621,2.312c0-0.317-0.257-0.574-0.574-0.574h-1.723c-0.318,0-0.574,0.257-0.574,0.574v1.724
								c0,0.317,0.256,0.574,0.574,0.574h1.723c0.317,0,0.574-0.257,0.574-0.574V2.312z M13.621,6.333h-1.3
								c0.095,0.368,0.151,0.751,0.151,1.149c0,2.538-2.058,4.595-4.595,4.595S3.283,10.02,3.283,7.482
								c0-0.397,0.056-0.781,0.151-1.149h-1.3v6.318c0,0.316,0.257,0.574,0.575,0.574h10.338c0.317,0,0.574-0.258,0.574-0.574V6.333
								z"/>
						</g>
					</g>
				</g>
			</g>
		</g>
	</g>
</g>
</svg>
