<?xml version="1.0" encoding="utf-8"?>
<!-- Generator: Adobe Illustrator 16.0.0, SVG Export Plug-In . SVG Version: 6.00 Build 0)  -->
<!DOCTYPE svg PUBLIC "-//W3C//DTD SVG 1.1//EN" "http://www.w3.org/Graphics/SVG/1.1/DTD/svg11.dtd">
<svg version="1.1" id="Layer_1" xmlns:sketch="http://www.bohemiancoding.com/sketch/ns"
	 xmlns="http://www.w3.org/2000/svg" xmlns:xlink="http://www.w3.org/1999/xlink" x="0px" y="0px" width="12.472px"
	 height="12.473px" viewBox="0.403 0.574 12.472 12.473" enable-background="new 0.403 0.574 12.472 12.473" xml:space="preserve">
<title>search 2</title>
<desc>Created with Sketch.</desc>
<g id="ACTIVE" sketch:type="MSPage">
	<g id="Homepage" transform="translate(-1106.000000, -42.000000)" sketch:type="MSArtboardGroup">
		<g id="_x2022_-Header" transform="translate(-2.000000, -58.000000)" sketch:type="MSLayerGroup">
			<g id="Search-Button" transform="translate(1109.000000, 94.000000)" sketch:type="MSShapeGroup">
				<path d="M10.535,19.046c-0.355,0-0.691-0.138-0.943-0.389L7.459,16.56c-0.805,0.446-1.72,0.687-2.65,0.687
					c-2.981,0-5.406-2.393-5.406-5.334c0-2.943,2.425-5.337,5.406-5.337c2.981,0,5.406,2.395,5.406,5.337
					c0,0.998-0.285,1.967-0.814,2.808l2.076,2.044c0.256,0.252,0.401,0.602,0.398,0.96c-0.003,0.355-0.151,0.701-0.408,0.946
					C11.227,18.908,10.892,19.046,10.535,19.046z M4.809,8.574c-1.878,0-3.406,1.497-3.406,3.337c0,1.838,1.528,3.334,3.406,3.334
					c0.792,0,1.535-0.26,2.149-0.75l0.378-0.357c0.566-0.617,0.879-1.408,0.879-2.227C8.215,10.071,6.687,8.574,4.809,8.574z"/>
			</g>
		</g>
	</g>
</g>
</svg>
