<?xml version="1.0" encoding="utf-8"?>
<!-- Generator: Adobe Illustrator 16.0.0, SVG Export Plug-In . SVG Version: 6.00 Build 0)  -->
<!DOCTYPE svg PUBLIC "-//W3C//DTD SVG 1.1//EN" "http://www.w3.org/Graphics/SVG/1.1/DTD/svg11.dtd">
<svg version="1.1" id="Layer_1" xmlns:sketch="http://www.bohemiancoding.com/sketch/ns"
	 xmlns="http://www.w3.org/2000/svg" xmlns:xlink="http://www.w3.org/1999/xlink" x="0px" y="0px" width="14.47px"
	 height="11.999px" viewBox="0 0.021 14.47 11.999" enable-background="new 0 0.021 14.47 11.999" xml:space="preserve">
<title>path5 2</title>
<desc>Created with Sketch.</desc>
<g id="ACTIVE" sketch:type="MSPage">
	<g id="About" transform="translate(-1264.000000, -8630.000000)" sketch:type="MSArtboardGroup">
		<g id="_x2022_-Footer" transform="translate(0.000000, 8051.000000)" sketch:type="MSLayerGroup">
			<g id="Black-Footer" transform="translate(0.000000, 168.000000)" sketch:type="MSShapeGroup">
				<g id="Subfooter" transform="translate(117.000000, 373.000000)">
					<g id="Social-Media-Icons" transform="translate(1112.000000, 36.000000)">
						<path id="path5-2" d="M49.47,3.441c-0.532,0.241-1.104,0.404-1.705,0.477c0.612-0.375,1.083-0.968,1.306-1.676
							c-0.574,0.347-1.209,0.599-1.886,0.735c-0.542-0.589-1.313-0.957-2.167-0.957c-1.639,0-2.968,1.356-2.968,3.029
							c0,0.237,0.026,0.469,0.077,0.69c-2.467-0.126-4.654-1.333-6.119-3.165c-0.255,0.447-0.402,0.968-0.402,1.523
							c0,1.051,0.524,1.978,1.32,2.521c-0.486-0.016-0.944-0.152-1.344-0.379c0,0.013,0,0.025,0,0.038
							c0,1.467,1.023,2.691,2.381,2.971c-0.249,0.068-0.511,0.105-0.782,0.105c-0.191,0-0.377-0.019-0.558-0.055
							c0.377,1.204,1.474,2.08,2.773,2.104c-1.016,0.812-2.296,1.297-3.687,1.297c-0.239,0-0.476-0.014-0.708-0.042
							c1.314,0.86,2.874,1.361,4.551,1.361c5.46,0,8.446-4.616,8.446-8.619c0-0.131-0.003-0.262-0.009-0.392
							C48.568,4.583,49.072,4.049,49.47,3.441L49.47,3.441z"/>
					</g>
				</g>
			</g>
		</g>
	</g>
</g>
</svg>
