<?xml version="1.0" encoding="UTF-8" standalone="no"?>
<svg width="257px" height="58px" viewBox="0 0 257 58" version="1.1" xmlns="http://www.w3.org/2000/svg" xmlns:xlink="http://www.w3.org/1999/xlink" xmlns:sketch="http://www.bohemiancoding.com/sketch/ns">
    <!-- Generator: Sketch 3.2.2 (9983) - http://www.bohemiancoding.com/sketch -->
    <title>Imported Layers</title>
    <desc>Created with Sketch.</desc>
    <defs></defs>
    <g id="ACTIVE" stroke="none" stroke-width="1" fill="none" fill-rule="evenodd" sketch:type="MSPage">
        <g id="Homepage-(Mobile)" sketch:type="MSArtboardGroup" transform="translate(-32.000000, -21.000000)">
            <g id="•-Mobile-Header" sketch:type="MSLayerGroup" transform="translate(0.000000, -1.000000)">
                <g id="Imported-Layers" transform="translate(32.000000, 22.000000)" sketch:type="MSShapeGroup">
                    <path d="M29.5699273,0.302540541 C13.7803273,0.302540541 0.933490909,13.1832432 0.933490909,29.0141081 C0.933490909,44.844973 13.7803273,57.7241081 29.5699273,57.7241081 C45.3579636,57.7241081 58.2032364,44.844973 58.2032364,29.0141081 C58.2032364,13.1832432 45.3579636,0.302540541 29.5699273,0.302540541 L29.5699273,0.302540541 Z M29.5699273,54.588973 C15.5034545,54.588973 4.06076364,43.1159459 4.06076364,29.0141081 C4.06076364,14.9107027 15.5034545,3.43767568 29.5699273,3.43767568 C43.6332727,3.43767568 55.0759636,14.9107027 55.0759636,29.0141081 C55.0759636,43.1159459 43.6332727,54.588973 29.5699273,54.588973 L29.5699273,54.588973 Z M22.8275273,37.0855135 L26.9445818,37.0855135 L26.9445818,35.7013514 L22.8275273,35.7013514 L22.8275273,37.0855135 Z M22.8275273,33.8092973 L26.9445818,33.8092973 L26.9445818,32.4251351 L22.8275273,32.4251351 L22.8275273,33.8092973 Z M31.7887273,33.8092973 L35.9057818,33.8092973 L35.9057818,32.4251351 L31.7887273,32.4251351 L31.7887273,33.8092973 Z M22.8275273,40.3632973 L26.9445818,40.3632973 L26.9445818,38.9791351 L22.8275273,38.9791351 L22.8275273,40.3632973 Z M42.3808,13.4779459 L32.5486545,13.4779459 L32.5486545,14.2617297 C32.5439636,18.0129189 32.5470909,19.9786486 32.5580364,20.1087568 C32.6127636,20.8674595 33.1115636,21.5524865 34.0778909,22.2045946 C35.2412364,22.9852432 36.9721818,24.001027 37.0456727,24.0433514 L37.4272,24.2675135 L37.8149818,24.0558919 C37.8931636,24.0135676 39.7664,22.9915135 40.9406909,22.2045946 C41.8835636,21.5681622 42.3542182,20.88 42.3808,20.0977838 C42.3901818,19.9755135 42.3917455,18.0113514 42.3823636,14.2601622 L42.3808,13.4779459 L42.3808,13.4779459 Z M40.8187273,20.0476216 C40.8077818,20.358 40.3433818,20.716973 40.0681818,20.9019459 C39.2644727,21.4411892 38.0651636,22.1246486 37.4537818,22.4648108 C36.8736727,22.1183784 35.7509818,21.4411892 34.9504,20.9019459 C34.4453455,20.5633514 34.1341818,20.2231892 34.1169818,19.9927568 C34.1154182,19.9535676 34.1138545,19.8030811 34.1138545,19.604 L37.3146182,17.2855676 L40.8218545,19.6306486 C40.8202909,19.8391351 40.8187273,19.999027 40.8187273,20.0476216 L40.8187273,20.0476216 Z M37.2817818,15.602 L34.1107273,17.8984865 C34.1091636,17.0128108 34.1107273,15.9829189 34.1107273,15.0455135 L40.8202909,15.0455135 C40.8218545,16.0048649 40.8234182,17.0661081 40.8234182,17.969027 L37.2817818,15.602 L37.2817818,15.602 Z M31.7887273,37.0855135 L35.9057818,37.0855135 L35.9057818,35.7013514 L31.7887273,35.7013514 L31.7887273,37.0855135 Z M31.7887273,40.3632973 L35.9057818,40.3632973 L35.9057818,38.9791351 L31.7887273,38.9791351 L31.7887273,40.3632973 Z M27.0415273,13.5171351 L17.2093818,13.5171351 L17.2093818,14.2993514 C17.2046909,18.0505405 17.2078182,20.0131351 17.2187636,20.1354054 C17.2688,20.9003784 17.7644727,21.5885405 18.7370545,22.2406486 C19.9019636,23.0228649 21.6344727,24.0386486 21.7064,24.0825405 L22.0879273,24.3051351 L22.4741455,24.0950811 C22.5538909,24.0511892 24.424,23.0291351 25.5982909,22.2406486 C27.004,21.2985405 27.0321455,20.4254054 27.0415273,20.1354054 C27.0509091,20.0131351 27.0509091,18.048973 27.0430909,14.2993514 L27.0415273,13.5171351 L27.0415273,13.5171351 Z M18.7714545,15.0847027 L25.4810182,15.0847027 C25.4810182,15.5675135 25.4825818,16.076973 25.4825818,16.5817297 L18.7714545,16.5817297 L18.7714545,15.0847027 L18.7714545,15.0847027 Z M25.4778909,20.0868108 C25.4685091,20.3971892 25.0041091,20.753027 24.7273455,20.938 C23.9236364,21.4803784 22.7243273,22.1622703 22.1145091,22.504 C21.5344,22.1575676 20.4117091,21.4788108 19.608,20.938 C19.1107636,20.6056757 18.7933455,20.2592432 18.7792727,20.0319459 C18.7745818,19.9206486 18.7730182,19.0616216 18.7714545,17.9643243 L25.4841455,17.9643243 C25.4841455,19.071027 25.4825818,19.9488649 25.4778909,20.0868108 L25.4778909,20.0868108 Z M12.2542182,10.6437838 L12.2526545,33.8281081 C12.2526545,46.7668108 28.4237818,53.8694595 29.1133455,54.1657297 L29.5793091,54.3663784 L30.0452727,54.1625946 C30.7317091,53.8616216 46.8574909,46.6445405 46.8574909,34.230973 L46.8543636,10.6422162 L12.2542182,10.6437838 L12.2542182,10.6437838 Z M28.7458909,42.677027 C28.4925818,42.5861081 28.2064364,42.5218378 27.8733818,42.5281081 C26.8945455,42.5281081 26.1596364,42.5939459 25.3840727,42.6644865 C24.6522909,42.7303243 23.8532727,42.804 22.7071273,42.8322162 C22.2771273,42.8400541 21.8815273,42.8384865 21.5578545,42.8337838 L21.5594182,30.6835676 C22.0347636,30.6835676 22.6101818,30.682 23.3216364,30.6647568 C23.9502182,30.6506486 24.6616727,30.5754054 25.4857091,30.4876216 C25.9141455,30.4405946 26.3754182,30.392 26.8867273,30.344973 C27.6794909,30.2587568 28.4112727,30.4014054 28.4144,30.4014054 L28.4128364,30.4014054 C28.6583273,30.4594054 28.7302545,30.5299459 28.7333818,30.5299459 C28.7271273,30.5252432 28.6739636,30.4688108 28.6520727,30.3057838 L28.7458909,30.2932432 L28.7458909,42.677027 L28.7458909,42.677027 Z M28.7458909,28.5657838 C28.5613818,28.5297297 27.692,28.3808108 26.7037818,28.4842703 C26.1971636,28.5312973 25.7265091,28.5814595 25.2855636,28.6284865 C24.5240727,28.71 23.8626545,28.7836757 23.2778545,28.7977838 C22.0238182,28.8291351 21.2076,28.8056216 20.6040364,28.8212973 L19.6971273,28.8448108 L19.6924364,44.6270811 L20.5758909,44.6741081 C20.5758909,44.6741081 21.5281455,44.728973 22.7493455,44.6991892 C23.9502182,44.670973 24.7867636,44.5957297 25.5529455,44.5251892 C26.316,44.4562162 26.9774182,44.3966486 27.8733818,44.3966486 C28.1548364,44.3982162 28.208,44.4295676 28.3972,44.6631351 C28.4769455,44.7618919 28.5942182,44.8982703 28.7458909,45.0205405 L28.7458909,51.377027 C25.0510182,49.4771351 14.5981091,43.268 14.5981091,33.8281081 L14.5981091,26.7912973 L28.7458909,26.7912973 L28.7458909,28.5657838 L28.7458909,28.5657838 Z M14.5981091,24.7534595 L14.5996727,12.9951351 L44.5089091,12.9935676 L44.5104727,24.7534595 L14.5981091,24.7534595 L14.5981091,24.7534595 Z M30.6238182,30.4264865 C30.6441455,30.4202162 30.6504,30.4139459 30.6754182,30.4076757 C30.6816727,30.4045405 31.4244,30.2587568 32.2437455,30.3465405 C32.7394182,30.392 33.2006909,30.4405946 33.6291273,30.4876216 C34.4531636,30.5754054 35.1646182,30.6506486 35.7916364,30.6647568 C36.5046545,30.682 37.0800727,30.6835676 37.5569818,30.6835676 L37.5569818,42.8337838 C37.2333091,42.8384865 36.8392727,42.8400541 36.4108364,42.8322162 C35.2631273,42.804 34.4641091,42.7318919 33.7323273,42.6644865 C32.9552,42.5939459 32.2218545,42.5281081 31.2430182,42.5281081 C31.0147273,42.5234054 30.8114545,42.5516216 30.6238182,42.5939459 L30.6238182,30.4264865 L30.6238182,30.4264865 Z M30.6238182,51.2500541 L30.6238182,44.7132973 C30.6285091,44.7054595 30.6378909,44.6976216 30.6441455,44.6913514 C30.8349091,44.4718919 30.8990182,44.3966486 31.1773455,44.3966486 C32.1405455,44.428 32.7816364,44.4546486 33.5634545,44.5251892 C34.3296364,44.5957297 35.1661818,44.670973 36.3686182,44.6991892 C37.5851273,44.7258378 38.5373818,44.6725405 38.5373818,44.6741081 L39.4208364,44.6270811 L39.4208364,28.8448108 L38.5123636,28.8212973 C37.9072364,28.8056216 37.0925818,28.8291351 35.8354182,28.7977838 C35.2521818,28.7836757 34.5923273,28.71 33.8292727,28.6284865 C33.3898909,28.5814595 32.9176727,28.5312973 32.4266909,28.4858378 C31.6808364,28.409027 31.0131636,28.4748649 30.6238182,28.5281622 L30.6238182,26.7912973 L44.5104727,26.7912973 L44.5120364,34.230973 C44.5120364,43.0532432 34.4953818,49.2028108 30.6238182,51.2500541 L30.6238182,51.2500541 Z" id="Fill-1" fill="#2C2C2C"></path>
                    <path d="M83.8515636,36.8974054 C82.3989455,37.7752432 79.9205818,38.2517838 78.3944727,38.2517838 C72.3869818,38.2517838 68.3324727,34.8141081 68.3324727,29.1191351 C68.3324727,26.2332432 69.4582909,23.9492973 71.3862545,22.3691892 C73.2626182,20.8125946 75.8160364,19.9598378 78.6196364,19.9598378 C80.9478909,19.9598378 83.1995273,20.5617838 84.4019636,20.9897297 C84.1502182,22.1685405 83.9250545,23.4978378 83.9250545,24.8020541 L83.1494909,24.8020541 L83.1494909,22.9962162 C83.1494909,22.2939459 82.1487636,21.8675676 80.9963636,21.4411892 C80.1973455,21.1652973 79.12,21.0132432 78.1943273,21.0132432 C73.4893455,21.0132432 71.0109818,24.4524865 71.0109818,28.7162703 C71.0109818,33.6854595 74.2899273,36.8974054 79.2450909,36.8974054 C81.0464,36.8974054 83.1745091,36.2452973 84.3253455,35.390973 L84.5505091,35.6417838 L83.8515636,36.8974054 L83.8515636,36.8974054 Z" id="Fill-2" fill="#2C2C2C"></path>
                    <path d="M83.8515636,36.8974054 C82.3989455,37.7752432 79.9205818,38.2517838 78.3944727,38.2517838 C72.3869818,38.2517838 68.3324727,34.8141081 68.3324727,29.1191351 C68.3324727,26.2332432 69.4582909,23.9492973 71.3862545,22.3691892 C73.2626182,20.8125946 75.8160364,19.9598378 78.6196364,19.9598378 C80.9478909,19.9598378 83.1995273,20.5617838 84.4019636,20.9897297 C84.1502182,22.1685405 83.9250545,23.4978378 83.9250545,24.8020541 L83.1494909,24.8020541 L83.1494909,22.9962162 C83.1494909,22.2939459 82.1487636,21.8675676 80.9963636,21.4411892 C80.1973455,21.1652973 79.12,21.0132432 78.1943273,21.0132432 C73.4893455,21.0132432 71.0109818,24.4524865 71.0109818,28.7162703 C71.0109818,33.6854595 74.2899273,36.8974054 79.2450909,36.8974054 C81.0464,36.8974054 83.1745091,36.2452973 84.3253455,35.390973 L84.5505091,35.6417838 L83.8515636,36.8974054 L83.8515636,36.8974054 Z" id="Stroke-3"></path>
                    <path d="M90.1498909,38.2517838 C87.0726545,38.2517838 84.8194545,35.7671892 84.8194545,32.3796757 C84.8194545,28.6175135 87.1711636,25.9824324 91.2022182,25.9824324 C94.4061091,25.9824324 96.8829091,28.4921081 96.8829091,31.7040541 C96.8829091,35.543027 94.1543636,38.2517838 90.3265818,38.2517838 L90.1498909,38.2517838 L90.1498909,38.2517838 Z M87.1477091,31.3027568 C87.1477091,33.9362703 88.0984,37.4241081 91.3022909,37.4241081 C93.5789455,37.4241081 94.5562182,35.1401622 94.5562182,32.8076216 C94.5562182,29.5705946 93.0285455,26.8101081 90.6268,26.8101081 C87.9733091,26.8101081 87.1477091,28.9670811 87.1477091,31.3027568 L87.1477091,31.3027568 Z" id="Fill-4" fill="#2C2C2C"></path>
                    <path d="M90.1498909,38.2517838 C87.0726545,38.2517838 84.8194545,35.7671892 84.8194545,32.3796757 C84.8194545,28.6175135 87.1711636,25.9824324 91.2022182,25.9824324 C94.4061091,25.9824324 96.8829091,28.4921081 96.8829091,31.7040541 C96.8829091,35.543027 94.1543636,38.2517838 90.3265818,38.2517838 L90.1498909,38.2517838 L90.1498909,38.2517838 Z M87.1477091,31.3027568 C87.1477091,33.9362703 88.0984,37.4241081 91.3022909,37.4241081 C93.5789455,37.4241081 94.5562182,35.1401622 94.5562182,32.8076216 C94.5562182,29.5705946 93.0285455,26.8101081 90.6268,26.8101081 C87.9733091,26.8101081 87.1477091,28.9670811 87.1477091,31.3027568 L87.1477091,31.3027568 Z" id="Stroke-5"></path>
                    <path d="M98.7796,29.5455135 C98.7796,28.7429189 98.7311273,28.1895676 98.6044727,27.9889189 C98.4543636,27.7882703 98.2041818,27.7145946 97.6788,27.7145946 L96.7531273,27.7145946 L96.7531273,27.0107568 C98.2292,26.8602703 99.7318545,26.3837297 100.657527,25.9824324 L100.882691,26.0827568 L100.882691,28.6175135 L100.932727,28.6175135 L102.285273,27.0107568 C102.884145,26.2834054 103.736327,25.9824324 104.3868,25.9824324 C104.812109,25.9824324 105.337491,26.1078378 105.537636,26.2583243 L105.312473,29.2696216 L104.787091,29.2696216 C104.511891,28.6676757 103.986509,28.1143243 103.085855,28.1143243 C101.983491,28.1143243 100.882691,29.2696216 100.882691,30.8748108 L100.882691,35.1903243 C100.882691,35.8690811 100.907709,36.3707027 101.007782,36.6465946 C101.107855,36.8707568 101.483127,36.9726486 102.058545,36.9977297 L103.359491,37.0714054 L103.359491,37.8254054 C102.058545,37.8003243 101.057818,37.7501622 99.8319273,37.7501622 C98.6044727,37.7501622 97.6037455,37.8003243 96.7030909,37.8254054 L96.7030909,37.0714054 L97.8539273,36.9977297 C98.2808,36.9726486 98.5544364,36.8707568 98.6545091,36.6465946 C98.7545818,36.3707027 98.7796,35.8690811 98.7796,35.1903243 L98.7796,29.5455135 L98.7796,29.5455135 Z" id="Fill-6" fill="#2C2C2C"></path>
                    <path d="M98.7796,29.5455135 C98.7796,28.7429189 98.7311273,28.1895676 98.6044727,27.9889189 C98.4543636,27.7882703 98.2041818,27.7145946 97.6788,27.7145946 L96.7531273,27.7145946 L96.7531273,27.0107568 C98.2292,26.8602703 99.7318545,26.3837297 100.657527,25.9824324 L100.882691,26.0827568 L100.882691,28.6175135 L100.932727,28.6175135 L102.285273,27.0107568 C102.884145,26.2834054 103.736327,25.9824324 104.3868,25.9824324 C104.812109,25.9824324 105.337491,26.1078378 105.537636,26.2583243 L105.312473,29.2696216 L104.787091,29.2696216 C104.511891,28.6676757 103.986509,28.1143243 103.085855,28.1143243 C101.983491,28.1143243 100.882691,29.2696216 100.882691,30.8748108 L100.882691,35.1903243 C100.882691,35.8690811 100.907709,36.3707027 101.007782,36.6465946 C101.107855,36.8707568 101.483127,36.9726486 102.058545,36.9977297 L103.359491,37.0714054 L103.359491,37.8254054 C102.058545,37.8003243 101.057818,37.7501622 99.8319273,37.7501622 C98.6044727,37.7501622 97.6037455,37.8003243 96.7030909,37.8254054 L96.7030909,37.0714054 L97.8539273,36.9977297 C98.2808,36.9726486 98.5544364,36.8707568 98.6545091,36.6465946 C98.7545818,36.3707027 98.7796,35.8690811 98.7796,35.1903243 L98.7796,29.5455135 L98.7796,29.5455135 Z" id="Stroke-7"></path>
                    <path d="M110.364582,35.1903243 C110.364582,35.8690811 110.3896,36.3707027 110.489673,36.6465946 C110.589745,36.8707568 110.864945,36.9726486 111.290255,36.9977297 L112.416073,37.0714054 L112.416073,37.8254054 C111.540436,37.8003243 110.539709,37.7501622 109.313818,37.7501622 C108.086364,37.7501622 107.085636,37.8003243 106.21,37.8254054 L106.21,37.0714054 L107.335818,36.9977297 C107.761127,36.9726486 108.036327,36.8707568 108.1364,36.6465946 C108.236473,36.3707027 108.261491,35.8690811 108.261491,35.1903243 L108.261491,29.5455135 C108.261491,28.7429189 108.211455,28.1895676 108.086364,27.9889189 C107.936255,27.7882703 107.686073,27.7145946 107.160691,27.7145946 L106.233455,27.7145946 L106.233455,27.0107568 C107.711091,26.8602703 109.212182,26.3837297 110.137855,25.9824324 L110.364582,26.0827568 L110.364582,28.2162162 L110.414618,28.2162162 L112.265964,26.611027 C112.816364,26.1329189 113.293273,25.9824324 114.294,25.9824324 C117.221127,25.9824324 118.423564,27.6127027 118.423564,30.3481081 L118.423564,35.1903243 C118.423564,35.8690811 118.448582,36.3707027 118.548655,36.6465946 C118.648727,36.8707568 118.923927,36.9726486 119.349236,36.9977297 L120.374982,37.0714054 L120.374982,37.8254054 C119.749527,37.8003243 119.024,37.7501622 118.323491,37.7501622 C117.622982,37.7501622 116.895891,37.8003243 116.320473,37.8254054 L116.320473,30.6992432 C116.320473,28.6175135 115.144618,27.5139459 113.441818,27.5139459 C111.915709,27.5139459 110.364582,28.8416757 110.364582,29.8715676 L110.364582,35.1903243 L110.364582,35.1903243 Z" id="Fill-8" fill="#2C2C2C"></path>
                    <path d="M110.364582,35.1903243 C110.364582,35.8690811 110.3896,36.3707027 110.489673,36.6465946 C110.589745,36.8707568 110.864945,36.9726486 111.290255,36.9977297 L112.416073,37.0714054 L112.416073,37.8254054 C111.540436,37.8003243 110.539709,37.7501622 109.313818,37.7501622 C108.086364,37.7501622 107.085636,37.8003243 106.21,37.8254054 L106.21,37.0714054 L107.335818,36.9977297 C107.761127,36.9726486 108.036327,36.8707568 108.1364,36.6465946 C108.236473,36.3707027 108.261491,35.8690811 108.261491,35.1903243 L108.261491,29.5455135 C108.261491,28.7429189 108.211455,28.1895676 108.086364,27.9889189 C107.936255,27.7882703 107.686073,27.7145946 107.160691,27.7145946 L106.233455,27.7145946 L106.233455,27.0107568 C107.711091,26.8602703 109.212182,26.3837297 110.137855,25.9824324 L110.364582,26.0827568 L110.364582,28.2162162 L110.414618,28.2162162 L112.265964,26.611027 C112.816364,26.1329189 113.293273,25.9824324 114.294,25.9824324 C117.221127,25.9824324 118.423564,27.6127027 118.423564,30.3481081 L118.423564,35.1903243 C118.423564,35.8690811 118.448582,36.3707027 118.548655,36.6465946 C118.648727,36.8707568 118.923927,36.9726486 119.349236,36.9977297 L120.374982,37.0714054 L120.374982,37.8254054 C119.749527,37.8003243 119.024,37.7501622 118.323491,37.7501622 C117.622982,37.7501622 116.895891,37.8003243 116.320473,37.8254054 L116.320473,30.6992432 C116.320473,28.6175135 115.144618,27.5139459 113.441818,27.5139459 C111.915709,27.5139459 110.364582,28.8416757 110.364582,29.8715676 L110.364582,35.1903243 L110.364582,35.1903243 Z" id="Stroke-9"></path>
                    <path d="M130.831018,30.5738378 C130.831018,30.924973 130.831018,31.2761081 130.780982,31.6288108 C129.279891,31.8796216 127.753782,31.9783784 126.251127,31.9783784 L122.596909,31.9783784 C122.596909,34.9144324 124.047964,36.9224865 127.126764,36.9224865 C128.3292,36.9224865 129.279891,36.3205405 130.230582,35.7436757 L130.555818,35.9944865 L130.055455,36.8472432 C129.880327,37.1482162 127.753782,38.2517838 126.050982,38.2517838 C122.271673,38.2517838 120.268655,35.8424324 120.268655,32.4564865 C120.268655,30.0220541 120.920691,28.5673514 122.071527,27.6628649 C122.546873,27.2866486 123.072255,26.9104324 123.624218,26.6596216 C124.499855,26.2583243 125.225382,25.9824324 126.076,25.9824324 C128.804545,25.9824324 130.831018,27.7381081 130.831018,30.5738378 L130.831018,30.5738378 Z M122.648509,30.6490811 L122.648509,30.9767027 C123.722727,31.1005405 124.800073,31.1256216 125.825818,31.1256216 C126.801527,31.1256216 127.728764,31.1005405 128.6044,31.0519459 C128.6044,28.7162703 127.753782,26.8101081 125.950909,26.8101081 C124.099564,26.8101081 122.648509,28.1394054 122.648509,30.6490811 L122.648509,30.6490811 Z" id="Fill-10" fill="#2C2C2C"></path>
                    <path d="M130.831018,30.5738378 C130.831018,30.924973 130.831018,31.2761081 130.780982,31.6288108 C129.279891,31.8796216 127.753782,31.9783784 126.251127,31.9783784 L122.596909,31.9783784 C122.596909,34.9144324 124.047964,36.9224865 127.126764,36.9224865 C128.3292,36.9224865 129.279891,36.3205405 130.230582,35.7436757 L130.555818,35.9944865 L130.055455,36.8472432 C129.880327,37.1482162 127.753782,38.2517838 126.050982,38.2517838 C122.271673,38.2517838 120.268655,35.8424324 120.268655,32.4564865 C120.268655,30.0220541 120.920691,28.5673514 122.071527,27.6628649 C122.546873,27.2866486 123.072255,26.9104324 123.624218,26.6596216 C124.499855,26.2583243 125.225382,25.9824324 126.076,25.9824324 C128.804545,25.9824324 130.831018,27.7381081 130.831018,30.5738378 L130.831018,30.5738378 Z M122.648509,30.6490811 L122.648509,30.9767027 C123.722727,31.1005405 124.800073,31.1256216 125.825818,31.1256216 C126.801527,31.1256216 127.728764,31.1005405 128.6044,31.0519459 C128.6044,28.7162703 127.753782,26.8101081 125.950909,26.8101081 C124.099564,26.8101081 122.648509,28.1394054 122.648509,30.6490811 L122.648509,30.6490811 Z" id="Stroke-11"></path>
                    <path d="M133.204618,22.1936216 C133.204618,21.6167568 133.129564,21.1652973 132.579164,21.1652973 L131.178145,21.1652973 L131.178145,20.463027 C132.504109,20.2623784 133.830073,20.0350811 135.082545,19.5334595 L135.307709,19.7356757 L135.307709,35.1903243 C135.307709,35.8690811 135.332727,36.3707027 135.4328,36.6465946 C135.532873,36.8707568 135.808073,36.9726486 136.233382,36.9977297 L137.384218,37.0714054 L137.384218,37.8254054 C136.483564,37.8003243 135.481273,37.7501622 134.255382,37.7501622 C133.029491,37.7501622 132.028764,37.8003243 131.126545,37.8254054 L131.126545,37.0714054 L132.278945,36.9977297 C132.704255,36.9726486 132.979455,36.8707568 133.079527,36.6465946 C133.1796,36.3707027 133.204618,35.8690811 133.204618,35.1903243 L133.204618,22.1936216 L133.204618,22.1936216 Z" id="Fill-12" fill="#2C2C2C"></path>
                    <path d="M133.204618,22.1936216 C133.204618,21.6167568 133.129564,21.1652973 132.579164,21.1652973 L131.178145,21.1652973 L131.178145,20.463027 C132.504109,20.2623784 133.830073,20.0350811 135.082545,19.5334595 L135.307709,19.7356757 L135.307709,35.1903243 C135.307709,35.8690811 135.332727,36.3707027 135.4328,36.6465946 C135.532873,36.8707568 135.808073,36.9726486 136.233382,36.9977297 L137.384218,37.0714054 L137.384218,37.8254054 C136.483564,37.8003243 135.481273,37.7501622 134.255382,37.7501622 C133.029491,37.7501622 132.028764,37.8003243 131.126545,37.8254054 L131.126545,37.0714054 L132.278945,36.9977297 C132.704255,36.9726486 132.979455,36.8707568 133.079527,36.6465946 C133.1796,36.3707027 133.204618,35.8690811 133.204618,35.1903243 L133.204618,22.1936216 L133.204618,22.1936216 Z" id="Stroke-13"></path>
                    <path d="M139.484182,22.1936216 C139.484182,21.6167568 139.409127,21.1652973 138.858727,21.1652973 L137.456145,21.1652973 L137.456145,20.463027 C138.782109,20.2623784 140.109636,20.0350811 141.360545,19.5334595 L141.585709,19.7356757 L141.585709,35.1903243 C141.585709,35.8690811 141.610727,36.3707027 141.7108,36.6465946 C141.810873,36.8707568 142.087636,36.9726486 142.512945,36.9977297 L143.663782,37.0714054 L143.663782,37.8254054 C142.763127,37.8003243 141.760836,37.7501622 140.534945,37.7501622 C139.309055,37.7501622 138.308327,37.8003243 137.406109,37.8254054 L137.406109,37.0714054 L138.556945,36.9977297 C138.983818,36.9726486 139.257455,36.8707568 139.357527,36.6465946 C139.459164,36.3707027 139.484182,35.8690811 139.484182,35.1903243 L139.484182,22.1936216 L139.484182,22.1936216 Z" id="Fill-14" fill="#2C2C2C"></path>
                    <path d="M139.484182,22.1936216 C139.484182,21.6167568 139.409127,21.1652973 138.858727,21.1652973 L137.456145,21.1652973 L137.456145,20.463027 C138.782109,20.2623784 140.109636,20.0350811 141.360545,19.5334595 L141.585709,19.7356757 L141.585709,35.1903243 C141.585709,35.8690811 141.610727,36.3707027 141.7108,36.6465946 C141.810873,36.8707568 142.087636,36.9726486 142.512945,36.9977297 L143.663782,37.0714054 L143.663782,37.8254054 C142.763127,37.8003243 141.760836,37.7501622 140.534945,37.7501622 C139.309055,37.7501622 138.308327,37.8003243 137.406109,37.8254054 L137.406109,37.0714054 L138.556945,36.9977297 C138.983818,36.9726486 139.257455,36.8707568 139.357527,36.6465946 C139.459164,36.3707027 139.484182,35.8690811 139.484182,35.1903243 L139.484182,22.1936216 L139.484182,22.1936216 Z" id="Stroke-15"></path>
                    <path d="M151.192691,23.4743243 C151.192691,22.5196757 151.142655,21.8675676 150.967527,21.5901081 C150.817418,21.3408649 150.5172,21.2405405 149.9152,21.2154595 L148.714327,21.1386486 L148.714327,20.3877838 C150.015273,20.4363784 151.192691,20.463027 152.418582,20.463027 C153.569418,20.463027 154.746836,20.4363784 156.047782,20.3877838 L156.047782,21.1386486 L154.846909,21.2154595 C154.244909,21.2405405 153.946255,21.3408649 153.794582,21.5901081 C153.621018,21.8675676 153.569418,22.5196757 153.569418,23.4743243 L153.569418,32.1037838 C153.569418,35.6684324 155.422327,36.6967568 158.726291,36.6967568 C161.428255,36.6967568 163.8816,35.6684324 163.8816,31.5034054 L163.8816,23.4743243 C163.8816,22.5196757 163.831564,21.8675676 163.656436,21.5901081 C163.506327,21.3408649 163.206109,21.2640541 162.605673,21.2154595 L161.504873,21.1386486 L161.504873,20.3877838 C162.5056,20.4112973 163.506327,20.463027 164.406982,20.463027 C165.407709,20.463027 166.309927,20.4112973 167.410727,20.3877838 L167.410727,21.1386486 L166.309927,21.2154595 C165.709491,21.2640541 165.407709,21.3408649 165.259164,21.5901081 C165.082473,21.8675676 165.032436,22.5196757 165.032436,23.4743243 L165.032436,30.7258919 C165.032436,36.0932432 163.005964,38.2517838 157.950727,38.2517838 C153.696073,38.2517838 151.192691,36.9726486 151.192691,32.3796757 L151.192691,23.4743243 L151.192691,23.4743243 Z" id="Fill-16" fill="#2C2C2C"></path>
                    <path d="M151.192691,23.4743243 C151.192691,22.5196757 151.142655,21.8675676 150.967527,21.5901081 C150.817418,21.3408649 150.5172,21.2405405 149.9152,21.2154595 L148.714327,21.1386486 L148.714327,20.3877838 C150.015273,20.4363784 151.192691,20.463027 152.418582,20.463027 C153.569418,20.463027 154.746836,20.4363784 156.047782,20.3877838 L156.047782,21.1386486 L154.846909,21.2154595 C154.244909,21.2405405 153.946255,21.3408649 153.794582,21.5901081 C153.621018,21.8675676 153.569418,22.5196757 153.569418,23.4743243 L153.569418,32.1037838 C153.569418,35.6684324 155.422327,36.6967568 158.726291,36.6967568 C161.428255,36.6967568 163.8816,35.6684324 163.8816,31.5034054 L163.8816,23.4743243 C163.8816,22.5196757 163.831564,21.8675676 163.656436,21.5901081 C163.506327,21.3408649 163.206109,21.2640541 162.605673,21.2154595 L161.504873,21.1386486 L161.504873,20.3877838 C162.5056,20.4112973 163.506327,20.463027 164.406982,20.463027 C165.407709,20.463027 166.309927,20.4112973 167.410727,20.3877838 L167.410727,21.1386486 L166.309927,21.2154595 C165.709491,21.2640541 165.407709,21.3408649 165.259164,21.5901081 C165.082473,21.8675676 165.032436,22.5196757 165.032436,23.4743243 L165.032436,30.7258919 C165.032436,36.0932432 163.005964,38.2517838 157.950727,38.2517838 C153.696073,38.2517838 151.192691,36.9726486 151.192691,32.3796757 L151.192691,23.4743243 L151.192691,23.4743243 Z" id="Stroke-17"></path>
                    <path d="M170.681855,35.1903243 C170.681855,35.8690811 170.706873,36.3707027 170.806945,36.6465946 C170.907018,36.8707568 171.182218,36.9726486 171.607527,36.9977297 L172.733345,37.0714054 L172.733345,37.8254054 C171.857709,37.8003243 170.856982,37.7501622 169.631091,37.7501622 C168.403636,37.7501622 167.402909,37.8003243 166.527273,37.8254054 L166.527273,37.0714054 L167.653091,36.9977297 C168.0784,36.9726486 168.355164,36.8707568 168.453673,36.6465946 C168.553745,36.3707027 168.580327,35.8690811 168.580327,35.1903243 L168.580327,29.5455135 C168.580327,28.7429189 168.528727,28.1895676 168.403636,27.9889189 C168.255091,27.7882703 168.003345,27.7145946 167.477964,27.7145946 L166.552291,27.7145946 L166.552291,27.0107568 C168.028364,26.8602703 169.529455,26.3837297 170.456691,25.9824324 L170.681855,26.0827568 L170.681855,28.2162162 L170.731891,28.2162162 L172.5848,26.611027 C173.1352,26.1329189 173.610545,25.9824324 174.611273,25.9824324 C177.539964,25.9824324 178.740836,27.6127027 178.740836,30.3481081 L178.740836,35.1903243 C178.740836,35.8690811 178.765855,36.3707027 178.865927,36.6465946 C178.966,36.8707568 179.2412,36.9726486 179.666509,36.9977297 L180.693818,37.0714054 L180.693818,37.8254054 C180.0668,37.8003243 179.341273,37.7501622 178.640764,37.7501622 C177.940255,37.7501622 177.214727,37.8003243 176.637745,37.8254054 L176.637745,30.6992432 C176.637745,28.6175135 175.461891,27.5139459 173.760655,27.5139459 C172.232982,27.5139459 170.681855,28.8416757 170.681855,29.8715676 L170.681855,35.1903243 L170.681855,35.1903243 Z" id="Fill-18" fill="#2C2C2C"></path>
                    <path d="M170.681855,35.1903243 C170.681855,35.8690811 170.706873,36.3707027 170.806945,36.6465946 C170.907018,36.8707568 171.182218,36.9726486 171.607527,36.9977297 L172.733345,37.0714054 L172.733345,37.8254054 C171.857709,37.8003243 170.856982,37.7501622 169.631091,37.7501622 C168.403636,37.7501622 167.402909,37.8003243 166.527273,37.8254054 L166.527273,37.0714054 L167.653091,36.9977297 C168.0784,36.9726486 168.355164,36.8707568 168.453673,36.6465946 C168.553745,36.3707027 168.580327,35.8690811 168.580327,35.1903243 L168.580327,29.5455135 C168.580327,28.7429189 168.528727,28.1895676 168.403636,27.9889189 C168.255091,27.7882703 168.003345,27.7145946 167.477964,27.7145946 L166.552291,27.7145946 L166.552291,27.0107568 C168.028364,26.8602703 169.529455,26.3837297 170.456691,25.9824324 L170.681855,26.0827568 L170.681855,28.2162162 L170.731891,28.2162162 L172.5848,26.611027 C173.1352,26.1329189 173.610545,25.9824324 174.611273,25.9824324 C177.539964,25.9824324 178.740836,27.6127027 178.740836,30.3481081 L178.740836,35.1903243 C178.740836,35.8690811 178.765855,36.3707027 178.865927,36.6465946 C178.966,36.8707568 179.2412,36.9726486 179.666509,36.9977297 L180.693818,37.0714054 L180.693818,37.8254054 C180.0668,37.8003243 179.341273,37.7501622 178.640764,37.7501622 C177.940255,37.7501622 177.214727,37.8003243 176.637745,37.8254054 L176.637745,30.6992432 C176.637745,28.6175135 175.461891,27.5139459 173.760655,27.5139459 C172.232982,27.5139459 170.681855,28.8416757 170.681855,29.8715676 L170.681855,35.1903243 L170.681855,35.1903243 Z" id="Stroke-19"></path>
                    <path d="M185.642727,35.1903243 C185.642727,35.8690811 185.667745,36.3707027 185.767818,36.6465946 C185.867891,36.8707568 186.143091,36.9726486 186.5684,36.9977297 L187.7208,37.0714054 L187.7208,37.8254054 C186.818582,37.8003243 185.817855,37.7501622 184.591964,37.7501622 C183.366073,37.7501622 182.363782,37.8003243 181.463127,37.8254054 L181.463127,37.0714054 L182.613964,36.9977297 C183.040836,36.9726486 183.314473,36.8707568 183.414545,36.6465946 C183.514618,36.3707027 183.539636,35.8690811 183.539636,35.1903243 L183.539636,29.5455135 C183.539636,28.7429189 183.491164,28.1895676 183.366073,27.9889189 C183.2144,27.7882703 182.964218,27.7145946 182.438836,27.7145946 L181.513164,27.7145946 L181.513164,27.0107568 C182.989236,26.8602703 184.491891,26.3837297 185.417564,25.9824324 L185.642727,26.0827568 L185.642727,35.1903243 L185.642727,35.1903243 Z M185.867891,21.9177297 C185.867891,22.6450811 185.1924,23.2971892 184.466873,23.2971892 C183.739782,23.2971892 183.089309,22.6450811 183.089309,21.9177297 C183.089309,21.1903784 183.739782,20.5131892 184.466873,20.5131892 C185.1924,20.5131892 185.867891,21.1903784 185.867891,21.9177297 L185.867891,21.9177297 Z" id="Fill-20" fill="#2C2C2C"></path>
                    <path d="M185.642727,35.1903243 C185.642727,35.8690811 185.667745,36.3707027 185.767818,36.6465946 C185.867891,36.8707568 186.143091,36.9726486 186.5684,36.9977297 L187.7208,37.0714054 L187.7208,37.8254054 C186.818582,37.8003243 185.817855,37.7501622 184.591964,37.7501622 C183.366073,37.7501622 182.363782,37.8003243 181.463127,37.8254054 L181.463127,37.0714054 L182.613964,36.9977297 C183.040836,36.9726486 183.314473,36.8707568 183.414545,36.6465946 C183.514618,36.3707027 183.539636,35.8690811 183.539636,35.1903243 L183.539636,29.5455135 C183.539636,28.7429189 183.491164,28.1895676 183.366073,27.9889189 C183.2144,27.7882703 182.964218,27.7145946 182.438836,27.7145946 L181.513164,27.7145946 L181.513164,27.0107568 C182.989236,26.8602703 184.491891,26.3837297 185.417564,25.9824324 L185.642727,26.0827568 L185.642727,35.1903243 L185.642727,35.1903243 Z M185.867891,21.9177297 C185.867891,22.6450811 185.1924,23.2971892 184.466873,23.2971892 C183.739782,23.2971892 183.089309,22.6450811 183.089309,21.9177297 C183.089309,21.1903784 183.739782,20.5131892 184.466873,20.5131892 C185.1924,20.5131892 185.867891,21.1903784 185.867891,21.9177297 L185.867891,21.9177297 Z" id="Stroke-21"></path>
                    <path d="M195.076145,35.1903243 C194.650836,36.1198919 194.400655,37.0714054 194.0504,37.9257297 L192.797927,37.9257297 L188.493236,27.8133514 C188.343127,27.4622162 188.193018,27.0107568 187.717673,26.9856757 L186.867055,26.9370811 L186.867055,26.2332432 C187.842764,26.2583243 188.818473,26.3084865 189.794182,26.3084865 C190.771455,26.3084865 191.722145,26.2583243 192.697855,26.2332432 L192.697855,26.9370811 L191.471964,26.9856757 C191.071673,27.0107568 190.846509,27.1377297 190.846509,27.5139459 C190.846509,27.7381081 190.921564,28.0406486 191.071673,28.4168649 L194.0504,35.6417838 C194.575782,34.4880541 195.126182,33.3092432 195.601527,32.1288649 L196.652291,29.4702703 C196.977527,28.6676757 197.127636,28.0641622 197.127636,27.6628649 C197.127636,27.2114054 196.927491,27.0107568 196.5272,26.9856757 L195.501455,26.9370811 L195.501455,26.2332432 C196.277018,26.2583243 197.0776,26.3084865 197.854727,26.3084865 C198.630291,26.3084865 199.430873,26.2583243 200.206436,26.2332432 L200.206436,26.9370811 L199.430873,26.9856757 C198.805418,27.0358378 198.380109,27.9152432 198.028291,28.6676757 L195.076145,35.1903243 L195.076145,35.1903243 Z" id="Fill-22" fill="#2C2C2C"></path>
                    <path d="M195.076145,35.1903243 C194.650836,36.1198919 194.400655,37.0714054 194.0504,37.9257297 L192.797927,37.9257297 L188.493236,27.8133514 C188.343127,27.4622162 188.193018,27.0107568 187.717673,26.9856757 L186.867055,26.9370811 L186.867055,26.2332432 C187.842764,26.2583243 188.818473,26.3084865 189.794182,26.3084865 C190.771455,26.3084865 191.722145,26.2583243 192.697855,26.2332432 L192.697855,26.9370811 L191.471964,26.9856757 C191.071673,27.0107568 190.846509,27.1377297 190.846509,27.5139459 C190.846509,27.7381081 190.921564,28.0406486 191.071673,28.4168649 L194.0504,35.6417838 C194.575782,34.4880541 195.126182,33.3092432 195.601527,32.1288649 L196.652291,29.4702703 C196.977527,28.6676757 197.127636,28.0641622 197.127636,27.6628649 C197.127636,27.2114054 196.927491,27.0107568 196.5272,26.9856757 L195.501455,26.9370811 L195.501455,26.2332432 C196.277018,26.2583243 197.0776,26.3084865 197.854727,26.3084865 C198.630291,26.3084865 199.430873,26.2583243 200.206436,26.2332432 L200.206436,26.9370811 L199.430873,26.9856757 C198.805418,27.0358378 198.380109,27.9152432 198.028291,28.6676757 L195.076145,35.1903243 L195.076145,35.1903243 Z" id="Stroke-23"></path>
                    <path d="M210.062036,30.5738378 C210.062036,30.924973 210.062036,31.2761081 210.012,31.6288108 C208.510909,31.8796216 206.9848,31.9783784 205.482145,31.9783784 L201.827927,31.9783784 C201.827927,34.9144324 203.278982,36.9224865 206.357782,36.9224865 C207.560218,36.9224865 208.510909,36.3205405 209.4616,35.7436757 L209.786836,35.9944865 L209.286473,36.8472432 C209.111345,37.1482162 206.9848,38.2517838 205.282,38.2517838 C201.502691,38.2517838 199.499673,35.8424324 199.499673,32.4564865 C199.499673,30.0220541 200.151709,28.5673514 201.302545,27.6628649 C201.777891,27.2866486 202.303273,26.9104324 202.853673,26.6596216 C203.729309,26.2583243 204.4564,25.9824324 205.307018,25.9824324 C208.035564,25.9824324 210.062036,27.7381081 210.062036,30.5738378 L210.062036,30.5738378 Z M201.877964,30.6490811 L201.877964,30.9767027 C202.953745,31.1005405 204.031091,31.1256216 205.056836,31.1256216 C206.032545,31.1256216 206.958218,31.1005405 207.833855,31.0519459 C207.833855,28.7162703 206.9848,26.8101081 205.181927,26.8101081 C203.330582,26.8101081 201.877964,28.1394054 201.877964,30.6490811 L201.877964,30.6490811 Z" id="Fill-24" fill="#2C2C2C"></path>
                    <path d="M210.062036,30.5738378 C210.062036,30.924973 210.062036,31.2761081 210.012,31.6288108 C208.510909,31.8796216 206.9848,31.9783784 205.482145,31.9783784 L201.827927,31.9783784 C201.827927,34.9144324 203.278982,36.9224865 206.357782,36.9224865 C207.560218,36.9224865 208.510909,36.3205405 209.4616,35.7436757 L209.786836,35.9944865 L209.286473,36.8472432 C209.111345,37.1482162 206.9848,38.2517838 205.282,38.2517838 C201.502691,38.2517838 199.499673,35.8424324 199.499673,32.4564865 C199.499673,30.0220541 200.151709,28.5673514 201.302545,27.6628649 C201.777891,27.2866486 202.303273,26.9104324 202.853673,26.6596216 C203.729309,26.2583243 204.4564,25.9824324 205.307018,25.9824324 C208.035564,25.9824324 210.062036,27.7381081 210.062036,30.5738378 L210.062036,30.5738378 Z M201.877964,30.6490811 L201.877964,30.9767027 C202.953745,31.1005405 204.031091,31.1256216 205.056836,31.1256216 C206.032545,31.1256216 206.958218,31.1005405 207.833855,31.0519459 C207.833855,28.7162703 206.9848,26.8101081 205.181927,26.8101081 C203.330582,26.8101081 201.877964,28.1394054 201.877964,30.6490811 L201.877964,30.6490811 Z" id="Stroke-25"></path>
                    <path d="M212.936,29.5455135 C212.936,28.7429189 212.885964,28.1895676 212.760873,27.9889189 C212.610764,27.7882703 212.359018,27.7145946 211.8352,27.7145946 L210.907964,27.7145946 L210.907964,27.0107568 C212.3856,26.8602703 213.886691,26.3837297 214.812364,25.9824324 L215.037527,26.0827568 L215.037527,28.6175135 L215.087564,28.6175135 L216.440109,27.0107568 C217.040545,26.2834054 217.891164,25.9824324 218.541636,25.9824324 C218.968509,25.9824324 219.493891,26.1078378 219.692473,26.2583243 L219.467309,29.2696216 L218.941927,29.2696216 C218.666727,28.6676757 218.141345,28.1143243 217.240691,28.1143243 C216.139891,28.1143243 215.037527,29.2696216 215.037527,30.8748108 L215.037527,35.1903243 C215.037527,35.8690811 215.062545,36.3707027 215.164182,36.6465946 C215.264255,36.8707568 215.639527,36.9726486 216.214945,36.9977297 L217.515891,37.0714054 L217.515891,37.8254054 C216.214945,37.8003243 215.212655,37.7501622 213.986764,37.7501622 C212.760873,37.7501622 211.760145,37.8003243 210.857927,37.8254054 L210.857927,37.0714054 L212.008764,36.9977297 C212.435636,36.9726486 212.710836,36.8707568 212.810909,36.6465946 C212.910982,36.3707027 212.936,35.8690811 212.936,35.1903243 L212.936,29.5455135 L212.936,29.5455135 Z" id="Fill-26" fill="#2C2C2C"></path>
                    <path d="M212.936,29.5455135 C212.936,28.7429189 212.885964,28.1895676 212.760873,27.9889189 C212.610764,27.7882703 212.359018,27.7145946 211.8352,27.7145946 L210.907964,27.7145946 L210.907964,27.0107568 C212.3856,26.8602703 213.886691,26.3837297 214.812364,25.9824324 L215.037527,26.0827568 L215.037527,28.6175135 L215.087564,28.6175135 L216.440109,27.0107568 C217.040545,26.2834054 217.891164,25.9824324 218.541636,25.9824324 C218.968509,25.9824324 219.493891,26.1078378 219.692473,26.2583243 L219.467309,29.2696216 L218.941927,29.2696216 C218.666727,28.6676757 218.141345,28.1143243 217.240691,28.1143243 C216.139891,28.1143243 215.037527,29.2696216 215.037527,30.8748108 L215.037527,35.1903243 C215.037527,35.8690811 215.062545,36.3707027 215.164182,36.6465946 C215.264255,36.8707568 215.639527,36.9726486 216.214945,36.9977297 L217.515891,37.0714054 L217.515891,37.8254054 C216.214945,37.8003243 215.212655,37.7501622 213.986764,37.7501622 C212.760873,37.7501622 211.760145,37.8003243 210.857927,37.8254054 L210.857927,37.0714054 L212.008764,36.9977297 C212.435636,36.9726486 212.710836,36.8707568 212.810909,36.6465946 C212.910982,36.3707027 212.936,35.8690811 212.936,35.1903243 L212.936,29.5455135 L212.936,29.5455135 Z" id="Stroke-27"></path>
                    <path d="M221.490655,34.162 L221.490655,35.1903243 C221.490655,36.7453514 223.268509,37.3237838 224.719564,37.3237838 C226.295709,37.3237838 227.648255,36.3957838 227.648255,35.0398378 C227.648255,34.2372432 227.221382,33.5851351 226.445818,33.3844865 C225.345018,33.1085946 223.969018,32.8311351 222.766582,32.3796757 C221.565709,31.9282162 220.640036,31.1773514 220.640036,29.6458378 C220.640036,26.9370811 222.991745,25.9824324 225.345018,25.9824324 C226.522436,25.9824324 227.598218,26.2583243 228.573927,26.611027 C228.498873,27.5139459 228.473855,28.4419459 228.448836,29.4451892 L227.748327,29.4451892 L227.748327,28.8683243 C227.748327,27.5625405 226.270691,26.8101081 224.844655,26.8101081 C222.718109,26.8101081 222.391309,27.9889189 222.391309,28.8416757 C222.391309,29.9217297 223.216909,30.4985946 225.119855,30.8246486 C228.098582,31.3262703 229.4996,32.0802703 229.4996,34.0365946 C229.4996,36.7970811 226.7476,38.2517838 223.969018,38.2517838 C222.766582,38.2517838 221.6908,38.0762162 220.464909,37.6498378 C220.715091,36.5447027 220.740109,35.3408108 220.740109,34.162 L221.490655,34.162 L221.490655,34.162 Z" id="Fill-28" fill="#2C2C2C"></path>
                    <path d="M221.490655,34.162 L221.490655,35.1903243 C221.490655,36.7453514 223.268509,37.3237838 224.719564,37.3237838 C226.295709,37.3237838 227.648255,36.3957838 227.648255,35.0398378 C227.648255,34.2372432 227.221382,33.5851351 226.445818,33.3844865 C225.345018,33.1085946 223.969018,32.8311351 222.766582,32.3796757 C221.565709,31.9282162 220.640036,31.1773514 220.640036,29.6458378 C220.640036,26.9370811 222.991745,25.9824324 225.345018,25.9824324 C226.522436,25.9824324 227.598218,26.2583243 228.573927,26.611027 C228.498873,27.5139459 228.473855,28.4419459 228.448836,29.4451892 L227.748327,29.4451892 L227.748327,28.8683243 C227.748327,27.5625405 226.270691,26.8101081 224.844655,26.8101081 C222.718109,26.8101081 222.391309,27.9889189 222.391309,28.8416757 C222.391309,29.9217297 223.216909,30.4985946 225.119855,30.8246486 C228.098582,31.3262703 229.4996,32.0802703 229.4996,34.0365946 C229.4996,36.7970811 226.7476,38.2517838 223.969018,38.2517838 C222.766582,38.2517838 221.6908,38.0762162 220.464909,37.6498378 C220.715091,36.5447027 220.740109,35.3408108 220.740109,34.162 L221.490655,34.162 L221.490655,34.162 Z" id="Stroke-29"></path>
                    <path d="M234.526691,35.1903243 C234.526691,35.8690811 234.551709,36.3707027 234.651782,36.6465946 C234.751855,36.8707568 235.027055,36.9726486 235.453927,36.9977297 L236.604764,37.0714054 L236.604764,37.8254054 C235.704109,37.8003243 234.701818,37.7501622 233.475927,37.7501622 C232.250036,37.7501622 231.249309,37.8003243 230.347091,37.8254054 L230.347091,37.0714054 L231.497927,36.9977297 C231.9248,36.9726486 232.198436,36.8707568 232.300073,36.6465946 C232.398582,36.3707027 232.425164,35.8690811 232.425164,35.1903243 L232.425164,29.5455135 C232.425164,28.7429189 232.375127,28.1895676 232.250036,27.9889189 C232.099927,27.7882703 231.848182,27.7145946 231.3228,27.7145946 L230.397127,27.7145946 L230.397127,27.0107568 C231.874764,26.8602703 233.375855,26.3837297 234.301527,25.9824324 L234.526691,26.0827568 L234.526691,35.1903243 L234.526691,35.1903243 Z M234.751855,21.9177297 C234.751855,22.6450811 234.076364,23.2971892 233.350836,23.2971892 C232.625309,23.2971892 231.973273,22.6450811 231.973273,21.9177297 C231.973273,21.1903784 232.625309,20.5131892 233.350836,20.5131892 C234.076364,20.5131892 234.751855,21.1903784 234.751855,21.9177297 L234.751855,21.9177297 Z" id="Fill-30" fill="#2C2C2C"></path>
                    <path d="M234.526691,35.1903243 C234.526691,35.8690811 234.551709,36.3707027 234.651782,36.6465946 C234.751855,36.8707568 235.027055,36.9726486 235.453927,36.9977297 L236.604764,37.0714054 L236.604764,37.8254054 C235.704109,37.8003243 234.701818,37.7501622 233.475927,37.7501622 C232.250036,37.7501622 231.249309,37.8003243 230.347091,37.8254054 L230.347091,37.0714054 L231.497927,36.9977297 C231.9248,36.9726486 232.198436,36.8707568 232.300073,36.6465946 C232.398582,36.3707027 232.425164,35.8690811 232.425164,35.1903243 L232.425164,29.5455135 C232.425164,28.7429189 232.375127,28.1895676 232.250036,27.9889189 C232.099927,27.7882703 231.848182,27.7145946 231.3228,27.7145946 L230.397127,27.7145946 L230.397127,27.0107568 C231.874764,26.8602703 233.375855,26.3837297 234.301527,25.9824324 L234.526691,26.0827568 L234.526691,35.1903243 L234.526691,35.1903243 Z M234.751855,21.9177297 C234.751855,22.6450811 234.076364,23.2971892 233.350836,23.2971892 C232.625309,23.2971892 231.973273,22.6450811 231.973273,21.9177297 C231.973273,21.1903784 232.625309,20.5131892 233.350836,20.5131892 C234.076364,20.5131892 234.751855,21.1903784 234.751855,21.9177297 L234.751855,21.9177297 Z" id="Stroke-31"></path>
                    <path d="M236.149745,28.2648108 L236.149745,27.7381081 L238.102727,26.8602703 L238.102727,25.1045946 C238.102727,24.4524865 238.077709,23.8003784 238.002655,23.1216216 C238.903309,22.8457297 239.703891,22.4444324 240.1292,22.1685405 L240.430982,22.4444324 C240.279309,23.548 240.154218,24.9541081 240.154218,26.0075135 L240.154218,26.9605946 L243.583273,26.8101081 L243.358109,28.1660541 L240.154218,28.1660541 L240.154218,34.7388649 C240.154218,35.8925946 240.479455,36.471027 241.531782,36.471027 C242.182255,36.471027 242.6576,36.1951351 243.007855,35.9944865 L243.333091,36.4192973 L242.132218,37.7501622 C241.907055,38.000973 241.031418,38.0511351 240.504473,38.0511351 C239.178509,38.0511351 238.052691,37.4241081 238.052691,35.390973 L238.052691,28.1660541 L236.149745,28.2648108 L236.149745,28.2648108 Z" id="Fill-32" fill="#2C2C2C"></path>
                    <path d="M236.149745,28.2648108 L236.149745,27.7381081 L238.102727,26.8602703 L238.102727,25.1045946 C238.102727,24.4524865 238.077709,23.8003784 238.002655,23.1216216 C238.903309,22.8457297 239.703891,22.4444324 240.1292,22.1685405 L240.430982,22.4444324 C240.279309,23.548 240.154218,24.9541081 240.154218,26.0075135 L240.154218,26.9605946 L243.583273,26.8101081 L243.358109,28.1660541 L240.154218,28.1660541 L240.154218,34.7388649 C240.154218,35.8925946 240.479455,36.471027 241.531782,36.471027 C242.182255,36.471027 242.6576,36.1951351 243.007855,35.9944865 L243.333091,36.4192973 L242.132218,37.7501622 C241.907055,38.000973 241.031418,38.0511351 240.504473,38.0511351 C239.178509,38.0511351 238.052691,37.4241081 238.052691,35.390973 L238.052691,28.1660541 L236.149745,28.2648108 L236.149745,28.2648108 Z" id="Stroke-33"></path>
                    <path d="M253.667164,28.2648108 C253.767236,28.014 253.817273,27.84 253.817273,27.6628649 C253.817273,27.2114054 253.442,27.0358378 252.766509,26.9856757 L252.116036,26.9370811 L252.116036,26.2332432 C252.916618,26.2583243 253.692182,26.3084865 254.492764,26.3084865 C255.293345,26.3084865 256.068909,26.2583243 256.871055,26.2332432 L256.871055,26.9370811 L256.170545,26.9856757 C255.570109,27.0358378 255.018145,27.8133514 254.067455,30.0220541 L248.9872,41.7647027 C248.186618,43.5971892 247.285964,44.8512432 245.182873,44.8512432 C244.757564,44.8512432 244.207164,44.649027 243.9304,44.475027 L244.5324,42.5923784 L244.857636,42.5923784 C245.157855,42.8933514 245.733273,43.1692432 246.083527,43.1692432 L246.133564,43.1692432 C247.584618,43.0704865 248.386764,41.0373514 248.862109,39.8820541 L249.437527,38.3521081 L245.307964,28.2162162 C244.907673,27.2631351 244.557418,27.0358378 244.005455,26.9856757 L243.555127,26.9370811 L243.555127,26.2332432 C244.5324,26.2583243 245.483091,26.3084865 246.4588,26.3084865 C247.434509,26.3084865 248.386764,26.2583243 249.362473,26.2332432 L249.362473,26.9370811 L248.411782,26.9856757 C247.936436,27.0107568 247.584618,27.1377297 247.584618,27.6393514 C247.584618,27.8885946 247.636218,28.1895676 247.809782,28.6175135 L250.688436,35.5916216 L253.667164,28.2648108 L253.667164,28.2648108 Z" id="Fill-34" fill="#2C2C2C"></path>
                    <path d="M253.667164,28.2648108 C253.767236,28.014 253.817273,27.84 253.817273,27.6628649 C253.817273,27.2114054 253.442,27.0358378 252.766509,26.9856757 L252.116036,26.9370811 L252.116036,26.2332432 C252.916618,26.2583243 253.692182,26.3084865 254.492764,26.3084865 C255.293345,26.3084865 256.068909,26.2583243 256.871055,26.2332432 L256.871055,26.9370811 L256.170545,26.9856757 C255.570109,27.0358378 255.018145,27.8133514 254.067455,30.0220541 L248.9872,41.7647027 C248.186618,43.5971892 247.285964,44.8512432 245.182873,44.8512432 C244.757564,44.8512432 244.207164,44.649027 243.9304,44.475027 L244.5324,42.5923784 L244.857636,42.5923784 C245.157855,42.8933514 245.733273,43.1692432 246.083527,43.1692432 L246.133564,43.1692432 C247.584618,43.0704865 248.386764,41.0373514 248.862109,39.8820541 L249.437527,38.3521081 L245.307964,28.2162162 C244.907673,27.2631351 244.557418,27.0358378 244.005455,26.9856757 L243.555127,26.9370811 L243.555127,26.2332432 C244.5324,26.2583243 245.483091,26.3084865 246.4588,26.3084865 C247.434509,26.3084865 248.386764,26.2583243 249.362473,26.2332432 L249.362473,26.9370811 L248.411782,26.9856757 C247.936436,27.0107568 247.584618,27.1377297 247.584618,27.6393514 C247.584618,27.8885946 247.636218,28.1895676 247.809782,28.6175135 L250.688436,35.5916216 L253.667164,28.2648108 L253.667164,28.2648108 Z" id="Stroke-35"></path>
                </g>
            </g>
        </g>
    </g>
</svg>