<?xml version="1.0" encoding="UTF-8" standalone="no"?>
<svg width="392px" height="101px" viewBox="0 0 392 101" version="1.1" xmlns="http://www.w3.org/2000/svg" xmlns:xlink="http://www.w3.org/1999/xlink" xmlns:sketch="http://www.bohemiancoding.com/sketch/ns">
    <!-- Generator: Sketch 3.2.2 (9983) - http://www.bohemiancoding.com/sketch -->
    <title>Logo Lockup (updated)</title>
    <desc>Created with Sketch.</desc>
    <defs></defs>
    <g id="ACTIVE" stroke="none" stroke-width="1" fill="none" fill-rule="evenodd" sketch:type="MSPage">
        <g id="Homepage" sketch:type="MSArtboardGroup" transform="translate(-524.000000, -40.000000)">
            <g id="•-Header" sketch:type="MSLayerGroup" transform="translate(-2.000000, -58.000000)">
                <g id="Logo-Lockup-(updated)" transform="translate(526.000000, 98.000000)" sketch:type="MSShapeGroup">
                    <g id="Arts&amp;Sciences-+-The-College-of" transform="translate(156.000000, 22.000000)">
                        <g id="Arts&amp;Sciences" transform="translate(0.000000, 28.000000)">
                            <path d="M104.518086,1 C101.556148,1 99.2224997,1.83469865 97.7774329,3.09069631 C96.2964638,4.34669397 95.1116885,6.32416618 95.1116885,8.83352838 C95.1116885,11.3047104 96.0002699,12.826653 97.1119584,13.8917496 C98.2223647,14.9923932 99.5186935,15.4874195 100.148266,15.7928613 C101.000945,16.1720304 102.926846,16.8579579 104.037252,17.2753072 C105.147658,17.6939731 107.037657,18.378584 107.037657,20.1651551 C107.037657,21.9148625 105.556688,22.8654184 103.630787,22.8654184 C101.667701,22.8654184 98.8147523,21.5343768 96.9645026,19.5569046 L94,24.043739 C96.074639,26.0212112 99.3712377,28 103.074302,28 C105.815697,28 108.18653,27.3153891 110.000877,25.8316267 C111.852409,24.3491808 113,22.0675834 113,19.5569046 C113,17.1989468 112.074234,15.6019602 111.001012,14.4986834 C109.852139,13.3203628 108.148063,12.6370685 107.444122,12.3698069 C106.62991,12.0275015 104.741193,11.3428906 103.630787,10.8860445 C102.481914,10.4305149 101.036847,9.82226448 101.036847,8.22527794 C101.036847,6.62697484 102.444729,5.86732007 104.37063,5.86732007 C106.296531,5.86732007 108.592995,7.0074605 110.073964,8.5280866 L112.629437,4.23215331 C110.889459,2.44426565 107.482589,1 104.518086,1" id="Fill-1" fill="#2C2C2C"></path>
                            <path d="M132,25.8138075 C131.810819,25.9625456 129.837558,28 124.866306,28 C119.742658,28 115,24.5918478 115,18.5192334 C115,12.40687 119.818856,9 124.94119,9 C129.723261,9 131.885703,10.9259009 131.885703,10.9259009 L130.55881,15.4072749 C130.026739,14.9995276 128.356955,13.7775678 125.73864,13.7775678 C123.158423,13.7775678 121.108964,15.5188285 121.108964,18.4076798 C121.108964,21.2965312 122.967929,23.1108787 125.814838,23.1108787 C128.660433,23.1108787 130.55881,21.3337158 130.55881,21.3337158 L132,25.8138075" id="Fill-2" fill="#2C2C2C"></path>
                            <path d="M136.500666,7 C134.423435,7 133,5.80750782 133,4.00062565 C133,2.23003128 134.423435,1 136.500666,1 C138.576565,1 140,2.23003128 140,4.00062565 C140,5.80750782 138.576565,7 136.500666,7 L136.500666,7 Z M133,9 L139,9 L139,28 L133,28 L133,9 Z" id="Fill-3" fill="#2C2C2C"></path>
                            <path d="M159.925631,19.8886489 L146.925159,19.8886489 C147.18545,22.518491 149.18572,23.7032663 151.592455,23.7032663 C153.963288,23.7032663 156.037927,22.6659468 157.073964,21.9620057 L159.407612,25.0367796 C158.815225,25.4804292 156.407207,28 150.741058,28 C145.110811,28 141,24.5174787 141,18.4807666 C141,12.4440545 145.444189,9 150.852612,9 C156.259752,9 160,12.5915103 160,17.9255635 C160,18.814145 159.925631,19.8886489 159.925631,19.8886489 L159.925631,19.8886489 Z M155,17 C154.961794,15.1811822 153.661436,13 151.019785,13 C148.419069,13 147.077776,15.1014341 147,17 L155,17 L155,17 Z" id="Fill-4" fill="#2C2C2C"></path>
                            <path d="M175.050215,28 L175.050215,18.2733103 C175.050215,15.8124828 174.678112,13.9583448 172.222747,13.9583448 C169.656652,13.9583448 168.949785,16.0771724 168.949785,18.7646897 L168.949785,28 L163,28 L163,9.33937931 L168.949785,9.33937931 L168.913734,12.0268966 L168.988412,12.0268966 C169.991416,10.3627586 171.665236,9 174.306009,9 C179.623605,9 181,12.4815862 181,16.9852414 L181,28 L175.050215,28 Z" id="Fill-5" fill="#2C2C2C"></path>
                            <path d="M200,25.8138075 C199.80952,25.9625456 197.836411,28 192.865544,28 C187.743606,28 183,24.5918478 183,18.5192334 C183,12.40687 187.818484,9 192.941736,9 C197.722123,9 199.885712,10.9259009 199.885712,10.9259009 L198.557608,15.4072749 C198.026891,14.9995276 196.355923,13.7775678 193.73781,13.7775678 C191.157793,13.7775678 189.109806,15.5188285 189.109806,18.4076798 C189.109806,21.2965312 190.968627,23.1108787 193.815316,23.1108787 C196.660691,23.1108787 198.557608,21.3337158 198.557608,21.3337158 L200,25.8138075" id="Fill-6" fill="#2C2C2C"></path>
                            <path d="M218.925631,19.8886489 L205.925159,19.8886489 C206.184168,22.518491 208.18572,23.7032663 210.592455,23.7032663 C212.962006,23.7032663 215.037927,22.6659468 216.073964,21.9620057 L218.407612,25.0367796 C217.815225,25.4804292 215.407207,28 209.741058,28 C204.110811,28 200,24.5174787 200,18.4807666 C200,12.4440545 204.444189,9 209.852612,9 C215.259752,9 219,12.5915103 219,17.9255635 C219,18.814145 218.925631,19.8886489 218.925631,19.8886489 L218.925631,19.8886489 Z M214,17 C213.96043,15.1811822 212.660072,13 210.019785,13 C207.419069,13 206.077776,15.1014341 206,17 L214,17 L214,17 Z" id="Fill-7" fill="#2C2C2C"></path>
                            <path d="M233.774826,26.410695 C232.394553,27.444639 230.513451,28 227.980073,28 C225.141149,28 222.148124,27.1490436 220,25.1912042 L222.302225,21.6798895 C223.836599,22.9352101 226.368648,23.896215 227.904351,23.896215 C229.438725,23.896215 230.513451,23.5276805 230.513451,22.3440194 C230.513451,21.1616379 227.751578,20.5691676 227.059449,20.3490706 C226.330123,20.1635237 225.256725,19.8679283 224.373298,19.4993939 C223.492527,19.1295797 221.150448,17.983028 221.150448,14.7301994 C221.150448,11.183055 224.373298,9 228.325473,9 C232.278977,9 234.502823,10.4050377 235.578877,11.2559941 L233.583527,14.7301994 C232.508801,13.9163524 230.359349,12.9553475 228.824975,12.9553475 C227.366323,12.9553475 226.561275,13.3251616 226.561275,14.2861665 C226.561275,15.2471713 228.019927,15.6912042 229.323148,16.0610183 C230.629027,16.4308324 231.204251,16.6163793 232.010628,16.910695 C232.854201,17.20757 233.813351,17.6874327 234.465626,18.2786234 C235.079376,18.8698141 236,20.0521956 236,21.9742053 C236,23.8603852 235.156426,25.3383621 233.774826,26.410695" id="Fill-8" fill="#2C2C2C"></path>
                            <path d="M10,17 L13.5,8 L17,17 L10,17 L10,17 Z M16.1754227,1 L9.82588567,1 L3.24740235e-14,27 L6.34953704,27 L8.20088567,21.769778 L17.4981884,21.769778 L19.349537,27 L26,27 L16.1754227,1 L16.1754227,1 Z" id="Clip-22" fill="#2C2C2C"></path>
                            <path d="M38.675642,13.9044138 L38.4236407,13.9044138 C38.0992827,13.7144138 37.3432789,13.4497241 36.3327789,13.4497241 C35.0365942,13.4497241 34.0996985,14.2071034 33.6668053,14.8124828 C33.2351596,15.4178621 32.766088,16.629931 32.766088,18.712069 L32.766088,27 L27,27 L27,8.34068966 L32.766088,8.34068966 L32.7299096,10.9902069 L32.8022663,10.9902069 C33.8102713,8.94606897 35.2885955,8 37.1973178,8 C38.3862148,8 39,8.34068966 39,8.34068966 L38.675642,13.9044138" id="Fill-24" fill="#2C2C2C"></path>
                            <path d="M52,12.6078261 L47.8330109,12.6078261 L47.8330109,19.2756522 C47.8330109,20.8578261 48.06201,21.2347826 48.3677833,21.573913 C48.6351695,21.8765217 49.0177171,22.0265217 49.8211995,22.0265217 C50.7769066,22.0265217 51.6558395,21.6873913 51.6558395,21.6873913 L51.9616129,26.396087 C51.502291,26.5095652 49.8211995,27 47.6026881,27 C45.4238876,27 43.9704714,26.3595652 43.0147643,25.2665217 C42.0577334,24.1734783 41.6765095,22.6304348 41.6765095,19.803913 L41.6765095,12.6078261 L39,12.6078261 L39,8.04913043 L41.6765095,8.04913043 L41.6765095,3 L47.8330109,3 L47.8330109,8.04913043 L52,8.04913043 L52,12.6078261" id="Fill-25" fill="#2C2C2C"></path>
                            <path d="M65.773682,25.410588 C64.3935243,26.4458813 62.5125778,27 59.9807389,27 C57.1407223,27 54.1479452,26.1489863 52,24.191015 L54.3033624,20.6794639 C55.837609,21.934869 58.3694479,22.8959386 59.9036945,22.8959386 C61.4392694,22.8959386 62.5125778,22.5273793 62.5125778,21.3436384 C62.5125778,20.1624571 59.750934,19.5699468 59.060191,19.3485553 C58.3309257,19.1629959 57.2562889,18.8673806 56.3742632,18.4988213 C55.4922374,18.1289823 53.1503528,16.9823533 53.1503528,13.7293056 C53.1503528,10.1819223 56.3742632,8 60.3261104,8 C64.2779577,8 66.5029473,9.40385263 67.5789124,10.2548663 L65.5837277,13.7293056 C64.5077626,12.9154038 62.3598174,11.9543342 60.8255708,11.9543342 C59.3670403,11.9543342 58.5620589,12.325453 58.5620589,13.2865225 C58.5620589,14.2463124 60.0192611,14.6903752 61.3237028,15.0602142 C62.6281445,15.4300532 63.2046492,15.6156126 64.0096306,15.9099481 C64.8544624,16.2068431 65.8135326,16.6867381 66.4657534,17.2792483 C67.0794521,17.8704789 68,19.0516603 68,20.9737994 C68,22.8601064 67.1551681,24.3381828 65.773682,25.410588" id="Fill-26" fill="#2C2C2C"></path>
                            <path d="M96,26.5463613 L89.0512783,26.5463613 L86.4822777,23.7513194 C83.8400639,25.9044691 81.5364614,27 78.1385822,27 C73.3038931,27 69,24.5069481 69,19.3338982 C69,15.5962814 71.9063045,13.2914831 75.267577,11.8573573 C74.0216444,10.4598363 72.5874492,8.76163269 72.5874492,6.23066867 C72.5874492,2.03941316 76.401075,7.35522754e-14 80.5925334,7.35522754e-14 C84.7460779,7.35522754e-14 88.295613,2.03941316 88.295613,6.08032731 C88.295613,9.10022757 85.9174898,11.4037186 83.3864033,12.7633274 L86.8235038,16.6539002 C87.6536897,15.7845349 89.467025,13.2169661 90.1455549,11.9331816 L94.4141488,14.2732775 C93.5447414,15.6721057 91.4686229,18.692006 90.0710343,20.0882196 L96,26.2443713 L96,26.5463613 L96,26.5463613 Z M78.3671679,15 L77.6428571,15.4425887 C76.4849624,16.1663187 75,17.2922756 75,19.4231037 C75,21.5929019 76.6290727,23 78.5112782,23 C80.3571429,23 82.0588972,21.8350731 83,20.6687543 L78.3671679,15 L78.3671679,15 Z M80.5386835,4 C79.0228167,4 78,4.91355194 78,6.42421463 C78,7.61568448 78.833989,8.49071314 79.2496722,9.00802568 L80.121689,10 C81.2572777,9.24604449 83,8.09309791 83,6.34441642 C83,4.83512956 82.0152111,4 80.5386835,4 L80.5386835,4 Z" id="Fill-27" fill="#E44444"></path>
                        </g>
                        <g id="The-College-of" transform="translate(0.000000, -0.000000)" fill="#767676">
                            <path d="M11,2.20674588 L6.14023486,2.20674588 L6.14023486,18 L4.85976514,18 L4.85976514,2.20674588 L-1.94511074e-13,2.20674588 L-1.94511074e-13,1 L11,1 L11,2.20674588" id="Fill-9"></path>
                            <path d="M22,18 L20.6966325,18 L20.6966325,11.2234573 C20.6966325,9.37684937 20.376644,7.47811422 17.9181963,7.47811422 C15.4584478,7.47811422 14.2773522,9.62315063 14.2773522,12.3324645 L14.2773522,18 L13,18 L13,1 L14.2773522,1 L14.2773522,8.68616328 C14.8444862,7.33085473 16.3182541,6.37041012 17.9663246,6.37041012 C21.2377511,6.37041012 22,8.46462246 22,11.1739364 L22,18" id="Fill-10"></path>
                            <path d="M35.9237597,12.2726076 L26.3910506,12.2726076 C26.5167802,15.0131694 28.0843872,16.8292362 30.7407588,16.8292362 C33.3957928,16.8292362 34.8630837,15.3371378 34.8630837,15.3371378 L35.4944066,16.2576822 C35.4944066,16.2576822 34.0284533,18 30.6136916,18 C27.2002675,18 25,15.5096576 25,11.9749781 C25,8.41527656 27.5787938,6 30.6885944,6 C33.7743191,6 36,8.29016681 36,11.4021071 C36,11.7761194 35.9237597,12.2726076 35.9237597,12.2726076 L35.9237597,12.2726076 Z M34,11 C34,9.51827676 32.8919271,7 30.0611979,7 C27.2304687,7 26.0729167,9.39425587 26,11 L34,11 L34,11 Z" id="Fill-11"></path>
                            <path d="M56,15.2948518 C54.7565789,16.685536 52.7657895,18 49.6565789,18 C44.6815789,18 41,14.3106753 41,9.0006686 C41,3.69066191 44.8052632,4.36983782e-13 49.6565789,4.36983782e-13 C52.6407895,4.36983782e-13 54.6315789,1.26498774 55.875,2.52863829 L55.0039474,3.53955873 C54.1342105,2.40160464 52.1434211,1.23824382 49.6565789,1.23824382 C45.4276316,1.23824382 42.4421053,4.39803878 42.4421053,8.94985514 C42.4421053,13.5003343 45.4276316,16.7096055 49.6565789,16.7096055 C52.0197368,16.7096055 53.8855263,15.8016492 55.1289474,14.410965 L56,15.2948518" id="Fill-12"></path>
                            <path d="M62.9886427,18 C59.653602,18 57,15.5096576 57,12.0250219 C57,8.53906936 59.653602,6 62.9886427,6 C66.3477341,6 69,8.53906936 69,12.0250219 C69,15.5096576 66.3477341,18 62.9886427,18 L62.9886427,18 Z M62.4882609,7 C59.7256522,7 58,9.23246982 58,12.0006782 C58,14.7444731 59.7256522,17 62.4882609,17 C65.2730435,17 67,14.7444731 67,12.0006782 C67,9.23246982 65.2730435,7 62.4882609,7 L62.4882609,7 Z" id="Fill-13"></path>
                            <path d="M71,1 L71.982,1 L71.982,18 L71,18 L71,1 Z" id="Fill-14"></path>
                            <path d="M76,1 L76.983,1 L76.983,18 L76,18 L76,1 Z" id="Fill-15"></path>
                            <path d="M89.923769,12.2726076 L80.3895441,12.2726076 C80.5179331,15.0131694 82.0853495,16.8292362 84.7387234,16.8292362 C87.394772,16.8292362 88.8605471,15.3371378 88.8605471,15.3371378 L89.4931307,16.2576822 C89.4931307,16.2576822 88.0273556,18 84.6130091,18 C81.2,18 79,15.5096576 79,11.9749781 C79,8.41527656 81.5784802,6 84.6892401,6 C87.7745897,6 90,8.29016681 90,11.4021071 C90,11.7761194 89.923769,12.2726076 89.923769,12.2726076 L89.923769,12.2726076 Z M88,11 C88,9.51827676 86.8908055,7 84.060537,7 C81.2315704,7 80.0742067,9.39425587 80,11 L88,11 L88,11 Z" id="Fill-16"></path>
                            <path d="M102,15.410547 C102,18.0652499 101.685385,19.456828 101.081735,20.4697363 C100.476805,21.4813066 99.148006,23 96.2448552,23 C93.3455412,23 91.5320312,21.228414 91.5320312,21.228414 L92.2559005,20.2168438 C92.8608301,20.8484061 94.5541216,21.8104683 96.3676317,21.8104683 C98.1811417,21.8104683 99.2682246,20.9741834 99.7529357,20.2931129 C100.236368,19.5839433 100.7198,18.3194805 100.7198,16.295002 L100.7198,15.4359701 C99.8974538,16.9519874 98.4957563,17.9408107 96.4878502,17.9408107 C93.5373794,17.9408107 91,15.6380165 91,11.9690673 C91,8.30145612 93.5373794,6 96.4878502,6 C98.4957563,6 99.9703523,7.03699331 100.7198,8.42723337 L100.7198,6.20070838 L102,6.20070838 L102,15.410547 L102,15.410547 Z M96.0006045,7 C93.3722231,7 92,9.21602009 92,11.9874407 C92,14.7574658 93.3722231,17 96.0006045,17 C98.6277769,17 100,14.7574658 100,11.9874407 C100,9.21602009 98.6277769,7 96.0006045,7 L96.0006045,7 Z" id="Fill-17"></path>
                            <path d="M115.923769,12.2726076 L106.389544,12.2726076 C106.517933,15.0131694 108.08535,16.8292362 110.738723,16.8292362 C113.396109,16.8292362 114.860547,15.3371378 114.860547,15.3371378 L115.493131,16.2576822 C115.493131,16.2576822 114.027356,18 110.614347,18 C107.2,18 105,15.5096576 105,11.9749781 C105,8.41527656 107.57848,6 110.68924,6 C113.77459,6 116,8.29016681 116,11.4021071 C116,11.7761194 115.923769,12.2726076 115.923769,12.2726076 L115.923769,12.2726076 Z M114,11 C114,9.51827676 112.890625,7 110.061198,7 C107.230469,7 106.072917,9.39425587 106,11 L114,11 L114,11 Z" id="Fill-18"></path>
                            <path d="M126.98931,18 C123.653898,18 121,15.5096576 121,12.0250219 C121,8.53906936 123.653898,6 126.98931,6 C130.348775,6 133,8.53906936 133,12.0250219 C133,15.5096576 130.348775,18 126.98931,18 L126.98931,18 Z M126.488261,7 C123.724348,7 122,9.23246982 122,12.0006782 C122,14.7444731 123.724348,17 126.488261,17 C129.273043,17 131,14.7444731 131,12.0006782 C131,9.23246982 129.273043,7 126.488261,7 L126.488261,7 Z" id="Fill-19"></path>
                            <path d="M139.882832,1.33456743 C139.882832,1.33456743 139.305533,1.09308651 138.729455,1.09308651 C136.998779,1.09308651 136.815704,2.54967888 136.815704,4.12829618 L136.815704,5.78012845 L139.537429,5.78012845 L139.537429,6.92202493 L136.815704,6.92202493 L136.815704,17 L135.613507,17 L135.613507,6.92202493 L134,6.92202493 L134,5.78012845 L135.613507,5.78012845 L135.613507,4.25032112 C135.613507,2.67170382 135.893002,1.8213827 136.238405,1.28704193 C136.583808,0.728296184 137.344182,4.36983782e-13 138.497559,4.36983782e-13 C139.652156,4.36983782e-13 140,0.244049868 140,0.244049868 L139.882832,1.33456743" id="Fill-20"></path>
                        </g>
                    </g>
                    <path d="M129.5,0.5 L129.5,100.5" id="Line-2" stroke="#E3E3E3" stroke-linecap="square"></path>
                    <g id="Insignia-2" transform="translate(0.000000, 1.000000)" fill="#2C2C2C">
                        <path d="M38.6272153,75.9056223 C44.2853212,80.3638462 49.8602876,82.7214572 50.0958496,82.8184086 L50.5269434,83 L50.9611164,82.8153307 C51.1935991,82.7122237 56.7485505,80.3238345 62.3897206,75.911778 C69.9831297,69.9731221 74,63.2126881 74,56.3537637 L73.9953811,25 L27.0030792,25.0046167 L27,55.8105283 C27,62.9541511 31.0199496,69.8992544 38.6272153,75.9056223 L38.6272153,75.9056223 Z M50,65.7834851 C49.7486124,65.7013527 49.4682184,65.6405139 49.1185318,65.6405139 L49.0621307,65.6405139 C47.8664279,65.6405139 46.9704566,65.7180834 46.0196956,65.7971739 C45.0834378,65.8808272 44.1117278,65.9629596 42.6855864,65.9918581 C42.0329454,66.0055468 41.4431513,65.9994629 41,65.9918581 L41,51.4209634 L41.2030439,51.4209634 C41.7944494,51.4255263 42.5212175,51.4209634 43.434915,51.4042328 C44.2051925,51.3844601 45.0544315,51.2977648 46.0358102,51.2004228 C46.5756491,51.1441469 47.1493286,51.087871 47.7939123,51.033116 C48.813966,50.9296901 49.7582811,51.1015597 49.7582811,51.1015597 L50,51.1760872 L50,65.7834851 L50,65.7834851 Z M71,56.0613426 C71,68.9634065 55.5493627,77.707606 51,80 L51,68.262695 L51.2292782,68.0182967 C51.457048,67.7476024 51.6003469,67.5867327 52.0347688,67.583639 C53.0876386,67.5991073 53.8795535,67.6532461 54.7800739,67.7367746 C55.6428841,67.8156627 56.6188249,67.910019 58.0065616,67.9394087 C59.3777057,67.9765325 60.4456596,67.9146595 60.487895,67.910019 L61.261709,67.8667079 L61.261709,63.483007 L63.0733087,63.483007 L63.0733087,61.1457551 L61.261709,61.1457551 L61.261709,56.8997216 L63.0733087,56.8997216 L63.0733087,54.5640164 L61.2586922,54.5640164 L61.2586922,49.7951562 L60.4622521,49.7765943 C60.1696206,49.7673134 59.8332453,49.7673134 59.4365337,49.770407 C58.881439,49.7626729 58.2222641,49.770407 57.3866053,49.7487515 C56.7334641,49.7348301 55.9702089,49.6528484 55.086281,49.5553984 C54.5734218,49.4981659 54.0228524,49.4378397 53.44664,49.3867945 C52.2112527,49.2382994 51.1176559,49.4703231 51.0543027,49.4873381 L51,49.5028064 L51,45 L70.9984916,45 L71,56.0613426 L71,56.0613426 Z M51,65.8545893 L51,51.249021 C51.1117328,51.1988405 51.2423501,51.1471394 51.4217521,51.1091239 C51.4343417,51.104562 52.3565309,50.9236081 53.3825844,51.0376547 C53.9916069,51.0893558 54.5565658,51.1456188 55.0853296,51.204923 C56.0421402,51.2992015 56.8699073,51.385877 57.6221367,51.405645 C58.380661,51.4223719 59.0101416,51.4223719 59.5420528,51.4223719 L59.9968526,51.4223719 L60,65.9899246 C59.567232,65.9975277 58.9928309,66.0081721 58.3523343,65.9899246 C56.9596083,65.9610328 56.0138136,65.8789193 55.0979192,65.7968057 C54.159993,65.7131715 53.3180626,65.6356199 52.0748383,65.6386611 C51.6357755,65.6386611 51.2927085,65.7298984 51,65.8545893 L51,65.8545893 Z M29.0015559,27.0061949 L71.9984441,27 L72,43 L29,43 L29.0015559,27.0061949 L29.0015559,27.0061949 Z M29,45 L49,45 L49,49.4725411 C48.6728047,49.4135898 47.7581799,49.2786224 46.7522447,49.396525 C46.1556841,49.4508222 45.6032567,49.5113249 45.0858317,49.5687248 C44.1909907,49.6664598 43.4209405,49.7486814 42.7604626,49.7626435 C41.9173642,49.7843624 41.2447116,49.7843624 40.6922843,49.7843624 C40.2935626,49.7843624 39.9526708,49.7843624 39.6543905,49.7905678 L38.849338,49.809184 L38.849338,54.1265901 L36.8724699,54.1265901 L36.8724699,56.4753335 L38.849338,56.4753335 L38.849338,60.7927397 L36.8724699,60.7927397 L36.8724699,63.132175 L38.849338,63.132175 L38.849338,67.9336022 L39.6285193,67.97704 C39.6726526,67.9816941 40.7455486,68.0375427 42.1334652,68.0065157 C43.5335565,67.97704 44.518186,67.8824077 45.3886775,67.8032889 C46.2850403,67.7226187 47.0596561,67.6497052 48.1142901,67.6497052 C48.5297519,67.6434998 48.6667174,67.7769159 48.8919495,68.0639156 L49,68.1895749 L49,80 C44.1499011,77.5690351 29,68.9000931 29,55.5460751 L29,45 L29,45 Z" id="Fill-28"></path>
                        <path d="M46.9923222,29 L35.0020285,29 L35.0020285,29.8311627 C34.9989189,32.4246981 34.9973642,36.8083116 35.0129118,37.0084063 C35.0704378,37.9072934 35.6690196,38.7199858 36.8459715,39.4941984 C38.2934512,40.4561923 40.4514553,41.7075539 40.5416312,41.7614255 L40.9536421,42 L41.3687625,41.773739 C41.4667122,41.7229458 43.7957397,40.4638882 45.2494385,39.4941984 C46.9503437,38.373668 46.9798841,37.3485674 46.9923222,37.0084063 C47.0047602,36.8252427 47.000096,33.0034336 46.9923222,29.8311627 L46.9923222,29 L46.9923222,29 Z M37.0032444,31 L45.9983778,31 C45.9983778,31.6424501 46,32.3304843 46,33 L37,33 C37,32.3319088 37,31.6424501 37.0032444,31 L37.0032444,31 Z M45.9951334,36.6479339 C45.9821557,37.0942149 45.4224946,37.5652893 44.9552992,37.8809917 C43.8781543,38.6198347 42.2510815,39.5619835 41.4805335,40 C40.7472963,39.553719 39.2256669,38.6198347 38.1468998,37.8809917 C37.4428623,37.4033058 37.0259553,36.9322314 37.0032444,36.5818182 C37,36.4512397 37,35.3884298 37,34 L46,34 C46,35.3983471 45.9983778,36.4793388 45.9951334,36.6479339 L45.9951334,36.6479339 Z" id="Fill-29"></path>
                        <path d="M66.9912161,29 L55.0007198,29 L55.0007198,29.8140989 C54.9991991,32.9997685 54.9991991,36.8294942 55.0098438,37.0281283 C55.0782741,37.9129529 55.675898,38.7240421 56.8483359,39.4945017 C58.2944947,40.4590809 60.4584105,41.7140873 60.5481301,41.7667554 L60.9495875,42 L61.3586481,41.777289 C61.4544505,41.7276305 63.7947642,40.4696145 65.2561297,39.4945017 C66.9608026,38.3704132 66.9866541,37.3486515 66.9912161,37.0115754 C67.0049021,36.8294942 67.0003401,32.9967589 66.9927367,29.8125941 L66.9912161,29 L66.9912161,29 Z M65.9968526,37.6687898 C65.9858367,38.1146497 65.4240252,38.5828025 64.9566358,38.9076433 C63.8755027,39.6353503 62.2404266,40.5700637 61.4771813,41 C60.7532785,40.5652866 59.2346564,39.6353503 58.1519496,38.9076433 C57.8198986,38.6799363 57.0393425,38.0987261 57.0062948,37.593949 C57.0031474,37.5477707 57.0031474,37.3853503 57,37.1401274 L61.3009267,34 L66,37.1687898 C66,37.433121 65.9984263,37.6098726 65.9968526,37.6687898 L65.9968526,37.6687898 Z M61.2645646,31.9069946 L57.0023583,34.9185242 C56.9992139,33.7225211 56.9992139,32.2774789 57.0023583,31 L65.9937112,31 C65.9968556,32.3020753 66,33.7794005 66,35 L61.2645646,31.9069946 L61.2645646,31.9069946 Z" id="Fill-30"></path>
                        <path d="M53.442055,55.7236378 L54.2111708,55.807336 C54.733871,55.8705045 55.1863799,55.9163017 55.5806452,55.9289354 L57.9641577,56 L58,54.2849749 L55.6224612,54.2139103 C55.2640382,54.2091726 54.8608124,54.1602171 54.3844086,54.108103 L53.598865,54.0228255 C53.3853047,53.9991373 53.1866786,53.9959789 53,54.003875 L53.0701912,55.7110041 C53.1836918,55.7062664 53.3061529,55.7110041 53.442055,55.7236378" id="Fill-31"></path>
                        <path d="M55.6087609,58.219789 C55.269727,58.2102776 54.8781878,58.164306 54.4311431,58.115164 C54.1641164,58.080289 53.8775878,58.0517548 53.5865587,58.024806 C53.3780378,58.0010276 53.180018,57.9978571 53,58.0010276 L53.0270027,59.7194147 C53.1425143,59.7162442 53.2715272,59.7194147 53.4230423,59.7352669 C53.7230723,59.763801 54.0006001,59.7955056 54.2586259,59.8224545 C54.7566757,59.8795227 55.1917192,59.9254943 55.5712571,59.9381761 C56.0693069,59.944517 56.7983798,59.9698807 57.3384338,59.9809773 L57.9654965,60 L58,58.2847834 L57.3789379,58.2657606 C56.8373837,58.2514936 56.1068107,58.2277152 55.6087609,58.219789" id="Fill-32"></path>
                        <path d="M55.619119,63.225324 C55.270003,63.2126703 54.8744381,63.1683825 54.4219359,63.1130227 C54.1552292,63.084552 53.8780342,63.0544995 53.5993407,63.0260288 C53.3835781,63.0023032 53.1842973,62.9959764 53,63.0023032 L53.050944,64.7121292 C53.1603236,64.7121292 53.2861852,64.7121292 53.434522,64.7311097 C53.7192089,64.7595804 53.9919089,64.7927963 54.243632,64.8165219 C54.7515733,64.8797902 55.1905904,64.9224963 55.5771651,64.93515 L56.2514234,64.9541305 C56.9376686,64.973111 57.7033263,64.9936732 57.9715313,65 L58,63.2822655 C57.731795,63.2759386 56.973629,63.2601215 56.2948756,63.2395593 L55.619119,63.225324" id="Fill-33"></path>
                        <path d="M45.438914,54.9337539 C45.8355958,54.9242902 46.2926094,54.873817 46.8205128,54.8107256 C47.0678733,54.785489 47.3273002,54.7570978 47.6033183,54.7255521 L47.974359,54.7129338 L48,53 C47.8340875,53 47.6455505,53.0078864 47.4524887,53.0268139 C47.1628959,53.0536278 46.8959276,53.0867508 46.6455505,53.115142 C46.1719457,53.1671924 45.7662142,53.2176656 45.4012066,53.2239748 L43,53.285489 L43.0377074,55 L45.438914,54.9337539" id="Fill-34"></path>
                        <path d="M46.6310417,58.1048779 C46.1597118,58.1601984 45.7499249,58.2091966 45.3926749,58.2170995 L43,58.2850647 L43.0390273,60 L45.4302011,59.9336154 C45.8294806,59.9225513 46.2812969,59.870392 46.8081657,59.8103297 L47.5706995,59.7265587 L47.9264485,59.7154946 L48,58.0037204 C47.8318823,57.9942369 47.6367457,58.0037204 47.4326028,58.0226875 L46.6310417,58.1048779" id="Fill-35"></path>
                        <path d="M46.647343,63.1085202 C46.1733092,63.1606662 45.7626812,63.2128123 45.3218599,63.219133 C44.5625,63.2412556 43.3547705,63.27918 43,63.2886611 L43.0301932,65 C43.3864734,64.9905189 44.6002415,64.9557549 45.4411232,64.9352125 C45.8381643,64.9241512 46.2940821,64.8704249 46.8269928,64.8087978 L47.6195652,64.7282084 L47.9728261,64.7139868 L48,63.0010677 C47.8263889,62.9979073 47.6346618,63.0010677 47.4535024,63.0200299 L46.647343,63.1085202" id="Fill-36"></path>
                        <path d="M7.68217362,50 C9.64691449,50 10.8486351,48.6332107 10.9934208,46.2590646 C11.0151386,45.792433 10.9847336,45.2769312 10.8775923,44.6416185 L10.839948,44.4319496 L9.21979691,44.416185 L9.37326967,44.7803468 C9.48909817,45.0593799 9.55714741,45.6568576 9.531086,46.1565949 C9.45724533,47.3925381 8.60301017,48.1460851 7.40128952,48.056227 C6.17929888,47.9726747 5.40180009,47.1103521 5.46984934,45.9043615 C5.49156718,45.5133999 5.55527285,45.0814503 5.85208337,44.5974777 L6.05333539,44.2569627 L4.45634999,44 L4.38106147,44.1749869 C4.17980946,44.6463479 4.04081526,45.2469785 4.01041028,45.7766684 C3.87141608,48.2580137 5.13105098,49.8360483 7.38246738,49.9889648 L7.68217362,50" id="Fill-37"></path>
                        <path d="M7.58992695,41.8058084 C8.02222167,41.9332466 8.44298852,42 8.84069967,42 C10.3249115,42 11.4214991,41.0882098 11.8494709,39.4982661 C12.1059658,38.5485479 12.0339166,37.6504118 11.6390875,36.9070221 C11.2082337,36.0847421 10.4243393,35.497616 9.37962708,35.186606 C8.96174219,35.0606849 8.55826712,35 8.1749658,35 C6.68210804,35 5.58263848,35.908756 5.15754867,37.4971825 C4.60277045,39.5392284 5.53652704,41.1868227 7.58992695,41.8058084 L7.58992695,41.8058084 Z M6.05917631,37.9715987 C6.29332967,37.1676592 7.00728196,37 7.56321663,37 C7.827537,37 8.11340522,37.0426019 8.39352734,37.1168117 C9.07300306,37.3037105 9.60595336,37.6431516 9.84441629,38.0540541 C10.0124896,38.3426477 10.0440931,38.6669721 9.94066338,39.0284013 C9.6993274,39.8337151 8.9968673,40 8.45098829,40 C8.17373921,40 7.8763788,39.9587723 7.56608968,39.8735685 C6.68119107,39.6330738 5.75463328,38.9912964 6.05917631,37.9715987 L6.05917631,37.9715987 Z" id="Fill-38"></path>
                        <path d="M15.2395333,32.4195489 L12.7748799,31.1353383 L12.8536376,30.9879699 C13.0868222,30.5593985 13.2644132,30.5954887 13.6458476,30.6421053 L16.0502745,30.9383459 L17,29.193985 L13.8033631,28.8691729 C13.5917982,28.8541353 13.3586136,28.8601504 13.1794784,28.9037594 C13.205731,28.2390977 12.8520933,27.6165414 12.2065889,27.281203 C11.8452299,27.0947368 11.4946809,27 11.1719286,27 C10.0060055,27 9.38366507,28.1458647 8.83544955,29.1593985 L8,30.6887218 L14.3793754,34 L15.2395333,32.4195489 L15.2395333,32.4195489 Z M11.618,30.7930763 L11.498,31 L10,30.2172036 L10.114,30.012232 C10.49,29.3328975 10.894,28.7667855 11.536,29.0966922 C11.762,29.2196751 11.894,29.3563229 11.954,29.5320128 C12.07,29.9009617 11.814,30.4280316 11.618,30.7930763 L11.618,30.7930763 Z" id="Fill-39"></path>
                        <path d="M19.4342951,25.6678973 L16.2854081,23.0067125 L20.7549876,24.0427924 L22,22.5173687 L16.6519373,18 L15.5657049,19.3426749 L18.7160758,22.0023494 L14.252432,20.949656 L13,22.4901829 L18.3465787,27 L19.4342951,25.6678973" id="Fill-40"></path>
                        <path d="M27,18.3338238 L26.0144816,17.1787751 L23.9986484,18.7428729 L23.1212589,17.7158359 L24.962541,16.2929925 L23.9677544,15.1394151 L22.1341958,16.56373 L21.4066422,15.7073754 L23.4101178,14.1550487 L22.4230546,13 L19,15.6573478 L23.5614984,21 L27,18.3338238" id="Fill-41"></path>
                        <path d="M33,14.9034542 L32.2672378,13.5728384 L30.1479315,14.7983265 L27.5152528,10 L26,10.8800687 L29.3552027,17 L33,14.9034542" id="Fill-42"></path>
                        <path d="M40,12.5830904 L39.432344,11.1997085 L36.8738023,12.0247813 L34.828932,7 L33,7.58892128 L35.6043468,14 L40,12.5830904" id="Fill-43"></path>
                        <path d="M46.9669058,12 C47.103908,12 47.2453295,11.9918583 47.3882242,11.975575 C48.3413463,11.8860167 49.0440346,11.5570934 49.4786111,10.9936902 C49.885198,10.454712 50.0560824,9.71056381 49.9838985,8.782414 L49.6273984,4 L47.8846726,4.15631997 L48.2087637,8.50559739 C48.3251418,10.0411154 47.7697677,10.288622 47.271846,10.3407287 L47.1422096,10.3456137 C46.7341496,10.3456137 46.1758292,10.1746387 46.0653436,8.70262569 L45.7441989,4.35497659 L44,4.51455323 L44.3594464,9.29696723 C44.4905559,11.0637085 45.3891719,12 46.9669058,12" id="Fill-44"></path>
                        <path d="M55.3721348,7.19162141 L56.9608989,11.7269201 L59.0121348,12 L60,4.80217223 L58.2083146,4.56322731 L57.6278652,8.80993018 L56.0391011,4.2746315 L53.9847191,4 L53,11.1993794 L54.7916854,11.4398759 L55.3721348,7.19162141" id="Fill-45"></path>
                        <path d="M65,6.5194859 L63.2131018,6 L61,12.4877695 L62.7868982,13 L65,6.5194859" id="Fill-46"></path>
                        <path d="M74,9.92130729 L72.3929493,9.13693628 L68.9952709,12.4920577 L69.7491402,7.84279715 L68.0457868,7 L67,14.1528209 L68.733448,15 L74,9.92130729" id="Fill-47"></path>
                        <path d="M75.5231788,20 L76.4955201,18.8372434 L74.4230619,17.3123167 L75.2863265,16.2697947 L77.1655629,17.6568915 L78.1347877,16.4882698 L76.253993,15.101173 L76.9723413,14.2375367 L79.0261005,15.7478006 L80,14.5835777 L76.4908453,12 L72,17.4046921 L75.5231788,20" id="Fill-48"></path>
                        <path d="M79.2197891,24.1653177 L81.3288138,22.3163423 L81.443654,22.4527295 C81.7152356,22.7611503 81.722995,22.891338 81.4995222,23.3237472 L80.3588797,25.4702945 L81.7043723,27 L83.1569456,24.1079731 C83.2081581,24.0025831 83.3105832,23.7778543 83.3462767,23.5190288 C83.9670346,23.7902531 84.7150477,23.6678147 85.2566589,23.1966592 C86.8209686,21.8234889 85.5701416,20.3976236 84.6576276,19.3592216 L83.4626688,18 L78,22.785948 L79.2197891,24.1653177 L79.2197891,24.1653177 Z M84.2187798,20 L84.3761655,20.1756757 C84.6947757,20.5501931 85.0287405,20.969112 84.9980311,21.3166023 L84.7350818,21.7760618 L84.2360538,22 C83.8502668,22 83.4548832,21.6023166 83.1516277,21.2567568 L83,21.0810811 L84.2187798,20 L84.2187798,20 Z" id="Fill-49"></path>
                        <path d="M85.008978,29.166299 C84.6590258,29.365454 84.2189112,29.0261529 84.0187202,28.7016041 C83.7956065,28.335749 83.6672397,27.8754797 83.6504298,27.3798051 L83.6382044,27.0198509 L82,27.7486106 L82.1161414,28.1026639 C82.278128,28.6352191 82.3789876,28.9582927 82.7258835,29.5262532 C83.3081184,30.474821 84.0813754,31 84.9035339,31 C85.2840497,31 85.66915,30.8908336 86.0511939,30.6651246 C87.3195798,29.9452162 87.1209169,28.7974935 86.9772684,27.9580922 C86.8748806,27.3650529 86.8290353,26.9977226 87.0827125,26.8516756 L87.4418338,26.7469349 C87.7688634,26.7469349 87.9873926,27.0478802 88.0683859,27.1747493 C88.2746896,27.5140503 88.4122254,27.9182612 88.4687679,28.3327986 L88.5115568,28.6529217 L90,28.0023488 L89.9602674,27.8135204 C89.8563515,27.3252219 89.6515759,26.8369234 89.3367717,26.3191205 C88.5574021,25.0548552 87.2767908,24.6447435 86.0848138,25.3277713 C84.860745,26.0255513 85.0380134,27.1481953 85.1709647,27.963993 C85.277937,28.6130907 85.3222541,28.9892724 85.008978,29.166299" id="Fill-50"></path>
                        <path d="M86.6546025,36 L93,33.5305197 L92.3439331,32 L86,34.4666899 L86.6546025,36" id="Fill-51"></path>
                        <path d="M93.5650137,38.2757528 L88,39.6640254 L88.4420148,41.4944532 L94.0070285,40.0998415 L94.467786,42 L96,41.6164818 L94.638032,36 L93.0995705,36.3787639 L93.5650137,38.2757528" id="Fill-52"></path>
                        <path d="M89,47.0097066 L89.0970813,48.8411648 L91.7602981,48.682109 L96,51 L95.9014697,49.0125745 L93.4251708,47.7030664 L95.7493273,46.1480256 L95.6392051,44 L91.6632167,46.852195 L89,47.0097066" id="Fill-53"></path>
                        <path d="M8.92165811,63 L10.398745,62.5763221 L9.7796159,60.4549279 L10.8703176,60.1439303 L11.5244343,62.375 L13,61.9513221 L11.8469291,58 L5,59.9471154 L5.51112379,61.6703726 L8.3010078,60.8725962 L8.92165811,63" id="Fill-54"></path>
                        <path d="M15.8298973,69.5011611 C16.1278908,68.7031877 16.0345632,67.8165506 15.5482771,66.9328689 C14.8704238,65.685666 13.7455803,65 12.3980603,65 C11.7464042,65 11.0636389,65.1566392 10.3694123,65.4640068 C9.24784341,65.9605235 8.48648643,66.671311 8.17048234,67.5195271 C7.8692142,68.3101119 7.96909114,69.196749 8.45537722,70.0819084 C9.12995588,71.3172894 10.2580741,72 11.6367033,72 C12.2949087,72 12.9825859,71.8433608 13.6702632,71.5404264 C14.7607229,71.0542537 15.5057066,70.350855 15.8298973,69.5011611 L15.8298973,69.5011611 Z M12.6992872,69.7113402 C12.2624479,69.9020619 11.8343746,70 11.4530533,70 C10.8569649,70 10.4274305,69.7603093 10.1629894,69.2925258 C9.98620823,68.9716495 9.95114421,68.6610825 10.0680243,68.3634021 C10.2287344,67.9484536 10.6933327,67.5502577 11.3420172,67.2693299 C11.7452535,67.0953608 12.1616388,67 12.5400381,67 C13.1463535,67 13.5875758,67.2358247 13.84179,67.6997423 C14.0185711,68.0167526 14.0463301,68.3286082 13.9294501,68.6301546 C13.7672789,69.0515464 13.3172906,69.4484536 12.6992872,69.7113402 L12.6992872,69.7113402 Z" id="Fill-55"></path>
                        <path d="M19.9089399,75.1376078 L16.8449037,77.6392951 C16.0185646,78.3157105 15.4276956,78.3772028 14.9509052,77.7622797 C14.7563864,77.5103112 14.6744838,77.2673416 14.7051973,77.0228721 C14.7461486,76.6749156 15.0152573,76.2999625 15.5066731,75.8980127 L18.5677842,73.4023247 L17.4781866,72 L14.105553,74.7446569 C13.4049929,75.3175853 13.0291183,75.9565054 13.0027925,76.6539183 C12.9691539,77.2973378 13.2397251,77.9932508 13.7984181,78.7071616 C14.4624145,79.5665542 15.1746749,80 15.923499,80 C16.4792669,80 17.0496603,79.7630296 17.6244413,79.2935883 L21,76.5414323 L19.9089399,75.1376078" id="Fill-56"></path>
                        <path d="M26.65301,80.5598094 L24.0192308,83.7185343 L25.0230769,79.2451528 L23.4653846,78 L19,83.3547486 L20.3545151,84.4313178 L22.9882943,81.2696352 L21.9979933,85.7607624 L23.5346154,87 L28,81.6437726 L26.65301,80.5598094" id="Fill-57"></path>
                        <path d="M32.337248,83.9273807 L30.3937936,83 L27,89.4119563 L28.9434544,90.3378042 C29.8797289,90.7853995 30.6951418,91 31.4444837,91 C32.7481774,91 33.7730837,90.3209427 34.4853614,88.9720253 C35.61018,86.8459475 34.8898449,85.1490707 32.337248,83.9273807 L32.337248,83.9273807 Z M32.7004468,87.8571429 C32.2578624,88.5894737 31.4883898,89 30.5903657,89 C30.2230757,89 29.8594586,88.9263158 29.5307341,88.7924812 L29,88.5774436 L31.1945578,85 L31.721619,85.2195489 C32.2743904,85.4466165 32.7004468,85.843609 32.8914376,86.312782 C33.0842649,86.8030075 33.0199891,87.3383459 32.7004468,87.8571429 L32.7004468,87.8571429 Z" id="Fill-58"></path>
                        <path d="M36,93.8675522 L40.2078117,95 L40.5968953,93.5214421 L38.1241863,92.8504744 L38.4682023,91.5343454 L40.7170756,92.141556 L41.1121683,90.6614801 L38.8632949,90.0512334 L39.1502253,88.9537002 L41.6034051,89.6125237 L42,88.1324478 L37.8072108,87 L36,93.8675522" id="Fill-59"></path>
                        <path d="M46.331378,88.11473 L44.3760287,88 L44,94.8749737 L45.9452254,94.9897037 C46.0956369,94.9985291 46.2402633,95 46.3906748,95 C48.6584171,95 49.8718328,93.9144778 49.9918728,91.7743223 C50.0482771,90.7108636 49.8110897,89.8695104 49.2803108,89.2635007 C48.6670947,88.5707081 47.7009902,88.1912166 46.331378,88.11473 L46.331378,88.11473 Z M46.3861731,93.9967791 L46,93.9728194 L46.1846915,90 L46.5636688,90.0239597 C47.3192249,90.0733766 48.054393,90.8146301 47.9968268,92.1144444 C47.9332641,93.4636755 47.116544,94.0491909 46.3861731,93.9967791 L46.3861731,93.9967791 Z" id="Fill-60"></path>
                        <path d="M57.1728135,88.3855607 L56,96 L57.8056902,95.5929339 L58.0446786,93.9800307 L60.26196,93.4746544 L61.1057956,94.8617512 L63,94.4316436 L58.9106428,88 L57.1728135,88.3855607 L57.1728135,88.3855607 Z M58,92 L58.15,90 L58.789,91.7217676 L58,92 L58,92 Z" id="Fill-61"></path>
                        <path d="M64,91.5322896 L64.5287206,93 L66,92.4703196 L65.4634465,91 L64,91.5322896" id="Fill-62"></path>
                        <path d="M67.9015815,84.7342278 L66,85.713076 L69.5714577,92 L71.4634513,91.0165706 C73.949889,89.7307824 74.6130455,88.0204703 73.4321475,85.9360274 C72.2608372,83.8653282 70.3832252,83.4408043 67.9015815,84.7342278 L67.9015815,84.7342278 Z M70.7980469,89.7673716 L70.2901327,90 L68,86.4743202 L68.5133368,86.2401813 C68.8513437,86.0845921 69.2363463,86 69.6195413,86 C70.4745001,86 71.222815,86.4048338 71.6710809,87.0876133 C72.4157807,88.244713 71.7976075,89.3141994 70.7980469,89.7673716 L70.7980469,89.7673716 Z" id="Fill-63"></path>
                        <path d="M74,87.2294787 L75.2359281,89 L77,87.7705213 L75.7730539,86 L74,87.2294787" id="Fill-64"></path>
                        <path d="M77.2971429,77.0014368 L77,79.6422414 L78.4685714,79.8448276 L78.5914286,78.7413793 L81.7814286,82 L83,80.7902299 L78.3042857,76 L77.2971429,77.0014368" id="Fill-65"></path>
                        <path d="M86.1285647,74.2563398 C85.5558797,73.8013162 84.9079192,73.7268002 84.192063,74.0248644 C84.2038709,73.2939729 83.8496328,72.6693064 83.4289751,72.3331914 C82.5684717,71.6546197 81.4186738,72.0367127 80.5773583,73.259093 C79.7419468,74.4703752 79.8172224,75.6959265 80.7766172,76.4632833 C81.2563147,76.8422054 81.8777074,76.929405 82.4769602,76.7011005 C82.4326804,77.5112644 82.6747431,78.1153201 83.2120042,78.5370492 C83.5972382,78.8462115 84.00166,79 84.4134618,79 C85.1086541,79 85.8023704,78.5449764 86.3765314,77.7173726 C86.8577048,77.0102628 87.0717236,76.3015676 86.9787361,75.6642175 C86.9049365,75.1140671 86.6185941,74.64636 86.1285647,74.2563398 L86.1285647,74.2563398 Z M82.8252945,75.242 C82.6592945,75.45 82.4842945,75.632 82.3302945,75.632 L82.1332945,75.512 C81.9042945,75.164 82.0182945,74.598 82.1212945,74.322 C82.1992945,74.106 82.2962945,74 82.4072945,74 L82.6542945,74.182 C82.7952945,74.394 82.8562945,74.882 82.8252945,75.242 L82.8252945,75.242 Z M84.8735631,77.4302057 C84.7155631,77.8582057 84.4165631,77.9842057 84.2135631,77.6862057 C84.0255631,77.4062057 83.9675631,77.0262057 84.0165631,76.3902057 C84.3525631,75.9522057 84.5985631,75.8782057 84.8095631,76.1922057 C84.9065631,76.3382057 84.9635631,76.5202057 84.9795631,76.7262057 C84.9965631,76.9482057 84.9585631,77.2002057 84.8735631,77.4302057 L84.8735631,77.4302057 Z" id="Fill-66"></path>
                        <path d="M90.4226096,66.5942857 C89.190713,66.0142857 88.0166091,66.3571429 87.4234737,67.4714286 C87.2592209,67.7871429 87.1907822,68.0914286 87.2227202,68.3914286 C86.78015,68.05 86.3786429,67.5185714 86.7284407,66.8657143 C86.9033396,66.5314286 87.1345103,66.31 87.4189111,66.0771429 L87.659207,65.8842857 L86.3497466,65 L86.2022232,65.1371429 C85.8372168,65.47 85.5497743,65.8428571 85.3262078,66.2671429 C84.9733683,66.9328571 84.9064505,67.5757143 85.1269752,68.1957143 C85.5132736,69.2785714 86.6828149,70.0142857 87.5953309,70.4414286 C88.3892198,70.8185714 89.0690442,71 89.6606587,71 C90.5640496,71 91.243874,70.5785714 91.6864442,69.7471429 C92.3769146,68.45 91.9145732,67.3 90.4226096,66.5942857 L90.4226096,66.5942857 Z M90.9637008,68.756 C90.8399536,68.91 90.6469079,68.985 90.3713641,68.985 C90.1816184,68.985 89.9654732,68.949 89.7394283,68.879 C89.3599368,68.764 89.1008926,68.622 89.0282942,68.475 C88.9787953,68.389 88.995295,68.303 89.0695433,68.208 C89.1866907,68.068 89.3747865,68 89.6503303,68 C89.8598756,68 90.1040701,68.04 90.3548645,68.116 C90.6832071,68.216 90.9224517,68.356 91,68.499 L90.9637008,68.756 L90.9637008,68.756 Z" id="Fill-67"></path>
                        <path d="M93.1455522,59.1481931 C91.6385475,58.7407228 90.4245715,59.356294 89.9979089,60.6660199 L89.9093562,60.9992724 L89.02544,60.7446034 L89.7950428,58.4016493 L88.2896482,58 L87,61.9349988 L91.1764638,63.1355809 L91.1732437,62.8037837 C91.1700236,62.4370604 91.2231552,62.0907106 91.3390786,61.7399951 C91.4469518,61.4140189 91.8333633,60.6092651 92.6399972,60.8260975 C93.4965426,61.0589377 93.2985067,61.8927965 93.2196144,62.1445549 C93.0698799,62.6044143 92.770411,62.9362115 92.5208536,63.2097987 L92.2793465,63.4761096 L94.0375186,64 L94.1437818,63.8268251 C94.4335903,63.3698763 94.6895879,62.8387097 94.8248319,62.4152316 C95.0888798,61.6192093 95.0534587,60.8857628 94.725009,60.2949309 C94.4158798,59.744846 93.8571933,59.3388309 93.1455522,59.1481931" id="Fill-68"></path>
                        <path d="M14,50.4961318 C14,70.6280337 30.3714601,87 50.5,87 C70.6269925,87 87,70.6280337 87,50.4961318 C87,30.3735136 70.6269925,14 50.5,14 C30.3714601,14 14,30.3735136 14,50.4961318 L14,50.4961318 Z M50,15 C69.2974136,15 85,30.7036208 85,49.9961575 C85,69.2994533 69.2974136,85 50,85 C30.6979757,85 15,69.2994533 15,49.9961575 C15,30.7036208 30.6979757,15 50,15 L50,15 Z" id="Fill-69"></path>
                        <path d="M49.5007672,4.54747351e-13 C22.2064535,4.54747351e-13 0,22.2049192 0,49.5023015 C0,76.7904778 22.2064535,99 49.5007672,99 C76.7966152,99 99,76.7904778 99,49.5023015 C99,22.2049192 76.7966152,4.54747351e-13 49.5007672,4.54747351e-13 L49.5007672,4.54747351e-13 Z M48.9992361,97 C22.5307542,97 1,75.4695885 1,49.0015277 C1,22.5349947 22.5307542,1 48.9992361,1 C75.4677181,1 97,22.5349947 97,49.0015277 C97,75.4695885 75.4677181,97 48.9992361,97 L48.9992361,97 Z" id="Fill-70"></path>
                    </g>
                </g>
            </g>
        </g>
    </g>
</svg>