<?xml version="1.0" encoding="utf-8"?>
<!-- Generator: Adobe Illustrator 16.0.0, SVG Export Plug-In . SVG Version: 6.00 Build 0)  -->
<!DOCTYPE svg PUBLIC "-//W3C//DTD SVG 1.1//EN" "http://www.w3.org/Graphics/SVG/1.1/DTD/svg11.dtd">
<svg version="1.1" id="Layer_1" xmlns:sketch="http://www.bohemiancoding.com/sketch/ns"
	 xmlns="http://www.w3.org/2000/svg" xmlns:xlink="http://www.w3.org/1999/xlink" x="0px" y="0px" width="392px" height="101px"
	 viewBox="0 0 392 101" enable-background="new 0 0 392 101" xml:space="preserve">
<title>Logo Lockup (updated)</title>
<desc>Created with Sketch.</desc>
<g id="ACTIVE" sketch:type="MSPage">
	<g id="Homepage" transform="translate(-524.000000, -40.000000)" sketch:type="MSArtboardGroup">
		<g id="_x2022_-Header" transform="translate(-2.000000, -58.000000)" sketch:type="MSLayerGroup">
			<g id="Logo-Lockup-_x28_updated_x29_" transform="translate(526.000000, 98.000000)" sketch:type="MSShapeGroup">
				<g id="Arts_x26_Sciences-_x2B_-The-College-of" transform="translate(156.000000, 22.000000)">
					<g id="Arts_x26_Sciences" transform="translate(0.000000, 28.000000)">
						<path id="Fill-1" fill="#2C2C2C" d="M104.518,1c-2.961,0-5.295,0.835-6.74,2.091c-1.48,1.256-2.666,3.233-2.666,5.743
							c0,2.471,0.889,3.992,2,5.058c1.111,1.101,2.407,1.596,3.037,1.901c0.853,0.379,2.778,1.064,3.889,1.482s3,1.104,3,2.89
							c0,1.75-1.48,2.7-3.406,2.7c-1.963,0-4.816-1.331-6.666-3.309L94,24.044C96.074,26.021,99.371,28,103.074,28
							c2.742,0,5.112-0.685,6.927-2.168c1.852-1.482,2.999-3.765,2.999-6.275c0-2.357-0.926-3.955-1.999-5.059
							c-1.149-1.178-2.853-1.861-3.557-2.129c-0.814-0.342-2.703-1.026-3.813-1.482c-1.148-0.456-2.594-1.064-2.594-2.662
							s1.408-2.357,3.334-2.357s4.222,1.141,5.703,2.661l2.555-4.296C110.89,2.444,107.482,1,104.518,1"/>
						<path id="Fill-2" fill="#2C2C2C" d="M132,25.814c-0.189,0.148-2.162,2.186-7.134,2.186c-5.124,0-9.866-3.408-9.866-9.48
							c0-6.113,4.818-9.52,9.941-9.52c4.781,0,6.944,1.926,6.944,1.926l-1.327,4.481c-0.531-0.407-2.201-1.63-4.82-1.63
							c-2.58,0-4.629,1.741-4.629,4.631c0,2.889,1.858,4.703,4.705,4.703c2.846,0,4.744-1.777,4.744-1.777L132,25.814"/>
						<path id="Fill-3" fill="#2C2C2C" d="M136.5,7c-2.076,0-3.5-1.192-3.5-3c0-1.77,1.424-3,3.5-3s3.5,1.23,3.5,3
							C140,5.808,138.576,7,136.5,7L136.5,7z M133,9h6v19h-6V9z"/>
						<path id="Fill-4" fill="#2C2C2C" d="M159.926,19.889h-13c0.26,2.63,2.26,3.814,4.667,3.814c2.37,0,4.445-1.037,5.481-1.741
							l2.333,3.075c-0.592,0.443-3,2.963-8.666,2.963c-5.63,0-9.741-3.482-9.741-9.52S145.444,9,150.853,9
							C156.26,9,160,12.592,160,17.926C160,18.814,159.926,19.889,159.926,19.889L159.926,19.889z M155,17
							c-0.038-1.818-1.339-4-3.98-4c-2.601,0-3.941,2.102-4.02,4H155L155,17z"/>
						<path id="Fill-5" fill="#2C2C2C" d="M175.05,28v-9.727c0-2.461-0.372-4.314-2.827-4.314c-2.566,0-3.272,2.118-3.272,4.806V28
							H163V9.34h5.95l-0.036,2.688h0.074C169.991,10.363,171.665,9,174.306,9c5.318,0,6.694,3.481,6.694,7.985V28H175.05z"/>
						<path id="Fill-6" fill="#2C2C2C" d="M200,25.814c-0.19,0.148-2.164,2.186-7.135,2.186c-5.122,0-9.865-3.408-9.865-9.48
							c0-6.113,4.818-9.52,9.941-9.52c4.78,0,6.944,1.926,6.944,1.926l-1.328,4.481c-0.53-0.407-2.202-1.63-4.819-1.63
							c-2.58,0-4.629,1.741-4.629,4.631c0,2.889,1.859,4.703,4.706,4.703c2.846,0,4.742-1.777,4.742-1.777L200,25.814"/>
						<path id="Fill-7" fill="#2C2C2C" d="M218.926,19.889h-13.001c0.26,2.63,2.261,3.814,4.668,3.814
							c2.369,0,4.445-1.037,5.481-1.741l2.333,3.075c-0.592,0.443-3,2.963-8.666,2.963c-5.63,0-9.741-3.482-9.741-9.52
							S204.444,9,209.853,9C215.26,9,219,12.592,219,17.926C219,18.814,218.926,19.889,218.926,19.889L218.926,19.889z M214,17
							c-0.039-1.818-1.34-4-3.98-4c-2.601,0-3.941,2.102-4.02,4H214L214,17z"/>
						<path id="Fill-8" fill="#2C2C2C" d="M233.774,26.41c-1.38,1.035-3.261,1.59-5.794,1.59c-2.84,0-5.832-0.852-7.98-2.809
							l2.303-3.512c1.534,1.256,4.066,2.217,5.602,2.217c1.534,0,2.609-0.369,2.609-1.553c0-1.182-2.762-1.774-3.454-1.994
							c-0.729-0.186-1.803-0.481-2.687-0.85c-0.881-0.371-3.223-1.518-3.223-4.77c0-3.547,3.223-5.73,7.175-5.73
							c3.954,0,6.178,1.405,7.254,2.256l-1.995,3.475c-1.075-0.814-3.225-1.775-4.759-1.775c-1.459,0-2.264,0.37-2.264,1.331
							s1.458,1.405,2.762,1.774c1.306,0.37,1.881,0.556,2.688,0.85c0.844,0.297,1.803,0.777,2.455,1.369
							c0.613,0.59,1.534,1.773,1.534,3.695C236,23.86,235.156,25.338,233.774,26.41"/>
						<path id="Clip-22" fill="#2C2C2C" d="M10,17l3.5-9l3.5,9H10L10,17z M16.175,1h-6.35L0,27h6.35l1.851-5.23h9.297L19.35,27H26
							L16.175,1L16.175,1z"/>
						<path id="Fill-24" fill="#2C2C2C" d="M38.676,13.904h-0.252c-0.325-0.189-1.081-0.455-2.091-0.455
							c-1.296,0-2.233,0.758-2.666,1.363c-0.432,0.605-0.901,1.817-0.901,3.899V27H27V8.341h5.766L32.73,10.99h0.072
							C33.81,8.946,35.289,8,37.197,8C38.386,8,39,8.341,39,8.341L38.676,13.904"/>
						<path id="Fill-25" fill="#2C2C2C" d="M52,12.607h-4.167v6.668c0,1.582,0.229,1.959,0.534,2.299
							c0.268,0.303,0.65,0.452,1.454,0.452c0.956,0,1.835-0.339,1.835-0.339l0.305,4.709C51.502,26.51,49.821,27,47.603,27
							c-2.179,0-3.632-0.641-4.588-1.733c-0.957-1.093-1.338-2.636-1.338-5.463v-7.196H39V8.049h2.677V3h6.156v5.049H52V12.607"/>
						<path id="Fill-26" fill="#2C2C2C" d="M65.773,25.41C64.394,26.445,62.513,27,59.98,27c-2.84,0-5.832-0.852-7.98-2.809
							l2.303-3.512c1.535,1.256,4.066,2.217,5.602,2.217s2.608-0.369,2.608-1.553c0-1.182-2.762-1.773-3.452-1.995
							c-0.729-0.186-1.805-0.481-2.687-0.85c-0.882-0.37-3.224-1.517-3.224-4.77C53.15,10.182,56.374,8,60.326,8
							c3.951,0,6.177,1.404,7.253,2.255l-1.995,3.475c-1.076-0.813-3.225-1.775-4.758-1.775c-1.459,0-2.264,0.371-2.264,1.333
							c0,0.959,1.457,1.403,2.762,1.773c1.304,0.369,1.881,0.555,2.686,0.85c0.845,0.297,1.804,0.776,2.456,1.369
							C67.08,17.871,68,19.052,68,20.974C68,22.86,67.155,24.338,65.773,25.41"/>
						<path id="Fill-27" fill="#E44444" d="M96,26.547h-6.949l-2.568-2.795C83.84,25.904,81.537,27,78.139,27
							C73.304,27,69,24.507,69,19.334c0-3.738,2.906-6.043,6.268-7.477c-1.246-1.397-2.68-3.096-2.68-5.627
							C72.588,2.039,76.4,0,80.593,0c4.153,0,7.702,2.039,7.702,6.08c0,3.02-2.377,5.324-4.908,6.684l3.437,3.891
							c0.831-0.869,2.644-3.438,3.322-4.721l4.269,2.34c-0.869,1.398-2.945,4.418-4.343,5.814L96,26.244V26.547L96,26.547z
							 M78.367,15l-0.725,0.442C76.484,16.166,75,17.293,75,19.423C75,21.593,76.629,23,78.512,23c1.846,0,3.547-1.165,4.488-2.331
							L78.367,15L78.367,15z M80.539,4C79.023,4,78,4.914,78,6.424c0,1.191,0.834,2.066,1.25,2.584L80.121,10
							C81.258,9.246,83,8.094,83,6.344C83,4.835,82.016,4,80.539,4L80.539,4z"/>
					</g>
					<g id="The-College-of" transform="translate(0.000000, -0.000000)">
						<path id="Fill-9" fill="#767676" d="M11,2.207H6.14V18H4.86V2.207H0V1h11V2.207"/>
						<path id="Fill-10" fill="#767676" d="M22,18h-1.303v-6.776c0-1.847-0.32-3.746-2.779-3.746c-2.459,0-3.641,2.145-3.641,4.854
							V18H13V1h1.277v7.686c0.567-1.355,2.041-2.315,3.689-2.315c3.271,0,4.034,2.094,4.034,4.803V18"/>
						<path id="Fill-11" fill="#767676" d="M35.924,12.272h-9.533c0.125,2.741,1.693,4.557,4.35,4.557
							c2.655,0,4.123-1.492,4.123-1.492l0.631,0.921c0,0-1.466,1.742-4.881,1.742C27.2,18,25,15.51,25,11.975
							C25,8.415,27.579,6,30.688,6C33.774,6,36,8.29,36,11.402C36,11.776,35.924,12.272,35.924,12.272L35.924,12.272z M34,11
							c0-1.482-1.108-4-3.939-4C27.23,7,26.073,9.394,26,11H34L34,11z"/>
						<path id="Fill-12" fill="#767676" d="M56,15.295C54.757,16.686,52.766,18,49.656,18C44.682,18,41,14.311,41,9s3.805-9,8.656-9
							c2.984,0,4.976,1.265,6.219,2.529L55.004,3.54c-0.869-1.138-2.86-2.301-5.348-2.301c-4.229,0-7.215,3.16-7.215,7.711
							c0,4.551,2.986,7.76,7.215,7.76c2.363,0,4.229-0.908,5.473-2.298L56,15.295"/>
						<path id="Fill-13" fill="#767676" d="M62.988,18C59.654,18,57,15.51,57,12.025C57,8.539,59.654,6,62.988,6
							C66.348,6,69,8.539,69,12.025C69,15.51,66.348,18,62.988,18L62.988,18z M62.488,7C59.726,7,58,9.232,58,12
							c0,2.744,1.726,5,4.488,5C65.273,17,67,14.745,67,12C67,9.232,65.273,7,62.488,7L62.488,7z"/>
						<path id="Fill-14" fill="#767676" d="M71,1h0.982v17H71V1z"/>
						<path id="Fill-15" fill="#767676" d="M76,1h0.982v17H76V1z"/>
						<path id="Fill-16" fill="#767676" d="M89.924,12.272H80.39c0.128,2.741,1.696,4.557,4.349,4.557
							c2.656,0,4.122-1.492,4.122-1.492l0.633,0.921c0,0-1.466,1.742-4.88,1.742C81.2,18,79,15.51,79,11.975
							C79,8.415,81.578,6,84.689,6C87.774,6,90,8.29,90,11.402C90,11.776,89.924,12.272,89.924,12.272L89.924,12.272z M88,11
							c0-1.482-1.109-4-3.939-4C81.231,7,80.074,9.394,80,11H88L88,11z"/>
						<path id="Fill-17" fill="#767676" d="M102,15.411c0,2.655-0.314,4.046-0.918,5.059c-0.605,1.012-1.934,2.53-4.837,2.53
							c-2.899,0-4.713-1.771-4.713-1.771l0.724-1.012c0.605,0.632,2.299,1.594,4.111,1.594c1.814,0,2.9-0.836,3.386-1.518
							c0.483-0.709,0.967-1.974,0.967-3.998v-0.859c-0.822,1.516-2.224,2.505-4.231,2.505c-2.951,0-5.488-2.303-5.488-5.972
							C91,8.301,93.537,6,96.488,6c2.008,0,3.482,1.037,4.231,2.427V6.201H102V15.411L102,15.411z M96,7c-2.628,0-4,2.216-4,4.987
							C92,14.757,93.372,17,96,17s4-2.243,4-5.013C100,9.216,98.628,7,96,7L96,7z"/>
						<path id="Fill-18" fill="#767676" d="M115.924,12.272h-9.534c0.128,2.741,1.696,4.557,4.349,4.557
							c2.658,0,4.122-1.492,4.122-1.492l0.633,0.921c0,0-1.466,1.742-4.879,1.742C107.2,18,105,15.51,105,11.975
							C105,8.415,107.578,6,110.689,6C113.774,6,116,8.29,116,11.402C116,11.776,115.924,12.272,115.924,12.272L115.924,12.272z
							 M114,11c0-1.482-1.109-4-3.939-4s-3.988,2.394-4.061,4H114L114,11z"/>
						<path id="Fill-19" fill="#767676" d="M126.989,18c-3.335,0-5.989-2.49-5.989-5.975C121,8.539,123.654,6,126.989,6
							C130.349,6,133,8.539,133,12.025C133,15.51,130.349,18,126.989,18L126.989,18z M126.488,7C123.725,7,122,9.232,122,12
							c0,2.744,1.725,5,4.488,5c2.785,0,4.512-2.255,4.512-5C131,9.232,129.273,7,126.488,7L126.488,7z"/>
						<path id="Fill-20" fill="#767676" d="M139.883,1.334c0,0-0.577-0.241-1.153-0.241c-1.73,0-1.913,1.457-1.913,3.035V5.78h2.721
							v1.142h-2.721V17h-1.203V6.922H134V5.78h1.613V4.25c0-1.579,0.279-2.429,0.625-2.963C136.584,0.729,137.344,0,138.498,0
							S140,0.244,140,0.244L139.883,1.334"/>
					</g>
				</g>
				<path id="Line-2" fill="none" stroke="#E3E3E3" stroke-linecap="square" d="M129.5,0.5v100"/>
				<g id="Insignia-2" transform="translate(0.000000, 1.000000)" display="none">
					<path id="Fill-28" display="inline" fill="#2C2C2C" d="M38.627,75.906c5.658,4.457,11.233,6.815,11.468,6.912L50.527,83
						l0.434-0.185c0.232-0.103,5.788-2.491,11.429-6.903C69.983,69.973,74,63.213,74,56.354L73.996,25l-46.993,0.005L27,55.811
						C27,62.954,31.02,69.899,38.627,75.906L38.627,75.906z M50,65.783c-0.251-0.082-0.532-0.143-0.881-0.143h-0.057
						c-1.196,0-2.091,0.078-3.042,0.156c-0.936,0.084-1.908,0.166-3.334,0.195c-0.653,0.014-1.242,0.008-1.686,0V51.421h0.203
						c0.591,0.005,1.318,0,2.232-0.017c0.77-0.02,1.619-0.106,2.601-0.204c0.54-0.056,1.114-0.112,1.758-0.167
						c1.02-0.104,1.964,0.068,1.964,0.068L50,51.176V65.783L50,65.783z M71,56.062C71,68.963,55.549,77.707,51,80V68.263
						l0.229-0.244c0.228-0.271,0.371-0.432,0.805-0.435c1.053,0.016,1.845,0.069,2.746,0.152c0.863,0.079,1.838,0.174,3.226,0.203
						c1.372,0.037,2.439-0.025,2.481-0.029l0.774-0.043v-4.385h1.812v-2.337h-1.812V56.9h1.812v-2.336h-1.814v-4.77l-0.796-0.019
						c-0.293-0.009-0.629-0.009-1.026-0.006c-0.555-0.008-1.214,0-2.05-0.021c-0.653-0.014-1.417-0.096-2.3-0.193
						c-0.513-0.058-1.063-0.118-1.64-0.169c-1.235-0.148-2.329,0.083-2.393,0.101L51,49.503V45h19.999L71,56.062L71,56.062z
						 M51,65.854V51.249c0.112-0.05,0.242-0.103,0.422-0.14c0.013-0.005,0.935-0.186,1.961-0.072
						c0.609,0.053,1.174,0.108,1.703,0.168c0.957,0.094,1.785,0.181,2.537,0.201c0.759,0.016,1.388,0.016,1.92,0.016h0.455L60,65.99
						c-0.433,0.008-1.007,0.018-1.647,0c-1.393-0.029-2.339-0.111-3.254-0.193c-0.938-0.084-1.78-0.161-3.023-0.158
						C51.636,65.639,51.292,65.73,51,65.854L51,65.854z M29.001,27.006L71.999,27L72,43H29L29.001,27.006L29.001,27.006z M29,45h20
						v4.473c-0.327-0.059-1.242-0.194-2.248-0.076c-0.597,0.054-1.149,0.115-1.667,0.172c-0.895,0.098-1.665,0.18-2.326,0.194
						c-0.843,0.021-1.516,0.021-2.068,0.021c-0.399,0-0.74,0-1.038,0.006l-0.805,0.019v4.318h-1.977v2.349h1.977v4.317h-1.977v2.34
						h1.977v4.801l0.779,0.043c0.044,0.005,1.117,0.061,2.505,0.029c1.4-0.029,2.385-0.123,3.255-0.203
						c0.896-0.08,1.671-0.152,2.726-0.152c0.416-0.007,0.552,0.127,0.778,0.414L49,68.189V80c-4.85-2.432-20-11.1-20-24.454V45
						L29,45z"/>
					<path id="Fill-29" display="inline" fill="#2C2C2C" d="M46.992,29h-11.99v0.831c-0.003,2.594-0.004,6.977,0.011,7.177
						c0.058,0.899,0.656,1.711,1.833,2.486c1.447,0.962,3.605,2.213,3.695,2.267L40.954,42l0.415-0.226
						c0.098-0.051,2.427-1.31,3.881-2.28c1.701-1.121,1.73-2.146,1.743-2.486c0.013-0.183,0.008-4.005,0-7.177V29L46.992,29z
						 M37.003,31h8.995c0,0.643,0.001,1.331,0.001,2h-9C37,32.332,37,31.643,37.003,31L37.003,31z M45.995,36.648
						c-0.013,0.446-0.573,0.917-1.04,1.233C43.878,38.62,42.251,39.562,41.48,40c-0.733-0.446-2.255-1.38-3.333-2.119
						c-0.704-0.478-1.121-0.949-1.144-1.299C37,36.451,37,35.389,37,34h9C46,35.398,45.999,36.479,45.995,36.648L45.995,36.648z"/>
					<path id="Fill-30" display="inline" fill="#2C2C2C" d="M66.991,29H55v0.814C54.999,33,54.999,36.83,55.01,37.028
						c0.068,0.885,0.666,1.696,1.838,2.466c1.446,0.964,3.61,2.219,3.7,2.272L60.95,42l0.409-0.223
						c0.096-0.05,2.437-1.308,3.898-2.283c1.705-1.124,1.73-2.146,1.735-2.483c0.014-0.182,0.009-4.015,0.001-7.199L66.991,29
						L66.991,29z M65.997,37.669c-0.011,0.446-0.573,0.914-1.041,1.239C63.875,39.635,62.24,40.57,61.477,41
						c-0.724-0.435-2.242-1.365-3.325-2.092c-0.332-0.228-1.112-0.809-1.146-1.314c-0.003-0.046-0.003-0.208-0.006-0.454L61.301,34
						L66,37.169C66,37.433,65.999,37.61,65.997,37.669L65.997,37.669z M61.265,31.907l-4.262,3.011
						c-0.003-1.196-0.003-2.641,0-3.918h8.991C65.997,32.302,66,33.779,66,35L61.265,31.907L61.265,31.907z"/>
					<path id="Fill-31" display="inline" fill="#2C2C2C" d="M53.442,55.724l0.769,0.083c0.523,0.064,0.976,0.109,1.37,0.122
						L57.964,56L58,54.285l-2.377-0.071c-0.358-0.005-0.762-0.054-1.238-0.106l-0.786-0.084c-0.213-0.024-0.412-0.027-0.599-0.02
						l0.07,1.707C53.184,55.706,53.306,55.711,53.442,55.724"/>
					<path id="Fill-32" display="inline" fill="#2C2C2C" d="M55.609,58.22c-0.339-0.009-0.73-0.056-1.178-0.104
						c-0.267-0.035-0.554-0.063-0.845-0.09c-0.208-0.024-0.406-0.027-0.586-0.024l0.027,1.718c0.116-0.002,0.245,0,0.396,0.017
						c0.3,0.028,0.578,0.06,0.836,0.087c0.498,0.057,0.933,0.104,1.312,0.115c0.498,0.007,1.227,0.032,1.767,0.043L57.965,60
						L58,58.285l-0.621-0.02C56.837,58.252,56.107,58.228,55.609,58.22"/>
					<path id="Fill-33" display="inline" fill="#2C2C2C" d="M55.619,63.226c-0.349-0.013-0.745-0.058-1.197-0.112
						c-0.267-0.029-0.544-0.059-0.823-0.088c-0.215-0.023-0.415-0.029-0.599-0.023l0.051,1.71c0.109,0,0.235,0,0.384,0.019
						c0.285,0.029,0.557,0.062,0.809,0.086c0.508,0.063,0.947,0.105,1.333,0.119l0.674,0.019c0.686,0.019,1.452,0.04,1.72,0.046
						L58,63.282c-0.268-0.007-1.026-0.022-1.705-0.042L55.619,63.226"/>
					<path id="Fill-34" display="inline" fill="#2C2C2C" d="M45.439,54.934c0.396-0.01,0.854-0.06,1.381-0.123
						c0.248-0.025,0.507-0.054,0.783-0.085l0.371-0.013L48,53c-0.166,0-0.354,0.008-0.547,0.027c-0.29,0.026-0.557,0.06-0.807,0.088
						c-0.474,0.052-0.879,0.103-1.244,0.109L43,53.285L43.038,55L45.439,54.934"/>
					<path id="Fill-35" display="inline" fill="#2C2C2C" d="M46.631,58.105c-0.471,0.055-0.881,0.104-1.238,0.111L43,58.285
						L43.039,60l2.391-0.066c0.399-0.012,0.851-0.063,1.378-0.123l0.763-0.084l0.355-0.012L48,58.004
						c-0.168-0.01-0.363,0-0.567,0.019L46.631,58.105"/>
					<path id="Fill-36" display="inline" fill="#2C2C2C" d="M46.647,63.108c-0.474,0.052-0.885,0.104-1.326,0.11
						c-0.759,0.022-1.967,0.061-2.322,0.07L43.03,65c0.356-0.01,1.57-0.045,2.411-0.064c0.397-0.012,0.853-0.064,1.386-0.127
						l0.792-0.08l0.353-0.015L48,63.001c-0.174-0.003-0.365,0-0.546,0.019L46.647,63.108"/>
					<path id="Fill-37" display="inline" fill="#2C2C2C" d="M7.682,50c1.965,0,3.167-1.367,3.312-3.741
						c0.021-0.466-0.009-0.982-0.116-1.617l-0.038-0.209l-1.62-0.016l0.153,0.364c0.116,0.279,0.184,0.876,0.158,1.376
						c-0.074,1.236-0.928,1.989-2.13,1.899c-1.222-0.083-2-0.946-1.932-2.152c0.022-0.391,0.085-0.823,0.382-1.307l0.201-0.341
						L4.457,44l-0.076,0.175c-0.201,0.472-0.34,1.072-0.371,1.602c-0.139,2.481,1.121,4.059,3.372,4.212L7.682,50"/>
					<path id="Fill-38" display="inline" fill="#2C2C2C" d="M7.59,41.806C8.022,41.933,8.443,42,8.841,42
						c1.484,0,2.581-0.912,3.009-2.502c0.256-0.95,0.184-1.848-0.21-2.591c-0.431-0.822-1.215-1.41-2.26-1.721
						C8.962,35.061,8.558,35,8.175,35c-1.493,0-2.592,0.909-3.017,2.497C4.603,39.539,5.537,41.187,7.59,41.806L7.59,41.806z
						 M6.059,37.972C6.293,37.167,7.007,37,7.563,37c0.265,0,0.55,0.042,0.831,0.117c0.68,0.187,1.212,0.526,1.451,0.938
						c0.168,0.289,0.2,0.613,0.096,0.974C9.699,39.834,8.997,40,8.451,40c-0.277,0-0.575-0.041-0.885-0.126
						C6.681,39.633,5.755,38.991,6.059,37.972L6.059,37.972z"/>
					<path id="Fill-39" display="inline" fill="#2C2C2C" d="M15.24,32.419l-2.465-1.284l0.079-0.147
						c0.233-0.428,0.411-0.392,0.792-0.346l2.404,0.296L17,29.194l-3.197-0.325c-0.211-0.015-0.445-0.009-0.624,0.035
						c0.026-0.665-0.328-1.287-0.973-1.623C11.845,27.095,11.495,27,11.172,27c-1.166,0-1.788,1.146-2.336,2.159L8,30.688L14.379,34
						L15.24,32.419L15.24,32.419z M11.618,30.793L11.498,31L10,30.217l0.114-0.205c0.376-0.679,0.78-1.246,1.422-0.916
						c0.226,0.123,0.358,0.26,0.418,0.436C12.07,29.901,11.814,30.428,11.618,30.793L11.618,30.793z"/>
					<path id="Fill-40" display="inline" fill="#2C2C2C" d="M19.434,25.668l-3.149-2.661l4.47,1.036L22,22.518L16.652,18
						l-1.086,1.343l3.15,2.66l-4.464-1.053L13,22.49L18.347,27L19.434,25.668"/>
					<path id="Fill-41" display="inline" fill="#2C2C2C" d="M27,18.334l-0.985-1.155l-2.016,1.564l-0.877-1.027l1.841-1.423
						l-0.995-1.153l-1.833,1.424l-0.728-0.856l2.003-1.552L22.423,13L19,15.657L23.562,21L27,18.334"/>
					<path id="Fill-42" display="inline" fill="#2C2C2C" d="M33,14.903l-0.733-1.331l-2.119,1.226L27.515,10L26,10.88L29.355,17
						L33,14.903"/>
					<path id="Fill-43" display="inline" fill="#2C2C2C" d="M40,12.583L39.432,11.2l-2.558,0.825L34.829,7L33,7.589L35.604,14
						L40,12.583"/>
					<path id="Fill-44" display="inline" fill="#2C2C2C" d="M46.967,12c0.137,0,0.278-0.008,0.421-0.024
						c0.953-0.09,1.656-0.418,2.09-0.982c0.407-0.539,0.578-1.283,0.505-2.211L49.627,4l-1.743,0.156l0.324,4.35
						c0.116,1.535-0.439,1.783-0.937,1.835l-0.13,0.005c-0.408,0-0.966-0.171-1.077-1.643l-0.321-4.348L44,4.515l0.359,4.782
						C44.491,11.063,45.389,12,46.967,12"/>
					<path id="Fill-45" display="inline" fill="#2C2C2C" d="M55.372,7.191l1.589,4.536L59.012,12L60,4.802l-1.792-0.239L57.628,8.81
						l-1.589-4.536L53.985,4L53,11.199l1.792,0.241L55.372,7.191"/>
					<path id="Fill-46" display="inline" fill="#2C2C2C" d="M65,6.52L63.213,6L61,12.488L62.787,13L65,6.52"/>
					<path id="Fill-47" display="inline" fill="#2C2C2C" d="M74,9.921l-1.607-0.785l-3.398,3.355l0.754-4.649L68.046,7L67,14.153
						L68.733,15L74,9.921"/>
					<path id="Fill-48" display="inline" fill="#2C2C2C" d="M75.523,20l0.972-1.163l-2.073-1.525l0.863-1.043l1.879,1.387
						l0.969-1.168l-1.881-1.387l0.718-0.864l2.054,1.511L80,14.583L76.491,12L72,17.405L75.523,20"/>
					<path id="Fill-49" display="inline" fill="#2C2C2C" d="M79.22,24.166l2.109-1.849l0.115,0.136
						c0.271,0.309,0.279,0.439,0.056,0.871l-1.141,2.146L81.705,27l1.452-2.892c0.051-0.105,0.154-0.33,0.189-0.589
						c0.621,0.271,1.369,0.149,1.911-0.322c1.564-1.374,0.313-2.799-0.599-3.837L83.463,18L78,22.786L79.22,24.166L79.22,24.166z
						 M84.219,20l0.157,0.176c0.319,0.375,0.653,0.793,0.622,1.141l-0.263,0.459L84.236,22c-0.386,0-0.781-0.397-1.084-0.743
						L83,21.081L84.219,20L84.219,20z"/>
					<path id="Fill-50" display="inline" fill="#2C2C2C" d="M85.009,29.167c-0.35,0.199-0.79-0.14-0.99-0.465
						c-0.223-0.366-0.352-0.826-0.368-1.322l-0.012-0.36L82,27.749l0.116,0.354c0.162,0.533,0.263,0.856,0.61,1.424
						C83.308,30.475,84.082,31,84.903,31c0.381,0,0.766-0.109,1.148-0.335c1.268-0.72,1.07-1.868,0.926-2.707
						c-0.102-0.593-0.148-0.96,0.105-1.106l0.359-0.104c0.327,0,0.545,0.301,0.626,0.428c0.207,0.339,0.344,0.744,0.4,1.158
						l0.043,0.32L90,28.002l-0.04-0.189c-0.104-0.488-0.309-0.977-0.624-1.494c-0.779-1.265-2.06-1.675-3.252-0.992
						c-1.224,0.698-1.047,1.821-0.914,2.636C85.278,28.613,85.322,28.989,85.009,29.167"/>
					<path id="Fill-51" display="inline" fill="#2C2C2C" d="M86.655,36L93,33.53L92.344,32L86,34.467L86.655,36"/>
					<path id="Fill-52" display="inline" fill="#2C2C2C" d="M93.565,38.276L88,39.664l0.442,1.831l5.565-1.395l0.461,1.9L96,41.616
						L94.638,36L93.1,36.379L93.565,38.276"/>
					<path id="Fill-53" display="inline" fill="#2C2C2C" d="M89,47.01l0.097,1.832l2.663-0.159L96,51l-0.099-1.987l-2.476-1.31
						l2.324-1.555L95.639,44l-3.976,2.852L89,47.01"/>
					<path id="Fill-54" display="inline" fill="#2C2C2C" d="M8.922,63l1.477-0.424L9.78,60.455l1.09-0.311l0.654,2.23L13,61.951
						L11.847,58L5,59.947l0.511,1.723l2.79-0.797L8.922,63"/>
					<path id="Fill-55" display="inline" fill="#2C2C2C" d="M15.83,69.501c0.298-0.798,0.205-1.685-0.282-2.568
						C14.871,65.686,13.746,65,12.398,65c-0.651,0-1.334,0.156-2.028,0.464c-1.122,0.497-1.883,1.208-2.199,2.056
						c-0.301,0.791-0.201,1.678,0.285,2.562C9.13,71.317,10.258,72,11.637,72c0.658,0,1.346-0.156,2.034-0.459
						C14.761,71.055,15.506,70.351,15.83,69.501L15.83,69.501z M12.699,69.711C12.263,69.902,11.834,70,11.453,70
						c-0.596,0-1.026-0.24-1.29-0.707c-0.177-0.321-0.212-0.632-0.095-0.93c0.161-0.415,0.625-0.812,1.274-1.094
						c0.403-0.174,0.82-0.27,1.198-0.27c0.606,0,1.047,0.236,1.302,0.699c0.177,0.317,0.205,0.629,0.088,0.931
						C13.767,69.052,13.317,69.448,12.699,69.711L12.699,69.711z"/>
					<path id="Fill-56" display="inline" fill="#2C2C2C" d="M19.909,75.138l-3.064,2.501c-0.826,0.678-1.417,0.738-1.894,0.123
						c-0.194-0.252-0.276-0.494-0.246-0.738c0.041-0.349,0.31-0.724,0.802-1.125l3.061-2.496L17.478,72l-3.373,2.744
						c-0.701,0.573-1.076,1.213-1.103,1.91c-0.034,0.643,0.237,1.339,0.795,2.053C14.462,79.566,15.175,80,15.923,80
						c0.556,0,1.126-0.236,1.701-0.707L21,76.541L19.909,75.138"/>
					<path id="Fill-57" display="inline" fill="#2C2C2C" d="M26.653,80.56l-2.634,3.159l1.004-4.474L23.465,78L19,83.354
						l1.354,1.077l2.634-3.162l-0.99,4.491L23.535,87L28,81.644L26.653,80.56"/>
					<path id="Fill-58" display="inline" fill="#2C2C2C" d="M32.337,83.928L30.394,83L27,89.412l1.943,0.926
						C29.88,90.785,30.695,91,31.444,91c1.304,0,2.329-0.68,3.041-2.027C35.61,86.846,34.89,85.148,32.337,83.928L32.337,83.928z
						 M32.7,87.857C32.258,88.59,31.488,89,30.59,89c-0.367,0-0.731-0.074-1.06-0.207L29,88.578L31.194,85l0.527,0.22
						c0.553,0.228,0.979,0.624,1.17,1.093C33.084,86.803,33.02,87.338,32.7,87.857L32.7,87.857z"/>
					<path id="Fill-59" display="inline" fill="#2C2C2C" d="M36,93.867L40.208,95l0.389-1.479l-2.473-0.671l0.344-1.316l2.249,0.607
						l0.395-1.479l-2.249-0.611l0.287-1.098l2.453,0.659L42,88.133L37.807,87L36,93.867"/>
					<path id="Fill-60" display="inline" fill="#2C2C2C" d="M46.332,88.115L44.376,88L44,94.875l1.945,0.115
						c0.15,0.008,0.295,0.01,0.445,0.01c2.268,0,3.481-1.086,3.601-3.226c0.057-1.063-0.181-1.905-0.711-2.511
						C48.667,88.57,47.701,88.191,46.332,88.115L46.332,88.115z M46.386,93.996L46,93.973L46.185,90l0.379,0.023
						c0.756,0.05,1.491,0.791,1.434,2.091C47.933,93.464,47.117,94.049,46.386,93.996L46.386,93.996z"/>
					<path id="Fill-61" display="inline" fill="#2C2C2C" d="M57.173,88.386L56,96l1.806-0.407l0.239-1.612l2.217-0.506l0.844,1.387
						L63,94.432L58.911,88L57.173,88.386L57.173,88.386z M58,92l0.15-2l0.639,1.722L58,92L58,92z"/>
					<path id="Fill-62" display="inline" fill="#2C2C2C" d="M64,91.532L64.529,93L66,92.471L65.463,91L64,91.532"/>
					<path id="Fill-63" display="inline" fill="#2C2C2C" d="M67.901,84.734L66,85.713L69.571,92l1.892-0.983
						c2.486-1.286,3.15-2.996,1.969-5.081C72.261,83.865,70.383,83.441,67.901,84.734L67.901,84.734z M70.798,89.768L70.29,90
						L68,86.475l0.513-0.234C68.852,86.084,69.236,86,69.62,86c0.855,0,1.603,0.404,2.051,1.088
						C72.416,88.244,71.798,89.314,70.798,89.768L70.798,89.768z"/>
					<path id="Fill-64" display="inline" fill="#2C2C2C" d="M74,87.229L75.236,89L77,87.771L75.773,86L74,87.229"/>
					<path id="Fill-65" display="inline" fill="#2C2C2C" d="M77.297,77.002L77,79.643l1.469,0.202l0.123-1.104L81.781,82L83,80.79
						L78.304,76L77.297,77.002"/>
					<path id="Fill-66" display="inline" fill="#2C2C2C" d="M86.128,74.256c-0.573-0.455-1.221-0.529-1.937-0.23
						c0.012-0.731-0.342-1.355-0.763-1.692c-0.861-0.679-2.011-0.296-2.852,0.927c-0.835,1.211-0.76,2.436,0.199,3.203
						c0.48,0.379,1.102,0.467,1.701,0.238c-0.044,0.811,0.198,1.414,0.735,1.836C83.597,78.846,84.001,79,84.414,79
						c0.695,0,1.389-0.455,1.963-1.283c0.481-0.707,0.695-1.415,0.602-2.053C86.905,75.114,86.619,74.646,86.128,74.256
						L86.128,74.256z M82.825,75.242c-0.166,0.208-0.341,0.39-0.495,0.39l-0.197-0.12c-0.229-0.348-0.115-0.914-0.012-1.189
						C82.199,74.105,82.296,74,82.407,74l0.247,0.182C82.795,74.395,82.856,74.882,82.825,75.242L82.825,75.242z M84.874,77.43
						c-0.158,0.429-0.457,0.555-0.66,0.256c-0.188-0.279-0.246-0.659-0.197-1.295c0.336-0.438,0.582-0.513,0.793-0.198
						c0.097,0.146,0.154,0.327,0.17,0.534C84.997,76.948,84.958,77.2,84.874,77.43L84.874,77.43z"/>
					<path id="Fill-67" display="inline" fill="#2C2C2C" d="M90.423,66.594c-1.232-0.58-2.406-0.236-3,0.878
						c-0.164,0.315-0.232,0.62-0.201,0.92c-0.442-0.342-0.844-0.873-0.494-1.526c0.175-0.334,0.406-0.555,0.69-0.788l0.24-0.192
						L86.35,65l-0.147,0.137c-0.365,0.333-0.652,0.706-0.876,1.131c-0.353,0.665-0.42,1.309-0.199,1.928
						c0.386,1.083,1.556,1.818,2.468,2.246C88.389,70.818,89.069,71,89.661,71c0.903,0,1.583-0.422,2.026-1.253
						C92.377,68.45,91.915,67.3,90.423,66.594L90.423,66.594z M90.964,68.756c-0.124,0.154-0.317,0.229-0.592,0.229
						c-0.19,0-0.406-0.035-0.632-0.105c-0.379-0.115-0.638-0.257-0.711-0.404c-0.049-0.086-0.033-0.172,0.041-0.267
						C89.187,68.068,89.375,68,89.65,68c0.209,0,0.454,0.04,0.705,0.116c0.328,0.1,0.567,0.239,0.645,0.383L90.964,68.756
						L90.964,68.756z"/>
					<path id="Fill-68" display="inline" fill="#2C2C2C" d="M93.146,59.148c-1.507-0.408-2.721,0.208-3.147,1.518l-0.089,0.333
						l-0.884-0.255l0.77-2.342L88.29,58L87,61.936l4.176,1.2l-0.003-0.332c-0.003-0.366,0.05-0.713,0.166-1.063
						c0.108-0.326,0.495-1.131,1.301-0.914c0.856,0.232,0.658,1.066,0.58,1.318c-0.15,0.46-0.449,0.791-0.699,1.065l-0.242,0.267
						L94.038,64l0.106-0.174c0.29-0.456,0.546-0.987,0.681-1.411c0.264-0.796,0.229-1.529-0.1-2.12
						C94.416,59.745,93.857,59.339,93.146,59.148"/>
					<path id="Fill-69" display="inline" fill="#2C2C2C" d="M14,50.496C14,70.628,30.372,87,50.5,87C70.627,87,87,70.628,87,50.496
						C87,30.374,70.627,14,50.5,14C30.372,14,14,30.374,14,50.496L14,50.496z M50,15c19.297,0,35,15.704,35,34.996
						C85,69.299,69.297,85,50,85c-19.302,0-35-15.701-35-35.004C15,30.704,30.698,15,50,15L50,15z"/>
					<path id="Fill-70" display="inline" fill="#2C2C2C" d="M49.501,0C22.207,0,0,22.205,0,49.502C0,76.791,22.207,99,49.501,99
						C76.797,99,99,76.791,99,49.502C99,22.205,76.797,0,49.501,0L49.501,0z M48.999,97C22.531,97,1,75.47,1,49.001
						C1,22.535,22.531,1,48.999,1C75.468,1,97,22.535,97,49.001C97,75.47,75.468,97,48.999,97L48.999,97z"/>
				</g>
			</g>
		</g>
	</g>
</g>
<g>
	<path d="M34.767,45.815h20.366v4.469c-0.332-0.059-1.265-0.195-2.288-0.076c-0.607,0.054-1.172,0.115-1.699,0.171
		c-0.909,0.098-1.692,0.181-2.366,0.195c-0.859,0.021-1.542,0.021-2.106,0.021c-0.406,0-0.754,0-1.057,0.006l-0.82,0.019v4.312
		h-2.011v2.346h2.011v4.314h-2.011v2.337h2.011v4.798l0.792,0.042c0.047,0.004,1.138,0.061,2.552,0.03
		c1.427-0.03,2.429-0.125,3.315-0.203c0.912-0.082,1.701-0.154,2.776-0.154c0.422-0.006,0.562,0.127,0.791,0.414
		c0.031,0.037,0.072,0.083,0.109,0.127v11.797c-4.939-2.429-20.367-11.087-20.367-24.429L34.767,45.815L34.767,45.815z
		 M34.769,27.567l42.827-0.005l0.001,16.012h-42.83L34.769,27.567L34.769,27.567z M57.05,66.984V52.098
		c0.108-0.051,0.238-0.104,0.416-0.144c0.01-0.003,0.92-0.188,1.929-0.07c0.602,0.052,1.158,0.107,1.677,0.168
		c0.943,0.098,1.758,0.187,2.5,0.204c0.745,0.019,1.366,0.019,1.889,0.019c0.157,0,0.308,0,0.45,0l0.002,14.848
		c-0.428,0.009-0.993,0.018-1.623,0c-1.37-0.03-2.303-0.113-3.206-0.196c-0.923-0.086-1.751-0.166-2.976-0.164
		C57.675,66.762,57.338,66.857,57.05,66.984L57.05,66.984z M77.598,56.899c0,12.926-15.875,21.688-20.548,23.984V69.125
		c0.088-0.084,0.168-0.169,0.234-0.245c0.234-0.271,0.381-0.434,0.828-0.437c1.082,0.016,1.895,0.07,2.82,0.154
		c0.887,0.078,1.889,0.173,3.315,0.203c1.408,0.037,2.506-0.026,2.55-0.03l0.795-0.042l-0.001-4.393h1.861v-2.343h-1.862l0-4.253
		h1.863v-2.342h-1.864l-0.001-4.777l-0.818-0.019c-0.301-0.009-0.646-0.009-1.054-0.006c-0.57-0.007-1.248,0-2.107-0.021
		c-0.669-0.015-1.455-0.097-2.361-0.195c-0.527-0.056-1.096-0.117-1.687-0.168c-1.27-0.146-2.392,0.084-2.459,0.101
		c-0.02,0.006-0.035,0.012-0.054,0.017v-4.513h20.547L77.598,56.899L77.598,56.899z M55.133,66.909
		c-0.242-0.084-0.511-0.147-0.848-0.147c-0.017,0-0.035,0-0.053,0c-1.151,0-2.013,0.081-2.926,0.161
		c-0.902,0.086-1.835,0.169-3.207,0.199c-0.629,0.014-1.195,0.009-1.622,0V52.274c0.064,0,0.129,0,0.195,0
		c0.57,0.005,1.271,0,2.146-0.019c0.744-0.018,1.558-0.106,2.503-0.207c0.52-0.058,1.072-0.113,1.691-0.168
		c0.981-0.108,1.888,0.068,1.888,0.068c0.092,0.021,0.158,0.051,0.232,0.076V66.909L55.133,66.909z M44.232,76.59
		c5.695,4.489,11.307,6.864,11.545,6.962l0.434,0.183l0.435-0.187c0.236-0.103,5.828-2.51,11.506-6.952
		c7.646-5.979,11.688-12.79,11.688-19.696l-0.006-31.576l-47.303,0.005l-0.002,31.024C32.528,63.547,36.574,70.542,44.232,76.59
		L44.232,76.59z"/>
	<path d="M50.968,37.188c-0.011,0.418-0.546,0.86-0.992,1.156c-1.031,0.693-2.583,1.575-3.319,1.987
		c-0.701-0.42-2.156-1.294-3.187-1.988c-0.672-0.447-1.07-0.89-1.092-1.217c-0.003-0.122-0.004-1.119-0.004-2.419h8.601
		C50.975,36.014,50.973,37.028,50.968,37.188L50.968,37.188z M42.377,30.848h8.594c0.001,0.698,0.002,1.447,0.003,2.178h-8.6
		C42.375,32.296,42.376,31.547,42.377,30.848L42.377,30.848z M52.649,29.17H40.696v0.838c-0.004,2.611-0.006,7.024,0.01,7.226
		c0.056,0.906,0.656,1.725,1.827,2.505c1.443,0.968,3.595,2.228,3.685,2.282l0.41,0.24l0.414-0.228
		c0.097-0.052,2.419-1.318,3.87-2.294c1.695-1.129,1.724-2.161,1.736-2.505c0.014-0.185,0.009-4.032,0.002-7.226V29.17L52.649,29.17
		z"/>
	<path d="M66.649,31.41l-4.203,3.036c-0.001-1.207-0.001-2.663,0-3.951h8.863c0.004,1.313,0.008,2.803,0.008,4.032L66.649,31.41
		L66.649,31.41z M71.31,37.03c-0.01,0.432-0.562,0.889-1.023,1.204c-1.066,0.709-2.675,1.619-3.425,2.039
		c-0.714-0.426-2.211-1.329-3.276-2.039c-0.328-0.221-1.096-0.786-1.131-1.277c-0.002-0.045-0.002-0.201-0.003-0.441l4.234-3.058
		l4.629,3.084C71.313,36.799,71.312,36.971,71.31,37.03L71.31,37.03z M72.989,28.815H60.768v0.839
		c-0.003,3.279-0.003,7.225,0.009,7.428c0.068,0.911,0.678,1.748,1.873,2.541c1.475,0.993,3.679,2.285,3.772,2.341l0.409,0.239
		l0.417-0.229c0.098-0.051,2.481-1.348,3.972-2.351c1.738-1.158,1.763-2.21,1.769-2.559c0.013-0.186,0.009-4.134,0.002-7.412
		L72.989,28.815L72.989,28.815z"/>
	<path d="M59.231,55.422l0.798,0.083c0.543,0.062,1.014,0.107,1.421,0.118l2.473,0.069l0.039-1.683l-2.468-0.066
		c-0.371-0.008-0.793-0.056-1.285-0.107l-0.815-0.084c-0.22-0.022-0.429-0.025-0.62-0.019l0.073,1.676
		C58.962,55.403,59.09,55.409,59.231,55.422L59.231,55.422z"/>
	<path d="M61.506,58.597c-0.351-0.011-0.756-0.055-1.217-0.103c-0.276-0.032-0.574-0.063-0.874-0.089
		c-0.215-0.023-0.418-0.027-0.605-0.024l0.027,1.681c0.119-0.003,0.253,0,0.41,0.017c0.309,0.027,0.596,0.058,0.863,0.086
		c0.515,0.056,0.964,0.102,1.356,0.111c0.516,0.007,1.268,0.031,1.825,0.042l0.647,0.019l0.037-1.675l-0.642-0.021
		C62.775,58.628,62.02,58.604,61.506,58.597L61.506,58.597z"/>
	<path d="M61.494,63.393c-0.359-0.012-0.769-0.056-1.24-0.109c-0.273-0.028-0.561-0.059-0.849-0.086
		c-0.223-0.021-0.429-0.03-0.619-0.021l0.051,1.676c0.115-0.001,0.244,0,0.396,0.019c0.296,0.025,0.578,0.06,0.839,0.081
		c0.525,0.062,0.98,0.105,1.378,0.118l0.698,0.018c0.711,0.019,1.501,0.038,1.778,0.045l0.032-1.684
		c-0.277-0.006-1.064-0.02-1.765-0.04L61.494,63.393L61.494,63.393z"/>
	<path d="M50.886,55.603c0.41-0.009,0.879-0.058,1.421-0.118c0.252-0.026,0.519-0.054,0.804-0.086
		c0.131-0.008,0.264-0.019,0.381-0.013l0.026-1.683c-0.172,0-0.366,0.008-0.562,0.026c-0.297,0.026-0.573,0.059-0.83,0.087
		c-0.487,0.05-0.905,0.102-1.277,0.105l-2.47,0.062l0.041,1.683L50.886,55.603L50.886,55.603z"/>
	<path d="M52.142,58.462c-0.486,0.053-0.91,0.101-1.279,0.109l-2.469,0.064l0.039,1.682l2.468-0.065
		c0.414-0.01,0.88-0.062,1.423-0.119l0.789-0.082c0.127-0.01,0.252-0.016,0.367-0.012l0.076-1.678c-0.174-0.01-0.375,0-0.588,0.017
		L52.142,58.462L52.142,58.462z"/>
	<path d="M52.129,63.255c-0.488,0.053-0.91,0.103-1.362,0.109c-0.781,0.022-2.019,0.06-2.384,0.068l0.031,1.678
		c0.367-0.011,1.614-0.044,2.475-0.064c0.409-0.012,0.877-0.062,1.422-0.122l0.816-0.079c0.124-0.017,0.248-0.019,0.362-0.017
		l0.026-1.679c-0.178-0.003-0.375,0-0.56,0.02L52.129,63.255L52.129,63.255z"/>
	<path d="M13.578,50.267c2.101,0,3.387-1.343,3.544-3.678c0.023-0.458-0.01-0.965-0.125-1.59l-0.039-0.206l-1.734-0.017l0.163,0.357
		c0.125,0.277,0.199,0.864,0.169,1.354c-0.078,1.215-0.992,1.958-2.278,1.869c-1.309-0.082-2.14-0.931-2.07-2.115
		c0.025-0.386,0.092-0.811,0.41-1.286l0.217-0.336l-1.71-0.251l-0.08,0.171c-0.217,0.463-0.365,1.054-0.396,1.574
		c-0.15,2.44,1.197,3.992,3.608,4.143C13.364,50.262,13.472,50.267,13.578,50.267L13.578,50.267z"/>
	<path d="M12.742,38.048c0.254-0.906,1.023-1.096,1.625-1.096c0.283,0,0.592,0.046,0.895,0.131c0.734,0.211,1.308,0.595,1.566,1.057
		c0.182,0.326,0.214,0.692,0.102,1.099c-0.26,0.908-1.015,1.097-1.605,1.097c-0.299,0-0.619-0.048-0.955-0.143
		C13.413,39.92,12.414,39.196,12.742,38.048L12.742,38.048z M13.853,42.023c0.465,0.13,0.918,0.198,1.346,0.198
		c1.595,0,2.774-0.931,3.237-2.554c0.275-0.97,0.197-1.888-0.229-2.646c-0.463-0.84-1.307-1.442-2.429-1.76
		c-0.449-0.127-0.885-0.19-1.297-0.19c-1.605,0-2.788,0.93-3.247,2.551C10.639,39.707,11.645,41.392,13.853,42.023L13.853,42.023z"
		/>
	<path d="M17.317,30.379l-0.092,0.163l-1.162-0.621l0.088-0.163c0.293-0.541,0.607-0.989,1.103-0.727
		c0.176,0.096,0.279,0.206,0.322,0.344C17.668,29.669,17.469,30.087,17.317,30.379L17.317,30.379z M21.087,32.598l-2.474-1.322
		l0.08-0.154c0.232-0.442,0.412-0.403,0.794-0.356l2.414,0.307l0.953-1.799l-3.208-0.333c-0.213-0.017-0.448-0.01-0.627,0.034
		c0.027-0.684-0.328-1.326-0.977-1.671c-0.363-0.193-0.712-0.29-1.038-0.29c-1.171,0-1.794,1.181-2.345,2.225l-0.839,1.577
		l6.404,3.411L21.087,32.598L21.087,32.598z"/>
	<polygon points="25.087,26.289 21.798,23.561 26.466,24.623 27.767,23.057 22.182,18.423 21.046,19.798 24.336,22.528 
		19.676,21.45 18.367,23.029 23.951,27.657 25.087,26.289 	"/>
	<polygon points="33.158,18.446 32.169,17.229 30.145,18.877 29.264,17.795 31.113,16.296 30.115,15.082 28.276,16.581 
		27.546,15.68 29.555,14.045 28.565,12.828 25.13,15.626 29.707,21.253 33.158,18.446 	"/>
	<polygon points="39.181,14.852 38.406,13.479 36.159,14.745 33.37,9.791 31.763,10.699 35.318,17.016 39.181,14.852 	"/>
	<polygon points="45.271,12.518 44.732,11.044 42.307,11.923 40.372,6.581 38.64,7.208 41.106,14.023 45.271,12.518 	"/>
	<path d="M52.573,11.317c0.145,0,0.293-0.008,0.443-0.023c1.004-0.084,1.742-0.399,2.199-0.934c0.43-0.513,0.609-1.223,0.533-2.105
		l-0.375-4.552l-1.834,0.148l0.342,4.141c0.121,1.46-0.465,1.696-0.988,1.746c-0.047,0-0.092,0.005-0.135,0.005
		c-0.43,0-1.018-0.163-1.135-1.564l-0.338-4.136l-1.833,0.15l0.376,4.552C49.969,10.426,50.914,11.317,52.573,11.317L52.573,11.317z
		"/>
	<polygon points="60.877,6.986 62.443,11.517 64.462,11.791 65.437,4.599 63.671,4.361 63.099,8.602 61.535,4.072 59.512,3.798 
		58.54,10.991 60.306,11.229 60.877,6.986 	"/>
	<polygon points="70.882,6.152 69.129,5.597 66.956,12.523 68.711,13.072 70.882,6.152 	"/>
	<polygon points="79.974,10.228 78.317,9.395 74.818,12.955 75.595,8.022 73.84,7.129 72.764,14.718 74.549,15.616 79.974,10.228 	
		"/>
	<polygon points="81.79,20.599 82.757,19.369 80.695,17.757 81.555,16.656 83.422,18.124 84.388,16.887 82.517,15.421 
		83.231,14.508 85.273,16.105 86.243,14.875 82.752,12.141 78.284,17.856 81.79,20.599 	"/>
	<path d="M89.062,19.896l0.125,0.143c0.259,0.299,0.527,0.636,0.504,0.915c-0.005,0.129-0.075,0.248-0.213,0.37
		c-0.137,0.117-0.268,0.178-0.402,0.178c-0.31,0-0.63-0.319-0.876-0.597l-0.123-0.141L89.062,19.896L89.062,19.896z M84.792,23.642
		l2.106-1.848l0.117,0.136c0.27,0.308,0.278,0.44,0.055,0.871l-1.14,2.147l1.345,1.528l1.45-2.889
		c0.049-0.106,0.154-0.331,0.188-0.591c0.621,0.272,1.368,0.15,1.909-0.322c1.561-1.374,0.311-2.799-0.6-3.837l-1.192-1.357
		l-5.457,4.785L84.792,23.642L84.792,23.642z"/>
	<path d="M91.553,29.446c-0.357,0.21-0.802-0.146-1.005-0.487c-0.226-0.384-0.356-0.868-0.373-1.389l-0.014-0.379l-1.66,0.767
		l0.117,0.373c0.164,0.56,0.267,0.897,0.618,1.494c0.591,0.998,1.375,1.549,2.208,1.549c0.387,0,0.777-0.115,1.165-0.35
		c1.285-0.758,1.084-1.964,0.939-2.845c-0.103-0.623-0.152-1.009,0.106-1.163c0.129-0.073,0.251-0.11,0.365-0.11
		c0.332,0,0.553,0.315,0.634,0.448c0.209,0.357,0.348,0.781,0.407,1.217l0.044,0.337l1.51-0.684l-0.041-0.198
		c-0.106-0.514-0.312-1.028-0.632-1.569c-0.79-1.33-2.088-1.76-3.298-1.042c-1.242,0.731-1.062,1.911-0.928,2.769
		C91.824,28.864,91.869,29.26,91.553,29.446L91.553,29.446z"/>
	<polygon points="92.383,36.014 99.099,33.272 98.404,31.571 91.69,34.312 92.383,36.014 	"/>
	<polygon points="99.125,38.397 93.604,39.754 94.041,41.545 99.565,40.182 100.023,42.039 101.542,41.665 100.19,36.171 
		98.664,36.543 99.125,38.397 	"/>
	<polygon points="94.876,47.188 94.98,49.026 97.828,48.866 102.364,51.193 102.259,49.197 99.609,47.883 102.095,46.323 
		101.978,44.166 97.723,47.03 94.876,47.188 	"/>
	<polygon points="14.991,63.793 16.495,63.357 15.864,61.17 16.973,60.849 17.641,63.149 19.146,62.712 17.971,58.635 
		10.994,60.646 11.514,62.424 14.358,61.6 14.991,63.793 	"/>
	<path d="M18.566,70.228c-0.461,0.228-0.917,0.347-1.322,0.347c-0.63,0-1.087-0.288-1.368-0.85c-0.188-0.387-0.223-0.76-0.1-1.118
		c0.17-0.499,0.662-0.978,1.351-1.315c0.428-0.209,0.869-0.323,1.27-0.323c0.645,0,1.113,0.283,1.382,0.841
		c0.188,0.381,0.217,0.756,0.094,1.12C19.698,69.433,19.222,69.912,18.566,70.228L18.566,70.228z M21.452,69.807
		c0.283-0.836,0.193-1.768-0.268-2.69c-0.64-1.312-1.705-2.029-2.981-2.029c-0.615,0-1.261,0.165-1.919,0.487
		c-1.061,0.521-1.781,1.266-2.082,2.154c-0.285,0.828-0.189,1.76,0.27,2.688c0.639,1.297,1.707,2.013,3.013,2.013
		c0.622,0,1.273-0.166,1.925-0.484C20.44,71.437,21.146,70.7,21.452,69.807L21.452,69.807z"/>
	<path d="M26.45,75.427l-3.249,2.584c-0.875,0.701-1.501,0.764-2.005,0.128c-0.207-0.26-0.293-0.51-0.262-0.763
		c0.043-0.359,0.328-0.747,0.85-1.163l3.245-2.579l-1.156-1.448L20.3,75.021c-0.744,0.593-1.14,1.256-1.171,1.974
		c-0.034,0.665,0.251,1.384,0.845,2.123c0.703,0.888,1.459,1.333,2.252,1.333c0.587,0,1.192-0.244,1.803-0.729l3.577-2.843
		L26.45,75.427L26.45,75.427z"/>
	<polygon points="32.62,81.331 29.908,84.641 30.941,79.951 29.339,78.647 24.74,84.26 26.134,85.39 28.848,82.073 27.827,86.78 
		29.41,88.079 34.009,82.466 32.62,81.331 	"/>
	<path d="M38.335,89.001c-0.375,0.752-1.024,1.177-1.783,1.177c-0.31,0-0.617-0.075-0.894-0.216l-0.449-0.22l1.853-3.688
		l0.445,0.228c0.466,0.234,0.826,0.642,0.985,1.127C38.657,87.915,38.604,88.466,38.335,89.001L38.335,89.001z M37.978,84.762
		l-1.869-0.939l-3.263,6.486l1.869,0.934c0.9,0.454,1.685,0.671,2.404,0.671c1.255,0,2.241-0.688,2.926-2.05
		C41.126,87.714,40.433,85.998,37.978,84.762L37.978,84.762z"/>
	<polygon points="41.981,94.335 46.321,95.49 46.726,93.98 44.173,93.297 44.529,91.952 46.849,92.571 47.256,91.061 44.935,90.438 
		45.231,89.318 47.762,89.991 48.172,88.479 43.848,87.322 41.981,94.335 	"/>
	<path d="M52.618,94.732l-0.5-0.023l0.238-4.112l0.492,0.027c0.976,0.052,1.925,0.815,1.851,2.16
		C54.617,94.183,53.563,94.786,52.618,94.732L52.618,94.732z M52.683,89.041l-2.095-0.12l-0.404,7.246l2.085,0.12
		c0.16,0.01,0.318,0.013,0.477,0.013c2.431,0,3.731-1.146,3.86-3.401c0.06-1.119-0.193-2.007-0.764-2.646
		C55.186,89.522,54.151,89.123,52.683,89.041L52.683,89.041z"/>
	<path d="M64.134,92.481l0.232-1.894l0.99,1.631L64.134,92.481L64.134,92.481z M62.992,88.493l-1.232,7.682l1.898-0.411l0.25-1.627
		l2.329-0.51l0.886,1.4l1.989-0.436l-4.294-6.488L62.992,88.493L62.992,88.493z"/>
	<polygon points="69.886,92.243 70.514,93.986 72.261,93.357 71.624,91.609 69.886,92.243 	"/>
	<path d="M76.358,89.776l-0.436,0.237l-1.964-3.617l0.44-0.238c0.29-0.16,0.62-0.248,0.95-0.248c0.732,0,1.373,0.415,1.757,1.116
		C77.747,88.213,77.216,89.31,76.358,89.776L76.358,89.776z M73.42,84.901l-1.843,0.993l3.461,6.381l1.837-0.998
		c2.412-1.304,3.054-3.041,1.908-5.156C77.648,84.02,75.828,83.59,73.42,84.901L73.42,84.901z"/>
	<polygon points="80.167,87.188 81.232,88.714 82.755,87.654 81.695,86.125 80.167,87.188 	"/>
	<polygon points="83.063,77.901 82.741,80.748 84.334,80.966 84.467,79.777 87.929,83.29 89.25,81.986 84.155,76.819 83.063,77.901 
			"/>
	<path d="M91.938,76.586c-0.248,0.333-0.711,0.431-1.025,0.199c-0.289-0.216-0.381-0.509-0.304-1.005
		c0.521-0.339,0.901-0.396,1.228-0.152c0.153,0.112,0.239,0.253,0.264,0.412C92.127,76.213,92.068,76.408,91.938,76.586
		L91.938,76.586z M89.446,74.631c-0.259,0.162-0.529,0.302-0.768,0.302c-0.115,0-0.214-0.028-0.304-0.094
		c-0.357-0.268-0.18-0.708-0.02-0.921c0.121-0.168,0.272-0.25,0.442-0.25c0.121,0,0.256,0.047,0.384,0.141
		C89.399,73.975,89.493,74.353,89.446,74.631L89.446,74.631z M92.894,74.103c-0.604-0.445-1.283-0.519-2.037-0.228
		c0.012-0.714-0.357-1.324-0.8-1.654c-0.904-0.664-2.111-0.291-2.995,0.906c-0.876,1.182-0.797,2.382,0.211,3.131
		c0.501,0.371,1.156,0.456,1.784,0.233c-0.045,0.791,0.209,1.382,0.771,1.795c0.406,0.301,0.83,0.452,1.263,0.452
		c0.729,0,1.457-0.446,2.062-1.254c0.504-0.69,0.728-1.384,0.632-2.008C93.707,74.939,93.408,74.484,92.894,74.103L92.894,74.103z"
		/>
	<path d="M96.118,69.754c-0.115,0.238-0.296,0.354-0.557,0.354c-0.176,0-0.381-0.055-0.591-0.164
		c-0.358-0.177-0.6-0.398-0.669-0.624c-0.045-0.134-0.032-0.267,0.04-0.416c0.11-0.217,0.286-0.322,0.546-0.322
		c0.196,0,0.425,0.063,0.662,0.18c0.309,0.156,0.533,0.372,0.605,0.595C96.2,69.49,96.185,69.621,96.118,69.754L96.118,69.754z
		 M96.185,67.009c-1.258-0.63-2.453-0.256-3.058,0.952c-0.167,0.342-0.238,0.672-0.205,0.997c-0.451-0.372-0.859-0.946-0.505-1.656
		c0.179-0.361,0.416-0.602,0.704-0.854l0.246-0.209l-1.335-0.959l-0.15,0.148c-0.371,0.361-0.663,0.766-0.893,1.226
		c-0.358,0.723-0.427,1.421-0.201,2.095c0.391,1.172,1.585,1.973,2.515,2.434c0.808,0.41,1.5,0.606,2.104,0.606
		c0.921,0,1.614-0.457,2.066-1.359C98.174,69.021,97.703,67.773,96.185,67.009L96.185,67.009z"/>
	<path d="M98.752,59.684c-1.449-0.435-2.617,0.221-3.028,1.617c-0.04,0.128-0.071,0.248-0.086,0.353l-0.85-0.27l0.741-2.496
		l-1.45-0.428l-1.241,4.188l4.02,1.28l-0.003-0.353c-0.003-0.391,0.049-0.759,0.16-1.133c0.103-0.348,0.475-1.204,1.253-0.973
		c0.823,0.247,0.632,1.135,0.558,1.403c-0.146,0.49-0.434,0.843-0.674,1.136l-0.231,0.282l1.692,0.559l0.102-0.185
		c0.278-0.488,0.525-1.055,0.656-1.504c0.253-0.848,0.218-1.631-0.096-2.257C99.976,60.317,99.439,59.887,98.752,59.684
		L98.752,59.684z"/>
	<path d="M56,14.707c19.461,0,35.294,15.835,35.294,35.292C91.294,69.46,75.46,85.292,56,85.292
		c-19.462,0-35.293-15.832-35.293-35.293C20.706,30.542,36.537,14.707,56,14.707L56,14.707z M19.443,49.999
		c0,20.163,16.396,36.562,36.556,36.562c20.16,0,36.557-16.399,36.557-36.562C92.557,29.84,76.16,13.441,56,13.441
		C35.84,13.441,19.443,29.84,19.443,49.999L19.443,49.999z"/>
	<path d="M56,98.694c-26.851,0-48.693-21.841-48.693-48.692C7.306,23.154,29.149,1.307,56,1.307
		c26.852,0,48.694,21.847,48.694,48.695C104.693,76.854,82.851,98.694,56,98.694L56,98.694z M56,0C28.428,0,6,22.429,6,50.002
		C6,77.567,28.428,100,56,100c27.572,0,50-22.433,50-49.998C106,22.429,83.572,0,56,0L56,0z"/>
</g>
</svg>
